<svg width="124" height="4" viewBox="0 0 124 4" fill="none" xmlns="http://www.w3.org/2000/svg">
<circle cx="2" cy="2" r="2" transform="rotate(180 2 2)" fill="#3383FF"/>
<circle cx="17" cy="2" r="2" transform="rotate(180 17 2)" fill="#3383FF"/>
<circle cx="32" cy="2" r="2" transform="rotate(180 32 2)" fill="#3383FF"/>
<circle cx="47" cy="2" r="2" transform="rotate(180 47 2)" fill="#3383FF"/>
<circle cx="62" cy="2" r="2" transform="rotate(180 62 2)" fill="#3383FF"/>
<ellipse cx="77" cy="2" rx="2" ry="2" transform="rotate(180 77 2)" fill="#3383FF"/>
<ellipse cx="92" cy="2" rx="2" ry="2" transform="rotate(180 92 2)" fill="#3383FF"/>
<ellipse cx="107" cy="2" rx="2" ry="2" transform="rotate(180 107 2)" fill="#3383FF"/>
<ellipse cx="122" cy="2" rx="2" ry="2" transform="rotate(180 122 2)" fill="#3383FF"/>
</svg>
