<svg width="569" height="421" viewBox="0 0 569 421" fill="none" xmlns="http://www.w3.org/2000/svg">
<ellipse cx="150.104" cy="417.083" rx="3.04474" ry="3.0444" transform="rotate(180 150.104 417.083)" fill="#EAEDF0"/>
<ellipse cx="150.104" cy="368.373" rx="3.04474" ry="3.0444" transform="rotate(180 150.104 368.373)" fill="#EAEDF0"/>
<ellipse cx="150.104" cy="319.662" rx="3.04474" ry="3.0444" transform="rotate(180 150.104 319.662)" fill="#EAEDF0"/>
<ellipse cx="150.104" cy="270.952" rx="3.04474" ry="3.0444" transform="rotate(180 150.104 270.952)" fill="#EAEDF0"/>
<ellipse cx="150.104" cy="222.241" rx="3.04474" ry="3.0444" transform="rotate(180 150.104 222.241)" fill="#EAEDF0"/>
<ellipse cx="150.104" cy="173.531" rx="3.04474" ry="3.0444" transform="rotate(180 150.104 173.531)" fill="#EAEDF0"/>
<ellipse cx="150.104" cy="124.821" rx="3.04474" ry="3.0444" transform="rotate(180 150.104 124.821)" fill="#EAEDF0"/>
<ellipse cx="150.104" cy="76.1099" rx="3.04474" ry="3.0444" transform="rotate(180 150.104 76.1099)" fill="#EAEDF0"/>
<ellipse cx="150.104" cy="27.3997" rx="3.04474" ry="3.0444" transform="rotate(180 150.104 27.3997)" fill="#EAEDF0"/>
<ellipse cx="174.462" cy="417.083" rx="3.04474" ry="3.0444" transform="rotate(180 174.462 417.083)" fill="#EAEDF0"/>
<ellipse cx="174.462" cy="319.662" rx="3.04474" ry="3.0444" transform="rotate(180 174.462 319.662)" fill="#EAEDF0"/>
<ellipse cx="174.462" cy="270.952" rx="3.04474" ry="3.0444" transform="rotate(180 174.462 270.952)" fill="#EAEDF0"/>
<ellipse cx="174.462" cy="222.241" rx="3.04474" ry="3.0444" transform="rotate(180 174.462 222.241)" fill="#EAEDF0"/>
<ellipse cx="174.462" cy="173.531" rx="3.04474" ry="3.0444" transform="rotate(180 174.462 173.531)" fill="#EAEDF0"/>
<ellipse cx="174.462" cy="124.821" rx="3.04474" ry="3.0444" transform="rotate(180 174.462 124.821)" fill="#EAEDF0"/>
<ellipse cx="174.462" cy="368.373" rx="3.04474" ry="3.0444" transform="rotate(180 174.462 368.373)" fill="#EAEDF0"/>
<ellipse cx="174.462" cy="76.1099" rx="3.04474" ry="3.0444" transform="rotate(180 174.462 76.1099)" fill="#EAEDF0"/>
<ellipse cx="174.462" cy="27.3997" rx="3.04474" ry="3.0444" transform="rotate(180 174.462 27.3997)" fill="#EAEDF0"/>
<ellipse cx="198.82" cy="319.662" rx="3.04474" ry="3.0444" transform="rotate(180 198.82 319.662)" fill="#EAEDF0"/>
<ellipse cx="198.82" cy="417.083" rx="3.04474" ry="3.0444" transform="rotate(180 198.82 417.083)" fill="#EAEDF0"/>
<ellipse cx="198.82" cy="270.952" rx="3.04474" ry="3.0444" transform="rotate(180 198.82 270.952)" fill="#EAEDF0"/>
<ellipse cx="198.82" cy="222.241" rx="3.04474" ry="3.0444" transform="rotate(180 198.82 222.241)" fill="#EAEDF0"/>
<ellipse cx="198.82" cy="173.531" rx="3.04474" ry="3.0444" transform="rotate(180 198.82 173.531)" fill="#EAEDF0"/>
<ellipse cx="198.82" cy="124.821" rx="3.04474" ry="3.0444" transform="rotate(180 198.82 124.821)" fill="#EAEDF0"/>
<ellipse cx="198.82" cy="368.373" rx="3.04474" ry="3.0444" transform="rotate(180 198.82 368.373)" fill="#EAEDF0"/>
<ellipse cx="223.178" cy="319.662" rx="3.04474" ry="3.0444" transform="rotate(180 223.178 319.662)" fill="#EAEDF0"/>
<ellipse cx="198.82" cy="76.1099" rx="3.04474" ry="3.0444" transform="rotate(180 198.82 76.1099)" fill="#EAEDF0"/>
<ellipse cx="198.82" cy="27.3997" rx="3.04474" ry="3.0444" transform="rotate(180 198.82 27.3997)" fill="#EAEDF0"/>
<ellipse cx="223.178" cy="270.952" rx="3.04474" ry="3.0444" transform="rotate(180 223.178 270.952)" fill="#EAEDF0"/>
<ellipse cx="223.178" cy="222.241" rx="3.04474" ry="3.0444" transform="rotate(180 223.178 222.241)" fill="#EAEDF0"/>
<ellipse cx="223.178" cy="173.531" rx="3.04474" ry="3.0444" transform="rotate(180 223.178 173.531)" fill="#EAEDF0"/>
<ellipse cx="223.178" cy="124.821" rx="3.04474" ry="3.0444" transform="rotate(180 223.178 124.821)" fill="#EAEDF0"/>
<ellipse cx="223.178" cy="417.083" rx="3.04474" ry="3.0444" transform="rotate(180 223.178 417.083)" fill="#EAEDF0"/>
<ellipse cx="247.536" cy="319.662" rx="3.04474" ry="3.0444" transform="rotate(180 247.536 319.662)" fill="#EAEDF0"/>
<ellipse cx="223.178" cy="368.373" rx="3.04474" ry="3.0444" transform="rotate(180 223.178 368.373)" fill="#EAEDF0"/>
<ellipse cx="223.178" cy="76.1099" rx="3.04474" ry="3.0444" transform="rotate(180 223.178 76.1099)" fill="#EAEDF0"/>
<ellipse cx="223.178" cy="27.3997" rx="3.04474" ry="3.0444" transform="rotate(180 223.178 27.3997)" fill="#EAEDF0"/>
<ellipse cx="247.536" cy="270.952" rx="3.04474" ry="3.0444" transform="rotate(180 247.536 270.952)" fill="#EAEDF0"/>
<ellipse cx="271.894" cy="319.662" rx="3.04474" ry="3.0444" transform="rotate(180 271.894 319.662)" fill="#EAEDF0"/>
<ellipse cx="247.536" cy="222.241" rx="3.04474" ry="3.0444" transform="rotate(180 247.536 222.241)" fill="#EAEDF0"/>
<ellipse cx="247.536" cy="417.083" rx="3.04474" ry="3.0444" transform="rotate(180 247.536 417.083)" fill="#EAEDF0"/>
<ellipse cx="247.536" cy="173.531" rx="3.04474" ry="3.0444" transform="rotate(180 247.536 173.531)" fill="#EAEDF0"/>
<ellipse cx="247.536" cy="368.373" rx="3.04474" ry="3.0444" transform="rotate(180 247.536 368.373)" fill="#EAEDF0"/>
<ellipse cx="247.536" cy="124.821" rx="3.04474" ry="3.0444" transform="rotate(180 247.536 124.821)" fill="#EAEDF0"/>
<ellipse cx="271.894" cy="270.952" rx="3.04474" ry="3.0444" transform="rotate(180 271.894 270.952)" fill="#EAEDF0"/>
<ellipse cx="150.104" cy="295.307" rx="3.04474" ry="3.0444" transform="rotate(180 150.104 295.307)" fill="#EAEDF0"/>
<ellipse cx="271.894" cy="222.241" rx="3.04474" ry="3.0444" transform="rotate(180 271.894 222.241)" fill="#EAEDF0"/>
<ellipse cx="271.894" cy="173.531" rx="3.04474" ry="3.0444" transform="rotate(180 271.894 173.531)" fill="#EAEDF0"/>
<ellipse cx="271.894" cy="124.821" rx="3.04474" ry="3.0444" transform="rotate(180 271.894 124.821)" fill="#EAEDF0"/>
<ellipse cx="247.536" cy="76.1101" rx="3.04474" ry="3.0444" transform="rotate(180 247.536 76.1101)" fill="#EAEDF0"/>
<ellipse cx="247.536" cy="27.3997" rx="3.04474" ry="3.0444" transform="rotate(180 247.536 27.3997)" fill="#EAEDF0"/>
<ellipse cx="271.894" cy="417.083" rx="3.04474" ry="3.0444" transform="rotate(180 271.894 417.083)" fill="#EAEDF0"/>
<ellipse cx="174.462" cy="295.307" rx="3.04474" ry="3.0444" transform="rotate(180 174.462 295.307)" fill="#EAEDF0"/>
<ellipse cx="150.104" cy="246.597" rx="3.04474" ry="3.0444" transform="rotate(180 150.104 246.597)" fill="#EAEDF0"/>
<ellipse cx="271.894" cy="368.373" rx="3.04474" ry="3.0444" transform="rotate(180 271.894 368.373)" fill="#EAEDF0"/>
<ellipse cx="271.894" cy="76.1099" rx="3.04474" ry="3.0444" transform="rotate(180 271.894 76.1099)" fill="#EAEDF0"/>
<ellipse cx="271.894" cy="27.3997" rx="3.04474" ry="3.0444" transform="rotate(180 271.894 27.3997)" fill="#EAEDF0"/>
<ellipse cx="150.104" cy="197.886" rx="3.04474" ry="3.0444" transform="rotate(180 150.104 197.886)" fill="#EAEDF0"/>
<ellipse cx="198.82" cy="295.307" rx="3.04474" ry="3.0444" transform="rotate(180 198.82 295.307)" fill="#EAEDF0"/>
<ellipse cx="150.104" cy="149.176" rx="3.04474" ry="3.0444" transform="rotate(180 150.104 149.176)" fill="#EAEDF0"/>
<ellipse cx="150.104" cy="100.465" rx="3.04474" ry="3.0444" transform="rotate(180 150.104 100.465)" fill="#EAEDF0"/>
<ellipse cx="174.462" cy="246.597" rx="3.04474" ry="3.0444" transform="rotate(180 174.462 246.597)" fill="#EAEDF0"/>
<ellipse cx="150.104" cy="392.728" rx="3.04474" ry="3.0444" transform="rotate(180 150.104 392.728)" fill="#EAEDF0"/>
<ellipse cx="150.104" cy="344.018" rx="3.04474" ry="3.0444" transform="rotate(180 150.104 344.018)" fill="#EAEDF0"/>
<ellipse cx="223.178" cy="295.307" rx="3.04474" ry="3.0444" transform="rotate(180 223.178 295.307)" fill="#EAEDF0"/>
<ellipse cx="174.462" cy="197.886" rx="3.04474" ry="3.0444" transform="rotate(180 174.462 197.886)" fill="#EAEDF0"/>
<ellipse cx="198.82" cy="246.597" rx="3.04474" ry="3.0444" transform="rotate(180 198.82 246.597)" fill="#EAEDF0"/>
<ellipse cx="150.104" cy="51.7549" rx="3.04474" ry="3.0444" transform="rotate(180 150.104 51.7549)" fill="#EAEDF0"/>
<ellipse cx="150.104" cy="3.04446" rx="3.04474" ry="3.0444" transform="rotate(180 150.104 3.04446)" fill="#EAEDF0"/>
<ellipse cx="174.462" cy="149.176" rx="3.04474" ry="3.0444" transform="rotate(180 174.462 149.176)" fill="#EAEDF0"/>
<ellipse cx="174.462" cy="392.728" rx="3.04474" ry="3.0444" transform="rotate(180 174.462 392.728)" fill="#EAEDF0"/>
<ellipse cx="174.462" cy="100.465" rx="3.04474" ry="3.0444" transform="rotate(180 174.462 100.465)" fill="#EAEDF0"/>
<ellipse cx="223.178" cy="246.597" rx="3.04474" ry="3.0444" transform="rotate(180 223.178 246.597)" fill="#EAEDF0"/>
<ellipse cx="198.82" cy="197.886" rx="3.04474" ry="3.0444" transform="rotate(180 198.82 197.886)" fill="#EAEDF0"/>
<ellipse cx="247.536" cy="295.307" rx="3.04474" ry="3.0444" transform="rotate(180 247.536 295.307)" fill="#EAEDF0"/>
<ellipse cx="174.462" cy="344.018" rx="3.04474" ry="3.0444" transform="rotate(180 174.462 344.018)" fill="#EAEDF0"/>
<ellipse cx="223.178" cy="197.886" rx="3.04474" ry="3.0444" transform="rotate(180 223.178 197.886)" fill="#EAEDF0"/>
<ellipse cx="198.82" cy="149.176" rx="3.04474" ry="3.0444" transform="rotate(180 198.82 149.176)" fill="#EAEDF0"/>
<ellipse cx="247.536" cy="246.597" rx="3.04474" ry="3.0444" transform="rotate(180 247.536 246.597)" fill="#EAEDF0"/>
<ellipse cx="174.462" cy="51.7549" rx="3.04474" ry="3.0444" transform="rotate(180 174.462 51.7549)" fill="#EAEDF0"/>
<ellipse cx="174.462" cy="3.04446" rx="3.04474" ry="3.0444" transform="rotate(180 174.462 3.04446)" fill="#EAEDF0"/>
<ellipse cx="223.178" cy="149.176" rx="3.04474" ry="3.0444" transform="rotate(180 223.178 149.176)" fill="#EAEDF0"/>
<ellipse cx="198.82" cy="100.465" rx="3.04474" ry="3.0444" transform="rotate(180 198.82 100.465)" fill="#EAEDF0"/>
<ellipse cx="247.536" cy="197.886" rx="3.04474" ry="3.0444" transform="rotate(180 247.536 197.886)" fill="#EAEDF0"/>
<ellipse cx="271.894" cy="295.307" rx="3.04474" ry="3.0444" transform="rotate(180 271.894 295.307)" fill="#EAEDF0"/>
<ellipse cx="223.178" cy="100.465" rx="3.04474" ry="3.0444" transform="rotate(180 223.178 100.465)" fill="#EAEDF0"/>
<ellipse cx="247.536" cy="149.176" rx="3.04474" ry="3.0444" transform="rotate(180 247.536 149.176)" fill="#EAEDF0"/>
<ellipse cx="271.894" cy="246.597" rx="3.04474" ry="3.0444" transform="rotate(180 271.894 246.597)" fill="#EAEDF0"/>
<ellipse cx="247.536" cy="100.465" rx="3.04474" ry="3.0444" transform="rotate(180 247.536 100.465)" fill="#EAEDF0"/>
<ellipse cx="271.894" cy="197.886" rx="3.04474" ry="3.0444" transform="rotate(180 271.894 197.886)" fill="#EAEDF0"/>
<ellipse cx="271.894" cy="149.176" rx="3.04474" ry="3.0444" transform="rotate(180 271.894 149.176)" fill="#EAEDF0"/>
<ellipse cx="271.894" cy="100.465" rx="3.04474" ry="3.0444" transform="rotate(180 271.894 100.465)" fill="#EAEDF0"/>
<ellipse cx="198.82" cy="392.728" rx="3.04474" ry="3.0444" transform="rotate(180 198.82 392.728)" fill="#EAEDF0"/>
<ellipse cx="198.82" cy="344.018" rx="3.04474" ry="3.0444" transform="rotate(180 198.82 344.018)" fill="#EAEDF0"/>
<ellipse cx="198.82" cy="51.7549" rx="3.04474" ry="3.0444" transform="rotate(180 198.82 51.7549)" fill="#EAEDF0"/>
<ellipse cx="198.82" cy="3.04446" rx="3.04474" ry="3.0444" transform="rotate(180 198.82 3.04446)" fill="#EAEDF0"/>
<ellipse cx="223.178" cy="392.728" rx="3.04474" ry="3.0444" transform="rotate(180 223.178 392.728)" fill="#EAEDF0"/>
<ellipse cx="223.178" cy="344.018" rx="3.04474" ry="3.0444" transform="rotate(180 223.178 344.018)" fill="#EAEDF0"/>
<ellipse cx="223.178" cy="51.7549" rx="3.04474" ry="3.0444" transform="rotate(180 223.178 51.7549)" fill="#EAEDF0"/>
<ellipse cx="223.178" cy="3.04446" rx="3.04474" ry="3.0444" transform="rotate(180 223.178 3.04446)" fill="#EAEDF0"/>
<ellipse cx="247.536" cy="392.728" rx="3.04474" ry="3.0444" transform="rotate(180 247.536 392.728)" fill="#EAEDF0"/>
<ellipse cx="247.536" cy="344.018" rx="3.04474" ry="3.0444" transform="rotate(180 247.536 344.018)" fill="#EAEDF0"/>
<ellipse cx="247.536" cy="51.7549" rx="3.04474" ry="3.0444" transform="rotate(180 247.536 51.7549)" fill="#EAEDF0"/>
<ellipse cx="247.536" cy="3.04446" rx="3.04474" ry="3.0444" transform="rotate(180 247.536 3.04446)" fill="#EAEDF0"/>
<ellipse cx="271.894" cy="392.728" rx="3.04474" ry="3.0444" transform="rotate(180 271.894 392.728)" fill="#EAEDF0"/>
<ellipse cx="271.894" cy="344.018" rx="3.04474" ry="3.0444" transform="rotate(180 271.894 344.018)" fill="#EAEDF0"/>
<ellipse cx="271.894" cy="51.7549" rx="3.04474" ry="3.0444" transform="rotate(180 271.894 51.7549)" fill="#EAEDF0"/>
<ellipse cx="271.894" cy="3.04446" rx="3.04474" ry="3.0444" transform="rotate(180 271.894 3.04446)" fill="#EAEDF0"/>
<ellipse cx="3.04462" cy="417.084" rx="3.04474" ry="3.0444" transform="rotate(180 3.04462 417.084)" fill="#EAEDF0"/>
<ellipse cx="3.04462" cy="368.373" rx="3.04474" ry="3.0444" transform="rotate(180 3.04462 368.373)" fill="#EAEDF0"/>
<ellipse cx="3.04462" cy="319.663" rx="3.04474" ry="3.0444" transform="rotate(180 3.04462 319.663)" fill="#EAEDF0"/>
<ellipse cx="3.04462" cy="270.952" rx="3.04474" ry="3.0444" transform="rotate(180 3.04462 270.952)" fill="#EAEDF0"/>
<ellipse cx="3.04462" cy="222.242" rx="3.04474" ry="3.0444" transform="rotate(180 3.04462 222.242)" fill="#EAEDF0"/>
<ellipse cx="3.04462" cy="173.531" rx="3.04474" ry="3.0444" transform="rotate(180 3.04462 173.531)" fill="#EAEDF0"/>
<ellipse cx="3.04462" cy="124.821" rx="3.04474" ry="3.0444" transform="rotate(180 3.04462 124.821)" fill="#EAEDF0"/>
<ellipse cx="3.04462" cy="76.1101" rx="3.04474" ry="3.0444" transform="rotate(180 3.04462 76.1101)" fill="#EAEDF0"/>
<ellipse cx="3.04462" cy="27.3999" rx="3.04474" ry="3.0444" transform="rotate(180 3.04462 27.3999)" fill="#EAEDF0"/>
<ellipse cx="27.4025" cy="417.084" rx="3.04474" ry="3.0444" transform="rotate(180 27.4025 417.084)" fill="#EAEDF0"/>
<ellipse cx="27.4025" cy="319.663" rx="3.04474" ry="3.0444" transform="rotate(180 27.4025 319.663)" fill="#EAEDF0"/>
<ellipse cx="27.4025" cy="270.952" rx="3.04474" ry="3.0444" transform="rotate(180 27.4025 270.952)" fill="#EAEDF0"/>
<ellipse cx="27.4025" cy="222.242" rx="3.04474" ry="3.0444" transform="rotate(180 27.4025 222.242)" fill="#EAEDF0"/>
<ellipse cx="27.4025" cy="173.531" rx="3.04474" ry="3.0444" transform="rotate(180 27.4025 173.531)" fill="#EAEDF0"/>
<ellipse cx="27.4025" cy="124.821" rx="3.04474" ry="3.0444" transform="rotate(180 27.4025 124.821)" fill="#EAEDF0"/>
<ellipse cx="27.4025" cy="368.373" rx="3.04474" ry="3.0444" transform="rotate(180 27.4025 368.373)" fill="#EAEDF0"/>
<ellipse cx="27.4025" cy="76.1101" rx="3.04474" ry="3.0444" transform="rotate(180 27.4025 76.1101)" fill="#EAEDF0"/>
<ellipse cx="27.4025" cy="27.3999" rx="3.04474" ry="3.0444" transform="rotate(180 27.4025 27.3999)" fill="#EAEDF0"/>
<ellipse cx="51.7604" cy="319.663" rx="3.04474" ry="3.0444" transform="rotate(180 51.7604 319.663)" fill="#EAEDF0"/>
<ellipse cx="51.7604" cy="417.084" rx="3.04474" ry="3.0444" transform="rotate(180 51.7604 417.084)" fill="#EAEDF0"/>
<ellipse cx="51.7604" cy="270.952" rx="3.04474" ry="3.0444" transform="rotate(180 51.7604 270.952)" fill="#EAEDF0"/>
<ellipse cx="51.7604" cy="222.242" rx="3.04474" ry="3.0444" transform="rotate(180 51.7604 222.242)" fill="#EAEDF0"/>
<ellipse cx="51.7604" cy="173.531" rx="3.04474" ry="3.0444" transform="rotate(180 51.7604 173.531)" fill="#EAEDF0"/>
<ellipse cx="51.7604" cy="124.821" rx="3.04474" ry="3.0444" transform="rotate(180 51.7604 124.821)" fill="#EAEDF0"/>
<ellipse cx="51.7604" cy="368.373" rx="3.04474" ry="3.0444" transform="rotate(180 51.7604 368.373)" fill="#EAEDF0"/>
<ellipse cx="76.1183" cy="319.663" rx="3.04474" ry="3.0444" transform="rotate(180 76.1183 319.663)" fill="#EAEDF0"/>
<ellipse cx="51.7604" cy="76.1101" rx="3.04474" ry="3.0444" transform="rotate(180 51.7604 76.1101)" fill="#EAEDF0"/>
<ellipse cx="51.7604" cy="27.3999" rx="3.04474" ry="3.0444" transform="rotate(180 51.7604 27.3999)" fill="#EAEDF0"/>
<ellipse cx="76.1183" cy="270.952" rx="3.04474" ry="3.0444" transform="rotate(180 76.1183 270.952)" fill="#EAEDF0"/>
<ellipse cx="76.1183" cy="222.242" rx="3.04474" ry="3.0444" transform="rotate(180 76.1183 222.242)" fill="#EAEDF0"/>
<ellipse cx="76.1183" cy="173.531" rx="3.04474" ry="3.0444" transform="rotate(180 76.1183 173.531)" fill="#EAEDF0"/>
<ellipse cx="76.1183" cy="124.821" rx="3.04474" ry="3.0444" transform="rotate(180 76.1183 124.821)" fill="#EAEDF0"/>
<ellipse cx="76.1183" cy="417.084" rx="3.04474" ry="3.0444" transform="rotate(180 76.1183 417.084)" fill="#EAEDF0"/>
<ellipse cx="100.476" cy="319.663" rx="3.04474" ry="3.0444" transform="rotate(180 100.476 319.663)" fill="#EAEDF0"/>
<ellipse cx="76.1183" cy="368.373" rx="3.04474" ry="3.0444" transform="rotate(180 76.1183 368.373)" fill="#EAEDF0"/>
<ellipse cx="76.1183" cy="76.1101" rx="3.04474" ry="3.0444" transform="rotate(180 76.1183 76.1101)" fill="#EAEDF0"/>
<ellipse cx="76.1183" cy="27.3999" rx="3.04474" ry="3.0444" transform="rotate(180 76.1183 27.3999)" fill="#EAEDF0"/>
<ellipse cx="100.476" cy="270.952" rx="3.04474" ry="3.0444" transform="rotate(180 100.476 270.952)" fill="#EAEDF0"/>
<ellipse cx="124.834" cy="319.663" rx="3.04474" ry="3.0444" transform="rotate(180 124.834 319.663)" fill="#EAEDF0"/>
<ellipse cx="100.476" cy="222.242" rx="3.04474" ry="3.0444" transform="rotate(180 100.476 222.242)" fill="#EAEDF0"/>
<ellipse cx="100.476" cy="417.084" rx="3.04474" ry="3.0444" transform="rotate(180 100.476 417.084)" fill="#EAEDF0"/>
<ellipse cx="100.476" cy="173.531" rx="3.04474" ry="3.0444" transform="rotate(180 100.476 173.531)" fill="#EAEDF0"/>
<ellipse cx="100.476" cy="368.373" rx="3.04474" ry="3.0444" transform="rotate(180 100.476 368.373)" fill="#EAEDF0"/>
<ellipse cx="100.476" cy="124.821" rx="3.04474" ry="3.0444" transform="rotate(180 100.476 124.821)" fill="#EAEDF0"/>
<ellipse cx="124.834" cy="270.952" rx="3.04474" ry="3.0444" transform="rotate(180 124.834 270.952)" fill="#EAEDF0"/>
<ellipse cx="3.04462" cy="295.308" rx="3.04474" ry="3.0444" transform="rotate(180 3.04462 295.308)" fill="#EAEDF0"/>
<ellipse cx="124.834" cy="222.242" rx="3.04474" ry="3.0444" transform="rotate(180 124.834 222.242)" fill="#EAEDF0"/>
<ellipse cx="124.834" cy="173.531" rx="3.04474" ry="3.0444" transform="rotate(180 124.834 173.531)" fill="#EAEDF0"/>
<ellipse cx="124.834" cy="124.821" rx="3.04474" ry="3.0444" transform="rotate(180 124.834 124.821)" fill="#EAEDF0"/>
<ellipse cx="100.476" cy="76.1104" rx="3.04474" ry="3.0444" transform="rotate(180 100.476 76.1104)" fill="#EAEDF0"/>
<ellipse cx="100.476" cy="27.3999" rx="3.04474" ry="3.0444" transform="rotate(180 100.476 27.3999)" fill="#EAEDF0"/>
<ellipse cx="124.834" cy="417.084" rx="3.04474" ry="3.0444" transform="rotate(180 124.834 417.084)" fill="#EAEDF0"/>
<ellipse cx="27.4025" cy="295.308" rx="3.04474" ry="3.0444" transform="rotate(180 27.4025 295.308)" fill="#EAEDF0"/>
<ellipse cx="3.04462" cy="246.597" rx="3.04474" ry="3.0444" transform="rotate(180 3.04462 246.597)" fill="#EAEDF0"/>
<ellipse cx="124.834" cy="368.373" rx="3.04474" ry="3.0444" transform="rotate(180 124.834 368.373)" fill="#EAEDF0"/>
<ellipse cx="124.834" cy="76.1101" rx="3.04474" ry="3.0444" transform="rotate(180 124.834 76.1101)" fill="#EAEDF0"/>
<ellipse cx="124.834" cy="27.3999" rx="3.04474" ry="3.0444" transform="rotate(180 124.834 27.3999)" fill="#EAEDF0"/>
<ellipse cx="3.04462" cy="197.887" rx="3.04474" ry="3.0444" transform="rotate(180 3.04462 197.887)" fill="#EAEDF0"/>
<ellipse cx="51.7604" cy="295.308" rx="3.04474" ry="3.0444" transform="rotate(180 51.7604 295.308)" fill="#EAEDF0"/>
<ellipse cx="3.04462" cy="149.176" rx="3.04474" ry="3.0444" transform="rotate(180 3.04462 149.176)" fill="#EAEDF0"/>
<ellipse cx="3.04462" cy="100.466" rx="3.04474" ry="3.0444" transform="rotate(180 3.04462 100.466)" fill="#EAEDF0"/>
<ellipse cx="27.4025" cy="246.597" rx="3.04474" ry="3.0444" transform="rotate(180 27.4025 246.597)" fill="#EAEDF0"/>
<ellipse cx="3.04462" cy="392.728" rx="3.04474" ry="3.0444" transform="rotate(180 3.04462 392.728)" fill="#EAEDF0"/>
<ellipse cx="3.04462" cy="344.018" rx="3.04474" ry="3.0444" transform="rotate(180 3.04462 344.018)" fill="#EAEDF0"/>
<ellipse cx="76.1183" cy="295.308" rx="3.04474" ry="3.0444" transform="rotate(180 76.1183 295.308)" fill="#EAEDF0"/>
<ellipse cx="27.4025" cy="197.887" rx="3.04474" ry="3.0444" transform="rotate(180 27.4025 197.887)" fill="#EAEDF0"/>
<ellipse cx="51.7604" cy="246.597" rx="3.04474" ry="3.0444" transform="rotate(180 51.7604 246.597)" fill="#EAEDF0"/>
<ellipse cx="3.04462" cy="51.7552" rx="3.04474" ry="3.0444" transform="rotate(180 3.04462 51.7552)" fill="#EAEDF0"/>
<ellipse cx="3.04462" cy="3.04471" rx="3.04474" ry="3.0444" transform="rotate(180 3.04462 3.04471)" fill="#EAEDF0"/>
<ellipse cx="27.4025" cy="149.176" rx="3.04474" ry="3.0444" transform="rotate(180 27.4025 149.176)" fill="#EAEDF0"/>
<ellipse cx="27.4025" cy="392.728" rx="3.04474" ry="3.0444" transform="rotate(180 27.4025 392.728)" fill="#EAEDF0"/>
<ellipse cx="27.4025" cy="100.466" rx="3.04474" ry="3.0444" transform="rotate(180 27.4025 100.466)" fill="#EAEDF0"/>
<ellipse cx="76.1183" cy="246.597" rx="3.04474" ry="3.0444" transform="rotate(180 76.1183 246.597)" fill="#EAEDF0"/>
<ellipse cx="51.7604" cy="197.887" rx="3.04474" ry="3.0444" transform="rotate(180 51.7604 197.887)" fill="#EAEDF0"/>
<ellipse cx="100.476" cy="295.308" rx="3.04474" ry="3.0444" transform="rotate(180 100.476 295.308)" fill="#EAEDF0"/>
<ellipse cx="27.4025" cy="344.018" rx="3.04474" ry="3.0444" transform="rotate(180 27.4025 344.018)" fill="#EAEDF0"/>
<ellipse cx="76.1183" cy="197.887" rx="3.04474" ry="3.0444" transform="rotate(180 76.1183 197.887)" fill="#EAEDF0"/>
<ellipse cx="51.7604" cy="149.176" rx="3.04474" ry="3.0444" transform="rotate(180 51.7604 149.176)" fill="#EAEDF0"/>
<ellipse cx="100.476" cy="246.597" rx="3.04474" ry="3.0444" transform="rotate(180 100.476 246.597)" fill="#EAEDF0"/>
<ellipse cx="27.4025" cy="51.7552" rx="3.04474" ry="3.0444" transform="rotate(180 27.4025 51.7552)" fill="#EAEDF0"/>
<ellipse cx="27.4025" cy="3.04471" rx="3.04474" ry="3.0444" transform="rotate(180 27.4025 3.04471)" fill="#EAEDF0"/>
<ellipse cx="76.1183" cy="149.176" rx="3.04474" ry="3.0444" transform="rotate(180 76.1183 149.176)" fill="#EAEDF0"/>
<ellipse cx="51.7604" cy="100.466" rx="3.04474" ry="3.0444" transform="rotate(180 51.7604 100.466)" fill="#EAEDF0"/>
<ellipse cx="100.476" cy="197.887" rx="3.04474" ry="3.0444" transform="rotate(180 100.476 197.887)" fill="#EAEDF0"/>
<ellipse cx="124.834" cy="295.307" rx="3.04474" ry="3.0444" transform="rotate(180 124.834 295.307)" fill="#EAEDF0"/>
<ellipse cx="76.1183" cy="100.466" rx="3.04474" ry="3.0444" transform="rotate(180 76.1183 100.466)" fill="#EAEDF0"/>
<ellipse cx="100.476" cy="149.176" rx="3.04474" ry="3.0444" transform="rotate(180 100.476 149.176)" fill="#EAEDF0"/>
<ellipse cx="124.834" cy="246.597" rx="3.04474" ry="3.0444" transform="rotate(180 124.834 246.597)" fill="#EAEDF0"/>
<ellipse cx="100.476" cy="100.466" rx="3.04474" ry="3.0444" transform="rotate(180 100.476 100.466)" fill="#EAEDF0"/>
<ellipse cx="124.834" cy="197.887" rx="3.04474" ry="3.0444" transform="rotate(180 124.834 197.887)" fill="#EAEDF0"/>
<ellipse cx="124.834" cy="149.176" rx="3.04474" ry="3.0444" transform="rotate(180 124.834 149.176)" fill="#EAEDF0"/>
<ellipse cx="124.834" cy="100.466" rx="3.04474" ry="3.0444" transform="rotate(180 124.834 100.466)" fill="#EAEDF0"/>
<ellipse cx="51.7604" cy="392.728" rx="3.04474" ry="3.0444" transform="rotate(180 51.7604 392.728)" fill="#EAEDF0"/>
<ellipse cx="51.7604" cy="344.018" rx="3.04474" ry="3.0444" transform="rotate(180 51.7604 344.018)" fill="#EAEDF0"/>
<ellipse cx="51.7604" cy="51.7552" rx="3.04474" ry="3.0444" transform="rotate(180 51.7604 51.7552)" fill="#EAEDF0"/>
<ellipse cx="51.7604" cy="3.04471" rx="3.04474" ry="3.0444" transform="rotate(180 51.7604 3.04471)" fill="#EAEDF0"/>
<ellipse cx="76.1183" cy="392.728" rx="3.04474" ry="3.0444" transform="rotate(180 76.1183 392.728)" fill="#EAEDF0"/>
<ellipse cx="76.1183" cy="344.018" rx="3.04474" ry="3.0444" transform="rotate(180 76.1183 344.018)" fill="#EAEDF0"/>
<ellipse cx="76.1183" cy="51.7552" rx="3.04474" ry="3.0444" transform="rotate(180 76.1183 51.7552)" fill="#EAEDF0"/>
<ellipse cx="76.1183" cy="3.04471" rx="3.04474" ry="3.0444" transform="rotate(180 76.1183 3.04471)" fill="#EAEDF0"/>
<ellipse cx="100.476" cy="392.728" rx="3.04474" ry="3.0444" transform="rotate(180 100.476 392.728)" fill="#EAEDF0"/>
<ellipse cx="100.476" cy="344.018" rx="3.04474" ry="3.0444" transform="rotate(180 100.476 344.018)" fill="#EAEDF0"/>
<ellipse cx="100.476" cy="51.7552" rx="3.04474" ry="3.0444" transform="rotate(180 100.476 51.7552)" fill="#EAEDF0"/>
<ellipse cx="100.476" cy="3.04471" rx="3.04474" ry="3.0444" transform="rotate(180 100.476 3.04471)" fill="#EAEDF0"/>
<ellipse cx="124.834" cy="392.728" rx="3.04474" ry="3.0444" transform="rotate(180 124.834 392.728)" fill="#EAEDF0"/>
<ellipse cx="124.834" cy="344.018" rx="3.04474" ry="3.0444" transform="rotate(180 124.834 344.018)" fill="#EAEDF0"/>
<ellipse cx="124.834" cy="51.7552" rx="3.04474" ry="3.0444" transform="rotate(180 124.834 51.7552)" fill="#EAEDF0"/>
<ellipse cx="124.834" cy="3.04471" rx="3.04474" ry="3.0444" transform="rotate(180 124.834 3.04471)" fill="#EAEDF0"/>
<ellipse cx="297.165" cy="417.084" rx="3.04474" ry="3.0444" transform="rotate(180 297.165 417.084)" fill="#EAEDF0"/>
<ellipse cx="297.165" cy="368.373" rx="3.04474" ry="3.0444" transform="rotate(180 297.165 368.373)" fill="#EAEDF0"/>
<ellipse cx="297.165" cy="319.663" rx="3.04474" ry="3.0444" transform="rotate(180 297.165 319.663)" fill="#EAEDF0"/>
<ellipse cx="297.165" cy="270.952" rx="3.04474" ry="3.0444" transform="rotate(180 297.165 270.952)" fill="#EAEDF0"/>
<ellipse cx="297.165" cy="222.242" rx="3.04474" ry="3.0444" transform="rotate(180 297.165 222.242)" fill="#EAEDF0"/>
<ellipse cx="297.165" cy="173.531" rx="3.04474" ry="3.0444" transform="rotate(180 297.165 173.531)" fill="#EAEDF0"/>
<ellipse cx="297.165" cy="124.821" rx="3.04474" ry="3.0444" transform="rotate(180 297.165 124.821)" fill="#EAEDF0"/>
<ellipse cx="297.165" cy="76.1101" rx="3.04474" ry="3.0444" transform="rotate(180 297.165 76.1101)" fill="#EAEDF0"/>
<ellipse cx="297.165" cy="27.3999" rx="3.04474" ry="3.0444" transform="rotate(180 297.165 27.3999)" fill="#EAEDF0"/>
<ellipse cx="321.523" cy="417.084" rx="3.04474" ry="3.0444" transform="rotate(180 321.523 417.084)" fill="#EAEDF0"/>
<ellipse cx="321.523" cy="319.663" rx="3.04474" ry="3.0444" transform="rotate(180 321.523 319.663)" fill="#EAEDF0"/>
<ellipse cx="321.523" cy="270.952" rx="3.04474" ry="3.0444" transform="rotate(180 321.523 270.952)" fill="#EAEDF0"/>
<ellipse cx="321.523" cy="222.242" rx="3.04474" ry="3.0444" transform="rotate(180 321.523 222.242)" fill="#EAEDF0"/>
<ellipse cx="321.523" cy="173.531" rx="3.04474" ry="3.0444" transform="rotate(180 321.523 173.531)" fill="#EAEDF0"/>
<ellipse cx="321.523" cy="124.821" rx="3.04474" ry="3.0444" transform="rotate(180 321.523 124.821)" fill="#EAEDF0"/>
<ellipse cx="321.523" cy="368.373" rx="3.04474" ry="3.0444" transform="rotate(180 321.523 368.373)" fill="#EAEDF0"/>
<ellipse cx="321.523" cy="76.1101" rx="3.04474" ry="3.0444" transform="rotate(180 321.523 76.1101)" fill="#EAEDF0"/>
<ellipse cx="321.523" cy="27.3999" rx="3.04474" ry="3.0444" transform="rotate(180 321.523 27.3999)" fill="#EAEDF0"/>
<ellipse cx="345.881" cy="319.663" rx="3.04474" ry="3.0444" transform="rotate(180 345.881 319.663)" fill="#EAEDF0"/>
<ellipse cx="345.881" cy="417.084" rx="3.04474" ry="3.0444" transform="rotate(180 345.881 417.084)" fill="#EAEDF0"/>
<ellipse cx="345.881" cy="270.952" rx="3.04474" ry="3.0444" transform="rotate(180 345.881 270.952)" fill="#EAEDF0"/>
<ellipse cx="345.881" cy="222.242" rx="3.04474" ry="3.0444" transform="rotate(180 345.881 222.242)" fill="#EAEDF0"/>
<ellipse cx="345.881" cy="173.531" rx="3.04474" ry="3.0444" transform="rotate(180 345.881 173.531)" fill="#EAEDF0"/>
<ellipse cx="345.881" cy="124.821" rx="3.04474" ry="3.0444" transform="rotate(180 345.881 124.821)" fill="#EAEDF0"/>
<ellipse cx="345.881" cy="368.373" rx="3.04474" ry="3.0444" transform="rotate(180 345.881 368.373)" fill="#EAEDF0"/>
<ellipse cx="370.238" cy="319.663" rx="3.04474" ry="3.0444" transform="rotate(180 370.238 319.663)" fill="#EAEDF0"/>
<ellipse cx="345.881" cy="76.1101" rx="3.04474" ry="3.0444" transform="rotate(180 345.881 76.1101)" fill="#EAEDF0"/>
<ellipse cx="345.881" cy="27.3999" rx="3.04474" ry="3.0444" transform="rotate(180 345.881 27.3999)" fill="#EAEDF0"/>
<ellipse cx="370.238" cy="270.952" rx="3.04474" ry="3.0444" transform="rotate(180 370.238 270.952)" fill="#EAEDF0"/>
<ellipse cx="370.238" cy="222.242" rx="3.04474" ry="3.0444" transform="rotate(180 370.238 222.242)" fill="#EAEDF0"/>
<ellipse cx="370.238" cy="173.531" rx="3.04474" ry="3.0444" transform="rotate(180 370.238 173.531)" fill="#EAEDF0"/>
<ellipse cx="370.238" cy="124.821" rx="3.04474" ry="3.0444" transform="rotate(180 370.238 124.821)" fill="#EAEDF0"/>
<ellipse cx="370.238" cy="417.084" rx="3.04474" ry="3.0444" transform="rotate(180 370.238 417.084)" fill="#EAEDF0"/>
<ellipse cx="394.596" cy="319.663" rx="3.04474" ry="3.0444" transform="rotate(180 394.596 319.663)" fill="#EAEDF0"/>
<ellipse cx="370.238" cy="368.373" rx="3.04474" ry="3.0444" transform="rotate(180 370.238 368.373)" fill="#EAEDF0"/>
<ellipse cx="370.238" cy="76.1101" rx="3.04474" ry="3.0444" transform="rotate(180 370.238 76.1101)" fill="#EAEDF0"/>
<ellipse cx="370.238" cy="27.3999" rx="3.04474" ry="3.0444" transform="rotate(180 370.238 27.3999)" fill="#EAEDF0"/>
<ellipse cx="394.596" cy="270.952" rx="3.04474" ry="3.0444" transform="rotate(180 394.596 270.952)" fill="#EAEDF0"/>
<ellipse cx="418.954" cy="319.663" rx="3.04474" ry="3.0444" transform="rotate(180 418.954 319.663)" fill="#EAEDF0"/>
<ellipse cx="394.596" cy="222.242" rx="3.04474" ry="3.0444" transform="rotate(180 394.596 222.242)" fill="#EAEDF0"/>
<ellipse cx="394.596" cy="417.084" rx="3.04474" ry="3.0444" transform="rotate(180 394.596 417.084)" fill="#EAEDF0"/>
<ellipse cx="394.596" cy="173.531" rx="3.04474" ry="3.0444" transform="rotate(180 394.596 173.531)" fill="#EAEDF0"/>
<ellipse cx="394.596" cy="368.373" rx="3.04474" ry="3.0444" transform="rotate(180 394.596 368.373)" fill="#EAEDF0"/>
<ellipse cx="394.596" cy="124.821" rx="3.04474" ry="3.0444" transform="rotate(180 394.596 124.821)" fill="#EAEDF0"/>
<ellipse cx="418.954" cy="270.952" rx="3.04474" ry="3.0444" transform="rotate(180 418.954 270.952)" fill="#EAEDF0"/>
<ellipse cx="297.165" cy="295.308" rx="3.04474" ry="3.0444" transform="rotate(180 297.165 295.308)" fill="#EAEDF0"/>
<ellipse cx="418.954" cy="222.242" rx="3.04474" ry="3.0444" transform="rotate(180 418.954 222.242)" fill="#EAEDF0"/>
<ellipse cx="418.954" cy="173.531" rx="3.04474" ry="3.0444" transform="rotate(180 418.954 173.531)" fill="#EAEDF0"/>
<ellipse cx="418.954" cy="124.821" rx="3.04474" ry="3.0444" transform="rotate(180 418.954 124.821)" fill="#EAEDF0"/>
<ellipse cx="394.596" cy="76.1104" rx="3.04474" ry="3.0444" transform="rotate(180 394.596 76.1104)" fill="#EAEDF0"/>
<ellipse cx="394.596" cy="27.3999" rx="3.04474" ry="3.0444" transform="rotate(180 394.596 27.3999)" fill="#EAEDF0"/>
<ellipse cx="418.954" cy="417.084" rx="3.04474" ry="3.0444" transform="rotate(180 418.954 417.084)" fill="#EAEDF0"/>
<ellipse cx="321.523" cy="295.308" rx="3.04474" ry="3.0444" transform="rotate(180 321.523 295.308)" fill="#EAEDF0"/>
<ellipse cx="297.165" cy="246.597" rx="3.04474" ry="3.0444" transform="rotate(180 297.165 246.597)" fill="#EAEDF0"/>
<ellipse cx="418.954" cy="368.373" rx="3.04474" ry="3.0444" transform="rotate(180 418.954 368.373)" fill="#EAEDF0"/>
<ellipse cx="418.954" cy="76.1101" rx="3.04474" ry="3.0444" transform="rotate(180 418.954 76.1101)" fill="#EAEDF0"/>
<ellipse cx="418.954" cy="27.3999" rx="3.04474" ry="3.0444" transform="rotate(180 418.954 27.3999)" fill="#EAEDF0"/>
<ellipse cx="297.165" cy="197.887" rx="3.04474" ry="3.0444" transform="rotate(180 297.165 197.887)" fill="#EAEDF0"/>
<ellipse cx="345.881" cy="295.308" rx="3.04474" ry="3.0444" transform="rotate(180 345.881 295.308)" fill="#EAEDF0"/>
<ellipse cx="297.165" cy="149.176" rx="3.04474" ry="3.0444" transform="rotate(180 297.165 149.176)" fill="#EAEDF0"/>
<ellipse cx="297.165" cy="100.466" rx="3.04474" ry="3.0444" transform="rotate(180 297.165 100.466)" fill="#EAEDF0"/>
<ellipse cx="321.523" cy="246.597" rx="3.04474" ry="3.0444" transform="rotate(180 321.523 246.597)" fill="#EAEDF0"/>
<ellipse cx="297.165" cy="392.728" rx="3.04474" ry="3.0444" transform="rotate(180 297.165 392.728)" fill="#EAEDF0"/>
<ellipse cx="297.165" cy="344.018" rx="3.04474" ry="3.0444" transform="rotate(180 297.165 344.018)" fill="#EAEDF0"/>
<ellipse cx="370.238" cy="295.308" rx="3.04474" ry="3.0444" transform="rotate(180 370.238 295.308)" fill="#EAEDF0"/>
<ellipse cx="321.523" cy="197.887" rx="3.04474" ry="3.0444" transform="rotate(180 321.523 197.887)" fill="#EAEDF0"/>
<ellipse cx="345.881" cy="246.597" rx="3.04474" ry="3.0444" transform="rotate(180 345.881 246.597)" fill="#EAEDF0"/>
<ellipse cx="297.165" cy="51.7552" rx="3.04474" ry="3.0444" transform="rotate(180 297.165 51.7552)" fill="#EAEDF0"/>
<ellipse cx="297.165" cy="3.04471" rx="3.04474" ry="3.0444" transform="rotate(180 297.165 3.04471)" fill="#EAEDF0"/>
<ellipse cx="321.523" cy="149.176" rx="3.04474" ry="3.0444" transform="rotate(180 321.523 149.176)" fill="#EAEDF0"/>
<ellipse cx="321.523" cy="392.728" rx="3.04474" ry="3.0444" transform="rotate(180 321.523 392.728)" fill="#EAEDF0"/>
<ellipse cx="321.523" cy="100.466" rx="3.04474" ry="3.0444" transform="rotate(180 321.523 100.466)" fill="#EAEDF0"/>
<ellipse cx="370.238" cy="246.597" rx="3.04474" ry="3.0444" transform="rotate(180 370.238 246.597)" fill="#EAEDF0"/>
<ellipse cx="345.881" cy="197.887" rx="3.04474" ry="3.0444" transform="rotate(180 345.881 197.887)" fill="#EAEDF0"/>
<ellipse cx="394.596" cy="295.308" rx="3.04474" ry="3.0444" transform="rotate(180 394.596 295.308)" fill="#EAEDF0"/>
<ellipse cx="321.523" cy="344.018" rx="3.04474" ry="3.0444" transform="rotate(180 321.523 344.018)" fill="#EAEDF0"/>
<ellipse cx="370.238" cy="197.887" rx="3.04474" ry="3.0444" transform="rotate(180 370.238 197.887)" fill="#EAEDF0"/>
<ellipse cx="345.881" cy="149.176" rx="3.04474" ry="3.0444" transform="rotate(180 345.881 149.176)" fill="#EAEDF0"/>
<ellipse cx="394.596" cy="246.597" rx="3.04474" ry="3.0444" transform="rotate(180 394.596 246.597)" fill="#EAEDF0"/>
<ellipse cx="321.523" cy="51.7552" rx="3.04474" ry="3.0444" transform="rotate(180 321.523 51.7552)" fill="#EAEDF0"/>
<ellipse cx="321.523" cy="3.04471" rx="3.04474" ry="3.0444" transform="rotate(180 321.523 3.04471)" fill="#EAEDF0"/>
<ellipse cx="370.238" cy="149.176" rx="3.04474" ry="3.0444" transform="rotate(180 370.238 149.176)" fill="#EAEDF0"/>
<ellipse cx="345.881" cy="100.466" rx="3.04474" ry="3.0444" transform="rotate(180 345.881 100.466)" fill="#EAEDF0"/>
<ellipse cx="394.596" cy="197.887" rx="3.04474" ry="3.0444" transform="rotate(180 394.596 197.887)" fill="#EAEDF0"/>
<ellipse cx="418.954" cy="295.307" rx="3.04474" ry="3.0444" transform="rotate(180 418.954 295.307)" fill="#EAEDF0"/>
<ellipse cx="370.238" cy="100.466" rx="3.04474" ry="3.0444" transform="rotate(180 370.238 100.466)" fill="#EAEDF0"/>
<ellipse cx="394.596" cy="149.176" rx="3.04474" ry="3.0444" transform="rotate(180 394.596 149.176)" fill="#EAEDF0"/>
<ellipse cx="418.954" cy="246.597" rx="3.04474" ry="3.0444" transform="rotate(180 418.954 246.597)" fill="#EAEDF0"/>
<ellipse cx="394.596" cy="100.466" rx="3.04474" ry="3.0444" transform="rotate(180 394.596 100.466)" fill="#EAEDF0"/>
<ellipse cx="418.954" cy="197.887" rx="3.04474" ry="3.0444" transform="rotate(180 418.954 197.887)" fill="#EAEDF0"/>
<ellipse cx="418.954" cy="149.176" rx="3.04474" ry="3.0444" transform="rotate(180 418.954 149.176)" fill="#EAEDF0"/>
<ellipse cx="418.954" cy="100.466" rx="3.04474" ry="3.0444" transform="rotate(180 418.954 100.466)" fill="#EAEDF0"/>
<ellipse cx="345.881" cy="392.728" rx="3.04474" ry="3.0444" transform="rotate(180 345.881 392.728)" fill="#EAEDF0"/>
<ellipse cx="345.881" cy="344.018" rx="3.04474" ry="3.0444" transform="rotate(180 345.881 344.018)" fill="#EAEDF0"/>
<ellipse cx="345.881" cy="51.7552" rx="3.04474" ry="3.0444" transform="rotate(180 345.881 51.7552)" fill="#EAEDF0"/>
<ellipse cx="345.881" cy="3.04471" rx="3.04474" ry="3.0444" transform="rotate(180 345.881 3.04471)" fill="#EAEDF0"/>
<ellipse cx="370.238" cy="392.728" rx="3.04474" ry="3.0444" transform="rotate(180 370.238 392.728)" fill="#EAEDF0"/>
<ellipse cx="370.238" cy="344.018" rx="3.04474" ry="3.0444" transform="rotate(180 370.238 344.018)" fill="#EAEDF0"/>
<ellipse cx="370.238" cy="51.7552" rx="3.04474" ry="3.0444" transform="rotate(180 370.238 51.7552)" fill="#EAEDF0"/>
<ellipse cx="370.238" cy="3.04471" rx="3.04474" ry="3.0444" transform="rotate(180 370.238 3.04471)" fill="#EAEDF0"/>
<ellipse cx="394.596" cy="392.728" rx="3.04474" ry="3.0444" transform="rotate(180 394.596 392.728)" fill="#EAEDF0"/>
<ellipse cx="394.596" cy="344.018" rx="3.04474" ry="3.0444" transform="rotate(180 394.596 344.018)" fill="#EAEDF0"/>
<ellipse cx="394.596" cy="51.7552" rx="3.04474" ry="3.0444" transform="rotate(180 394.596 51.7552)" fill="#EAEDF0"/>
<ellipse cx="394.596" cy="3.04471" rx="3.04474" ry="3.0444" transform="rotate(180 394.596 3.04471)" fill="#EAEDF0"/>
<ellipse cx="418.954" cy="392.728" rx="3.04474" ry="3.0444" transform="rotate(180 418.954 392.728)" fill="#EAEDF0"/>
<ellipse cx="418.954" cy="344.018" rx="3.04474" ry="3.0444" transform="rotate(180 418.954 344.018)" fill="#EAEDF0"/>
<ellipse cx="418.954" cy="51.7552" rx="3.04474" ry="3.0444" transform="rotate(180 418.954 51.7552)" fill="#EAEDF0"/>
<ellipse cx="418.954" cy="3.04471" rx="3.04474" ry="3.0444" transform="rotate(180 418.954 3.04471)" fill="#EAEDF0"/>
<ellipse cx="444.045" cy="417.083" rx="3.04474" ry="3.0444" transform="rotate(180 444.045 417.083)" fill="#EAEDF0"/>
<ellipse cx="444.045" cy="368.373" rx="3.04474" ry="3.0444" transform="rotate(180 444.045 368.373)" fill="#EAEDF0"/>
<ellipse cx="444.045" cy="319.662" rx="3.04474" ry="3.0444" transform="rotate(180 444.045 319.662)" fill="#EAEDF0"/>
<ellipse cx="444.045" cy="270.952" rx="3.04474" ry="3.0444" transform="rotate(180 444.045 270.952)" fill="#EAEDF0"/>
<ellipse cx="444.045" cy="222.241" rx="3.04474" ry="3.0444" transform="rotate(180 444.045 222.241)" fill="#EAEDF0"/>
<ellipse cx="444.045" cy="173.531" rx="3.04474" ry="3.0444" transform="rotate(180 444.045 173.531)" fill="#EAEDF0"/>
<ellipse cx="444.045" cy="124.821" rx="3.04474" ry="3.0444" transform="rotate(180 444.045 124.821)" fill="#EAEDF0"/>
<ellipse cx="444.045" cy="76.1099" rx="3.04474" ry="3.0444" transform="rotate(180 444.045 76.1099)" fill="#EAEDF0"/>
<ellipse cx="444.045" cy="27.3997" rx="3.04474" ry="3.0444" transform="rotate(180 444.045 27.3997)" fill="#EAEDF0"/>
<ellipse cx="468.403" cy="417.083" rx="3.04474" ry="3.0444" transform="rotate(180 468.403 417.083)" fill="#EAEDF0"/>
<ellipse cx="468.403" cy="319.662" rx="3.04474" ry="3.0444" transform="rotate(180 468.403 319.662)" fill="#EAEDF0"/>
<ellipse cx="468.403" cy="270.952" rx="3.04474" ry="3.0444" transform="rotate(180 468.403 270.952)" fill="#EAEDF0"/>
<ellipse cx="468.403" cy="222.241" rx="3.04474" ry="3.0444" transform="rotate(180 468.403 222.241)" fill="#EAEDF0"/>
<ellipse cx="468.403" cy="173.531" rx="3.04474" ry="3.0444" transform="rotate(180 468.403 173.531)" fill="#EAEDF0"/>
<ellipse cx="468.403" cy="124.821" rx="3.04474" ry="3.0444" transform="rotate(180 468.403 124.821)" fill="#EAEDF0"/>
<ellipse cx="468.403" cy="368.373" rx="3.04474" ry="3.0444" transform="rotate(180 468.403 368.373)" fill="#EAEDF0"/>
<ellipse cx="468.403" cy="76.1099" rx="3.04474" ry="3.0444" transform="rotate(180 468.403 76.1099)" fill="#EAEDF0"/>
<ellipse cx="468.403" cy="27.3997" rx="3.04474" ry="3.0444" transform="rotate(180 468.403 27.3997)" fill="#EAEDF0"/>
<ellipse cx="492.76" cy="319.662" rx="3.04474" ry="3.0444" transform="rotate(180 492.76 319.662)" fill="#EAEDF0"/>
<ellipse cx="492.76" cy="417.083" rx="3.04474" ry="3.0444" transform="rotate(180 492.76 417.083)" fill="#EAEDF0"/>
<ellipse cx="492.76" cy="270.952" rx="3.04474" ry="3.0444" transform="rotate(180 492.76 270.952)" fill="#EAEDF0"/>
<ellipse cx="492.76" cy="222.241" rx="3.04474" ry="3.0444" transform="rotate(180 492.76 222.241)" fill="#EAEDF0"/>
<ellipse cx="492.76" cy="173.531" rx="3.04474" ry="3.0444" transform="rotate(180 492.76 173.531)" fill="#EAEDF0"/>
<ellipse cx="492.76" cy="124.821" rx="3.04474" ry="3.0444" transform="rotate(180 492.76 124.821)" fill="#EAEDF0"/>
<ellipse cx="492.76" cy="368.373" rx="3.04474" ry="3.0444" transform="rotate(180 492.76 368.373)" fill="#EAEDF0"/>
<ellipse cx="517.118" cy="319.662" rx="3.04474" ry="3.0444" transform="rotate(180 517.118 319.662)" fill="#EAEDF0"/>
<ellipse cx="492.76" cy="76.1099" rx="3.04474" ry="3.0444" transform="rotate(180 492.76 76.1099)" fill="#EAEDF0"/>
<ellipse cx="492.76" cy="27.3997" rx="3.04474" ry="3.0444" transform="rotate(180 492.76 27.3997)" fill="#EAEDF0"/>
<ellipse cx="517.118" cy="270.952" rx="3.04474" ry="3.0444" transform="rotate(180 517.118 270.952)" fill="#EAEDF0"/>
<ellipse cx="517.118" cy="222.241" rx="3.04474" ry="3.0444" transform="rotate(180 517.118 222.241)" fill="#EAEDF0"/>
<ellipse cx="517.118" cy="173.531" rx="3.04474" ry="3.0444" transform="rotate(180 517.118 173.531)" fill="#EAEDF0"/>
<ellipse cx="517.118" cy="124.821" rx="3.04474" ry="3.0444" transform="rotate(180 517.118 124.821)" fill="#EAEDF0"/>
<ellipse cx="517.118" cy="417.083" rx="3.04474" ry="3.0444" transform="rotate(180 517.118 417.083)" fill="#EAEDF0"/>
<ellipse cx="541.476" cy="319.662" rx="3.04474" ry="3.0444" transform="rotate(180 541.476 319.662)" fill="#EAEDF0"/>
<ellipse cx="517.118" cy="368.373" rx="3.04474" ry="3.0444" transform="rotate(180 517.118 368.373)" fill="#EAEDF0"/>
<ellipse cx="517.118" cy="76.1099" rx="3.04474" ry="3.0444" transform="rotate(180 517.118 76.1099)" fill="#EAEDF0"/>
<ellipse cx="517.118" cy="27.3997" rx="3.04474" ry="3.0444" transform="rotate(180 517.118 27.3997)" fill="#EAEDF0"/>
<ellipse cx="541.476" cy="270.952" rx="3.04474" ry="3.0444" transform="rotate(180 541.476 270.952)" fill="#EAEDF0"/>
<ellipse cx="565.834" cy="319.662" rx="3.04474" ry="3.0444" transform="rotate(180 565.834 319.662)" fill="#EAEDF0"/>
<ellipse cx="541.476" cy="222.241" rx="3.04474" ry="3.0444" transform="rotate(180 541.476 222.241)" fill="#EAEDF0"/>
<ellipse cx="541.476" cy="417.083" rx="3.04474" ry="3.0444" transform="rotate(180 541.476 417.083)" fill="#EAEDF0"/>
<ellipse cx="541.476" cy="173.531" rx="3.04474" ry="3.0444" transform="rotate(180 541.476 173.531)" fill="#EAEDF0"/>
<ellipse cx="541.476" cy="368.373" rx="3.04474" ry="3.0444" transform="rotate(180 541.476 368.373)" fill="#EAEDF0"/>
<ellipse cx="541.476" cy="124.821" rx="3.04474" ry="3.0444" transform="rotate(180 541.476 124.821)" fill="#EAEDF0"/>
<ellipse cx="565.834" cy="270.952" rx="3.04474" ry="3.0444" transform="rotate(180 565.834 270.952)" fill="#EAEDF0"/>
<ellipse cx="444.045" cy="295.307" rx="3.04474" ry="3.0444" transform="rotate(180 444.045 295.307)" fill="#EAEDF0"/>
<ellipse cx="565.834" cy="222.241" rx="3.04474" ry="3.0444" transform="rotate(180 565.834 222.241)" fill="#EAEDF0"/>
<ellipse cx="565.834" cy="173.531" rx="3.04474" ry="3.0444" transform="rotate(180 565.834 173.531)" fill="#EAEDF0"/>
<ellipse cx="565.834" cy="124.821" rx="3.04474" ry="3.0444" transform="rotate(180 565.834 124.821)" fill="#EAEDF0"/>
<ellipse cx="541.476" cy="76.1101" rx="3.04474" ry="3.0444" transform="rotate(180 541.476 76.1101)" fill="#EAEDF0"/>
<ellipse cx="541.476" cy="27.3997" rx="3.04474" ry="3.0444" transform="rotate(180 541.476 27.3997)" fill="#EAEDF0"/>
<ellipse cx="565.834" cy="417.083" rx="3.04474" ry="3.0444" transform="rotate(180 565.834 417.083)" fill="#EAEDF0"/>
<ellipse cx="468.403" cy="295.307" rx="3.04474" ry="3.0444" transform="rotate(180 468.403 295.307)" fill="#EAEDF0"/>
<ellipse cx="444.045" cy="246.597" rx="3.04474" ry="3.0444" transform="rotate(180 444.045 246.597)" fill="#EAEDF0"/>
<ellipse cx="565.834" cy="368.373" rx="3.04474" ry="3.0444" transform="rotate(180 565.834 368.373)" fill="#EAEDF0"/>
<ellipse cx="565.834" cy="76.1099" rx="3.04474" ry="3.0444" transform="rotate(180 565.834 76.1099)" fill="#EAEDF0"/>
<ellipse cx="565.834" cy="27.3997" rx="3.04474" ry="3.0444" transform="rotate(180 565.834 27.3997)" fill="#EAEDF0"/>
<ellipse cx="444.045" cy="197.886" rx="3.04474" ry="3.0444" transform="rotate(180 444.045 197.886)" fill="#EAEDF0"/>
<ellipse cx="492.76" cy="295.307" rx="3.04474" ry="3.0444" transform="rotate(180 492.76 295.307)" fill="#EAEDF0"/>
<ellipse cx="444.045" cy="149.176" rx="3.04474" ry="3.0444" transform="rotate(180 444.045 149.176)" fill="#EAEDF0"/>
<ellipse cx="444.045" cy="100.465" rx="3.04474" ry="3.0444" transform="rotate(180 444.045 100.465)" fill="#EAEDF0"/>
<ellipse cx="468.403" cy="246.597" rx="3.04474" ry="3.0444" transform="rotate(180 468.403 246.597)" fill="#EAEDF0"/>
<ellipse cx="444.045" cy="392.728" rx="3.04474" ry="3.0444" transform="rotate(180 444.045 392.728)" fill="#EAEDF0"/>
<ellipse cx="444.045" cy="344.018" rx="3.04474" ry="3.0444" transform="rotate(180 444.045 344.018)" fill="#EAEDF0"/>
<ellipse cx="517.118" cy="295.307" rx="3.04474" ry="3.0444" transform="rotate(180 517.118 295.307)" fill="#EAEDF0"/>
<ellipse cx="468.403" cy="197.886" rx="3.04474" ry="3.0444" transform="rotate(180 468.403 197.886)" fill="#EAEDF0"/>
<ellipse cx="492.76" cy="246.597" rx="3.04474" ry="3.0444" transform="rotate(180 492.76 246.597)" fill="#EAEDF0"/>
<ellipse cx="444.045" cy="51.7549" rx="3.04474" ry="3.0444" transform="rotate(180 444.045 51.7549)" fill="#EAEDF0"/>
<ellipse cx="444.045" cy="3.04446" rx="3.04474" ry="3.0444" transform="rotate(180 444.045 3.04446)" fill="#EAEDF0"/>
<ellipse cx="468.403" cy="149.176" rx="3.04474" ry="3.0444" transform="rotate(180 468.403 149.176)" fill="#EAEDF0"/>
<ellipse cx="468.403" cy="392.728" rx="3.04474" ry="3.0444" transform="rotate(180 468.403 392.728)" fill="#EAEDF0"/>
<ellipse cx="468.403" cy="100.465" rx="3.04474" ry="3.0444" transform="rotate(180 468.403 100.465)" fill="#EAEDF0"/>
<ellipse cx="517.118" cy="246.597" rx="3.04474" ry="3.0444" transform="rotate(180 517.118 246.597)" fill="#EAEDF0"/>
<ellipse cx="492.76" cy="197.886" rx="3.04474" ry="3.0444" transform="rotate(180 492.76 197.886)" fill="#EAEDF0"/>
<ellipse cx="541.476" cy="295.307" rx="3.04474" ry="3.0444" transform="rotate(180 541.476 295.307)" fill="#EAEDF0"/>
<ellipse cx="468.403" cy="344.018" rx="3.04474" ry="3.0444" transform="rotate(180 468.403 344.018)" fill="#EAEDF0"/>
<ellipse cx="517.118" cy="197.886" rx="3.04474" ry="3.0444" transform="rotate(180 517.118 197.886)" fill="#EAEDF0"/>
<ellipse cx="492.76" cy="149.176" rx="3.04474" ry="3.0444" transform="rotate(180 492.76 149.176)" fill="#EAEDF0"/>
<ellipse cx="541.476" cy="246.597" rx="3.04474" ry="3.0444" transform="rotate(180 541.476 246.597)" fill="#EAEDF0"/>
<ellipse cx="468.403" cy="51.7549" rx="3.04474" ry="3.0444" transform="rotate(180 468.403 51.7549)" fill="#EAEDF0"/>
<ellipse cx="468.403" cy="3.04446" rx="3.04474" ry="3.0444" transform="rotate(180 468.403 3.04446)" fill="#EAEDF0"/>
<ellipse cx="517.118" cy="149.176" rx="3.04474" ry="3.0444" transform="rotate(180 517.118 149.176)" fill="#EAEDF0"/>
<ellipse cx="492.76" cy="100.465" rx="3.04474" ry="3.0444" transform="rotate(180 492.76 100.465)" fill="#EAEDF0"/>
<ellipse cx="541.476" cy="197.886" rx="3.04474" ry="3.0444" transform="rotate(180 541.476 197.886)" fill="#EAEDF0"/>
<ellipse cx="565.834" cy="295.307" rx="3.04474" ry="3.0444" transform="rotate(180 565.834 295.307)" fill="#EAEDF0"/>
<ellipse cx="517.118" cy="100.465" rx="3.04474" ry="3.0444" transform="rotate(180 517.118 100.465)" fill="#EAEDF0"/>
<ellipse cx="541.476" cy="149.176" rx="3.04474" ry="3.0444" transform="rotate(180 541.476 149.176)" fill="#EAEDF0"/>
<ellipse cx="565.834" cy="246.597" rx="3.04474" ry="3.0444" transform="rotate(180 565.834 246.597)" fill="#EAEDF0"/>
<ellipse cx="541.476" cy="100.465" rx="3.04474" ry="3.0444" transform="rotate(180 541.476 100.465)" fill="#EAEDF0"/>
<ellipse cx="565.834" cy="197.886" rx="3.04474" ry="3.0444" transform="rotate(180 565.834 197.886)" fill="#EAEDF0"/>
<ellipse cx="565.834" cy="149.176" rx="3.04474" ry="3.0444" transform="rotate(180 565.834 149.176)" fill="#EAEDF0"/>
<ellipse cx="565.834" cy="100.465" rx="3.04474" ry="3.0444" transform="rotate(180 565.834 100.465)" fill="#EAEDF0"/>
<ellipse cx="492.76" cy="392.728" rx="3.04474" ry="3.0444" transform="rotate(180 492.76 392.728)" fill="#EAEDF0"/>
<ellipse cx="492.76" cy="344.018" rx="3.04474" ry="3.0444" transform="rotate(180 492.76 344.018)" fill="#EAEDF0"/>
<ellipse cx="492.76" cy="51.7549" rx="3.04474" ry="3.0444" transform="rotate(180 492.76 51.7549)" fill="#EAEDF0"/>
<ellipse cx="492.76" cy="3.04446" rx="3.04474" ry="3.0444" transform="rotate(180 492.76 3.04446)" fill="#EAEDF0"/>
<ellipse cx="517.118" cy="392.728" rx="3.04474" ry="3.0444" transform="rotate(180 517.118 392.728)" fill="#EAEDF0"/>
<ellipse cx="517.118" cy="344.018" rx="3.04474" ry="3.0444" transform="rotate(180 517.118 344.018)" fill="#EAEDF0"/>
<ellipse cx="517.118" cy="51.7549" rx="3.04474" ry="3.0444" transform="rotate(180 517.118 51.7549)" fill="#EAEDF0"/>
<ellipse cx="517.118" cy="3.04446" rx="3.04474" ry="3.0444" transform="rotate(180 517.118 3.04446)" fill="#EAEDF0"/>
<ellipse cx="541.476" cy="392.728" rx="3.04474" ry="3.0444" transform="rotate(180 541.476 392.728)" fill="#EAEDF0"/>
<ellipse cx="541.476" cy="344.018" rx="3.04474" ry="3.0444" transform="rotate(180 541.476 344.018)" fill="#EAEDF0"/>
<ellipse cx="541.476" cy="51.7549" rx="3.04474" ry="3.0444" transform="rotate(180 541.476 51.7549)" fill="#EAEDF0"/>
<ellipse cx="541.476" cy="3.04446" rx="3.04474" ry="3.0444" transform="rotate(180 541.476 3.04446)" fill="#EAEDF0"/>
<ellipse cx="565.834" cy="392.728" rx="3.04474" ry="3.0444" transform="rotate(180 565.834 392.728)" fill="#EAEDF0"/>
<ellipse cx="565.834" cy="344.018" rx="3.04474" ry="3.0444" transform="rotate(180 565.834 344.018)" fill="#EAEDF0"/>
<ellipse cx="565.834" cy="51.7549" rx="3.04474" ry="3.0444" transform="rotate(180 565.834 51.7549)" fill="#EAEDF0"/>
<ellipse cx="565.834" cy="3.04446" rx="3.04474" ry="3.0444" transform="rotate(180 565.834 3.04446)" fill="#EAEDF0"/>
</svg>
