<svg width="128" height="420" viewBox="0 0 128 420" fill="none" xmlns="http://www.w3.org/2000/svg">
<circle cx="124.783" cy="3.04348" r="3.04348" fill="#3383FF"/>
<circle cx="124.783" cy="51.7391" r="3.04348" fill="#3383FF"/>
<circle cx="124.783" cy="100.435" r="3.04348" fill="#3383FF"/>
<circle cx="124.783" cy="149.13" r="3.04348" fill="#3383FF"/>
<circle cx="124.783" cy="197.826" r="3.04348" fill="#3383FF"/>
<circle cx="124.783" cy="246.522" r="3.04348" fill="#3383FF"/>
<circle cx="124.783" cy="295.217" r="3.04348" fill="#3383FF"/>
<circle cx="124.783" cy="343.913" r="3.04348" fill="#3383FF"/>
<circle cx="124.783" cy="392.609" r="3.04348" fill="#3383FF"/>
<circle cx="100.435" cy="3.04348" r="3.04348" fill="#3383FF"/>
<circle cx="100.435" cy="100.435" r="3.04348" fill="#3383FF"/>
<circle cx="100.435" cy="149.13" r="3.04348" fill="#3383FF"/>
<circle cx="100.435" cy="197.826" r="3.04348" fill="#3383FF"/>
<circle cx="100.435" cy="246.522" r="3.04348" fill="#3383FF"/>
<circle cx="100.435" cy="295.217" r="3.04348" fill="#3383FF"/>
<circle cx="100.435" cy="51.7391" r="3.04348" fill="#3383FF"/>
<circle cx="100.435" cy="343.913" r="3.04348" fill="#3383FF"/>
<circle cx="100.435" cy="392.609" r="3.04348" fill="#3383FF"/>
<circle cx="76.0869" cy="100.435" r="3.04348" fill="#3383FF"/>
<circle cx="76.0869" cy="3.04348" r="3.04348" fill="#3383FF"/>
<circle cx="76.0869" cy="149.13" r="3.04348" fill="#3383FF"/>
<circle cx="76.0869" cy="197.826" r="3.04348" fill="#3383FF"/>
<circle cx="76.0869" cy="246.522" r="3.04348" fill="#3383FF"/>
<circle cx="76.0869" cy="295.217" r="3.04348" fill="#3383FF"/>
<circle cx="76.0869" cy="51.7391" r="3.04348" fill="#3383FF"/>
<circle cx="51.7392" cy="100.435" r="3.04348" fill="#3383FF"/>
<circle cx="76.0869" cy="343.913" r="3.04348" fill="#3383FF"/>
<circle cx="76.0869" cy="392.609" r="3.04348" fill="#3383FF"/>
<circle cx="51.7392" cy="149.13" r="3.04348" fill="#3383FF"/>
<circle cx="51.7392" cy="197.826" r="3.04348" fill="#3383FF"/>
<circle cx="51.7392" cy="246.522" r="3.04348" fill="#3383FF"/>
<circle cx="51.7392" cy="295.217" r="3.04348" fill="#3383FF"/>
<circle cx="51.7392" cy="3.04348" r="3.04348" fill="#3383FF"/>
<circle cx="27.3913" cy="100.435" r="3.04348" fill="#3383FF"/>
<circle cx="51.7392" cy="51.7391" r="3.04348" fill="#3383FF"/>
<circle cx="51.7392" cy="343.913" r="3.04348" fill="#3383FF"/>
<circle cx="51.7392" cy="392.609" r="3.04348" fill="#3383FF"/>
<circle cx="27.3913" cy="149.13" r="3.04348" fill="#3383FF"/>
<circle cx="3.04348" cy="100.435" r="3.04348" fill="#3383FF"/>
<circle cx="27.3913" cy="197.826" r="3.04348" fill="#3383FF"/>
<circle cx="27.3913" cy="3.04348" r="3.04348" fill="#3383FF"/>
<circle cx="27.3913" cy="246.522" r="3.04348" fill="#3383FF"/>
<circle cx="27.3913" cy="51.7391" r="3.04348" fill="#3383FF"/>
<circle cx="27.3913" cy="295.217" r="3.04348" fill="#3383FF"/>
<circle cx="3.04348" cy="149.13" r="3.04348" fill="#3383FF"/>
<circle cx="124.783" cy="124.783" r="3.04348" fill="#3383FF"/>
<circle cx="3.04348" cy="197.826" r="3.04348" fill="#3383FF"/>
<circle cx="3.04348" cy="246.522" r="3.04348" fill="#3383FF"/>
<circle cx="3.04348" cy="295.217" r="3.04348" fill="#3383FF"/>
<circle cx="27.3913" cy="343.913" r="3.04348" fill="#3383FF"/>
<circle cx="27.3913" cy="392.609" r="3.04348" fill="#3383FF"/>
<circle cx="3.04348" cy="3.04348" r="3.04348" fill="#3383FF"/>
<circle cx="100.435" cy="124.783" r="3.04348" fill="#3383FF"/>
<circle cx="124.783" cy="173.478" r="3.04348" fill="#3383FF"/>
<circle cx="3.04348" cy="51.7391" r="3.04348" fill="#3383FF"/>
<circle cx="3.04348" cy="343.913" r="3.04348" fill="#3383FF"/>
<circle cx="3.04348" cy="392.609" r="3.04348" fill="#3383FF"/>
<circle cx="124.783" cy="222.174" r="3.04348" fill="#3383FF"/>
<circle cx="76.0869" cy="124.783" r="3.04348" fill="#3383FF"/>
<circle cx="124.783" cy="270.87" r="3.04348" fill="#3383FF"/>
<circle cx="124.783" cy="319.565" r="3.04348" fill="#3383FF"/>
<circle cx="100.435" cy="173.478" r="3.04348" fill="#3383FF"/>
<circle cx="124.783" cy="27.3913" r="3.04348" fill="#3383FF"/>
<circle cx="124.783" cy="76.087" r="3.04348" fill="#3383FF"/>
<circle cx="51.7392" cy="124.783" r="3.04348" fill="#3383FF"/>
<circle cx="100.435" cy="222.174" r="3.04348" fill="#3383FF"/>
<circle cx="76.0869" cy="173.478" r="3.04348" fill="#3383FF"/>
<circle cx="124.783" cy="368.261" r="3.04348" fill="#3383FF"/>
<circle cx="124.783" cy="416.957" r="3.04348" fill="#3383FF"/>
<circle cx="100.435" cy="270.87" r="3.04348" fill="#3383FF"/>
<circle cx="100.435" cy="27.3913" r="3.04348" fill="#3383FF"/>
<circle cx="100.435" cy="319.565" r="3.04348" fill="#3383FF"/>
<circle cx="51.7392" cy="173.478" r="3.04348" fill="#3383FF"/>
<circle cx="76.0869" cy="222.174" r="3.04348" fill="#3383FF"/>
<circle cx="27.3913" cy="124.783" r="3.04348" fill="#3383FF"/>
<circle cx="100.435" cy="76.087" r="3.04348" fill="#3383FF"/>
<circle cx="51.7392" cy="222.174" r="3.04348" fill="#3383FF"/>
<circle cx="76.0869" cy="270.87" r="3.04348" fill="#3383FF"/>
<circle cx="27.3913" cy="173.478" r="3.04348" fill="#3383FF"/>
<circle cx="100.435" cy="368.261" r="3.04348" fill="#3383FF"/>
<circle cx="100.435" cy="416.957" r="3.04348" fill="#3383FF"/>
<circle cx="51.7392" cy="270.87" r="3.04348" fill="#3383FF"/>
<circle cx="76.0869" cy="319.565" r="3.04348" fill="#3383FF"/>
<circle cx="27.3913" cy="222.174" r="3.04348" fill="#3383FF"/>
<circle cx="3.04348" cy="124.783" r="3.04348" fill="#3383FF"/>
<circle cx="51.7392" cy="319.565" r="3.04348" fill="#3383FF"/>
<circle cx="27.3913" cy="270.87" r="3.04348" fill="#3383FF"/>
<circle cx="3.04348" cy="173.478" r="3.04348" fill="#3383FF"/>
<circle cx="27.3913" cy="319.565" r="3.04348" fill="#3383FF"/>
<circle cx="3.04348" cy="222.174" r="3.04348" fill="#3383FF"/>
<circle cx="3.04348" cy="270.87" r="3.04348" fill="#3383FF"/>
<circle cx="3.04348" cy="319.565" r="3.04348" fill="#3383FF"/>
<circle cx="76.0869" cy="27.3913" r="3.04348" fill="#3383FF"/>
<circle cx="76.0869" cy="76.087" r="3.04348" fill="#3383FF"/>
<circle cx="76.0869" cy="368.261" r="3.04348" fill="#3383FF"/>
<circle cx="76.0869" cy="416.957" r="3.04348" fill="#3383FF"/>
<circle cx="51.7392" cy="27.3913" r="3.04348" fill="#3383FF"/>
<circle cx="51.7392" cy="76.087" r="3.04348" fill="#3383FF"/>
<circle cx="51.7392" cy="368.261" r="3.04348" fill="#3383FF"/>
<circle cx="51.7392" cy="416.957" r="3.04348" fill="#3383FF"/>
<circle cx="27.3913" cy="27.3913" r="3.04348" fill="#3383FF"/>
<circle cx="27.3913" cy="76.087" r="3.04348" fill="#3383FF"/>
<circle cx="27.3913" cy="368.261" r="3.04348" fill="#3383FF"/>
<circle cx="27.3913" cy="416.957" r="3.04348" fill="#3383FF"/>
<circle cx="3.04348" cy="27.3913" r="3.04348" fill="#3383FF"/>
<circle cx="3.04348" cy="76.087" r="3.04348" fill="#3383FF"/>
<circle cx="3.04348" cy="368.261" r="3.04348" fill="#3383FF"/>
<circle cx="3.04348" cy="416.957" r="3.04348" fill="#3383FF"/>
</svg>
