<svg aria-hidden="true" style="position: absolute; width: 0; height: 0; overflow: hidden;" version="1.1" xmlns="http://www.w3.org/2000/svg" xmlns:xlink="http://www.w3.org/1999/xlink">
<defs>
<symbol id="icon-Group1" viewBox="0 0 27 32">
<path fill="#1e1e1e" style="fill: var(--color1, #1e1e1e)" d="M5.429 23.993v0z"></path>
<path fill="#1e1e1e" style="fill: var(--color1, #1e1e1e)" d="M7.983 25.513l-0.16-0.109-2.395-1.411 2.555 1.52z"></path>
<path fill="#1e1e1e" style="fill: var(--color1, #1e1e1e)" d="M10.857 27.196v0z"></path>
<path fill="#7ea0f5" style="fill: var(--color2, #7ea0f5)" d="M2.714 22.392l8.143-4.804-2.714-1.601-2.714-1.574-2.714 1.574v6.405z"></path>
<path fill="#1e1e1e" style="fill: var(--color1, #1e1e1e)" d="M19.027 9.608v0z"></path>
<path fill="#000" style="fill: var(--color3, #000)" d="M27.17 11.209v-3.242l-2.714 1.641-8.143 4.804-2.741 1.574v16.014l2.741-1.602v-12.811l2.714-1.601 2.714-1.574 2.714-1.601v9.581l-5.429 3.203v3.203l8.143-4.804v-12.784z"></path>
<path fill="#1e1e1e" style="fill: var(--color1, #1e1e1e)" d="M13.572 3.203v0 0z"></path>
<path fill="#5081fc" style="fill: var(--color4, #5081fc)" opacity="0.69" d="M5.429 8.007l8.143 4.804v-9.608l-8.143 4.804z"></path>
<path fill="#1e1e1e" style="fill: var(--color1, #1e1e1e)" d="M5.429 8.007v0z"></path>
<path fill="#1e1e1e" style="fill: var(--color1, #1e1e1e)" d="M16.313 8.007v0z"></path>
<path fill="#1e1e1e" style="fill: var(--color1, #1e1e1e)" d="M8.143 9.608v0z"></path>
<path fill="#7ea0f5" style="fill: var(--color2, #7ea0f5)" d="M19.027 9.608l2.714-1.601v-3.203l-2.714 1.601v3.203z"></path>
<path fill="#1e1e1e" style="fill: var(--color1, #1e1e1e)" d="M10.857 11.209v0z"></path>
<path fill="#1e1e1e" style="fill: var(--color1, #1e1e1e)" d="M13.572 12.811v0z"></path>
<path fill="#7ea0f5" style="fill: var(--color2, #7ea0f5)" d="M19.027 25.595l-2.714-1.601v3.203l2.714 1.601v-3.203z"></path>
<path fill="#7ea0f5" style="fill: var(--color2, #7ea0f5)" d="M19.027 15.986l-2.714 1.601 2.714 1.601v-3.203z"></path>
<path fill="#7ea0f5" style="fill: var(--color2, #7ea0f5)" d="M21.741 20.79l2.714 1.601v-9.581l-2.714 1.601v6.378z"></path>
<path fill="#7ea0f5" style="fill: var(--color2, #7ea0f5)" d="M21.741 20.791v-6.378l-2.714 1.574v3.203l2.714 1.601z"></path>
<path fill="#a3bdff" style="fill: var(--color5, #a3bdff)" d="M16.313 11.21l2.714-1.601v-3.203l-2.714-1.601v6.405z"></path>
<path fill="#a3bdff" style="fill: var(--color5, #a3bdff)" d="M13.572 6.405v6.405l2.741-1.601v-6.405l-2.741-1.601v3.203z"></path>
<path fill="#a2bdff" style="fill: var(--color6, #a2bdff)" d="M5.429 14.412l-2.714-1.601-2.714 1.601 2.714 1.574 2.714-1.574z"></path>
<path fill="#5e5e5e" style="fill: var(--color7, #5e5e5e)" d="M24.456 22.392v0z"></path>
<path fill="#5e5e5e" style="fill: var(--color7, #5e5e5e)" d="M21.741 23.993v0z"></path>
<path fill="#000" style="fill: var(--color3, #000)" d="M13.572 19.189v12.811l-5.429-3.203v-3.203l2.714 1.601v-9.608l-2.714-1.601-2.714-1.574-5.429-3.203v-3.203l10.857 6.405 2.714 1.574v3.203zM2.714 15.986v9.608l-2.714-1.601v-9.581l2.714 1.574zM2.714 22.392l2.714 1.601 2.555 1.52 0.16 0.081v3.203l-5.429-3.203v-3.203z"></path>
<path fill="#5e5e5e" style="fill: var(--color7, #5e5e5e)" d="M13.572 3.203v0z"></path>
<path fill="#5e5e5e" style="fill: var(--color7, #5e5e5e)" d="M10.857 4.804v0z"></path>
<path fill="#5e5e5e" style="fill: var(--color7, #5e5e5e)" d="M8.143 6.406v0z"></path>
<path fill="#5e5e5e" style="fill: var(--color7, #5e5e5e)" d="M5.429 8.007v0z"></path>
<path fill="#5e5e5e" style="fill: var(--color7, #5e5e5e)" d="M24.456 9.608v0z"></path>
<path fill="#5e5e5e" style="fill: var(--color7, #5e5e5e)" d="M21.741 11.209v0z"></path>
<path fill="#5e5e5e" style="fill: var(--color7, #5e5e5e)" d="M19.027 12.811v0z"></path>
<path fill="#5e5e5e" style="fill: var(--color7, #5e5e5e)" d="M16.313 14.412v0z"></path>
<path fill="#000" style="fill: var(--color3, #000)" d="M5.429 8.007l8.143-4.804 2.741 1.601 2.714 1.601 2.714-1.601-5.429-3.203-2.741-1.601-13.572 8.007 10.857 6.405 2.714 1.574 2.741-1.554 8.166-4.833 2.691-1.633-2.741-1.589-2.714 1.601-2.688 1.628-2.714 1.601-2.741 1.601-8.143-4.804z"></path>
<path fill="#a2bdff" style="fill: var(--color6, #a2bdff)" d="M5.429 20.79l-2.714 1.601 5.109 3.013 0.16 0.109 0.16 0.081 2.714 1.601v-9.608l-5.429 3.203z"></path>
<path fill="#a2bdff" style="fill: var(--color6, #a2bdff)" d="M21.741 23.993l2.714-1.601-8.143-4.804v6.405l2.714 1.601 2.714-1.601z"></path>
</symbol>
<symbol id="icon-Group2" viewBox="0 0 27 32">
<path fill="#1e1e1e" style="fill: var(--color1, #1e1e1e)" d="M5.453 23.859v0z"></path>
<path fill="#1e1e1e" style="fill: var(--color1, #1e1e1e)" d="M8.18 25.445v0z"></path>
<path fill="#1e1e1e" style="fill: var(--color1, #1e1e1e)" d="M10.746 26.95l-0.16-0.108-2.406-1.398 2.566 1.505z"></path>
<path fill="#1e1e1e" style="fill: var(--color1, #1e1e1e)" d="M13.634 28.616v0z"></path>
<path fill="#1e1e1e" style="fill: var(--color1, #1e1e1e)" d="M2.727 15.931v0 0z"></path>
<path fill="#1e1e1e" style="fill: var(--color1, #1e1e1e)" d="M5.453 17.516l1.978 1.156-1.256-0.726-0.722-0.43z"></path>
<path fill="#1e1e1e" style="fill: var(--color1, #1e1e1e)" d="M8.18 19.102l2.406 1.398-0.401-0.215-2.005-1.183z"></path>
<path fill="#1e1e1e" style="fill: var(--color1, #1e1e1e)" d="M10.907 20.688v0 0z"></path>
<path fill="#1e1e1e" style="fill: var(--color1, #1e1e1e)" d="M2.727 9.615v0l2.032 1.156-0.775-0.43-1.256-0.726z"></path>
<path fill="#1e1e1e" style="fill: var(--color1, #1e1e1e)" d="M5.453 11.201v0l2.192 1.263-0.588-0.349-1.604-0.914z"></path>
<path fill="#1e1e1e" style="fill: var(--color1, #1e1e1e)" d="M8.18 12.786v0l2.032 1.156-0.749-0.43-1.283-0.726z"></path>
<path fill="#1e1e1e" style="fill: var(--color1, #1e1e1e)" d="M10.907 14.372v0 0z"></path>
<path fill="#000" style="fill: var(--color3, #000)" d="M24.567 9.615l2.727-1.586v3.171l-5.453 3.171-2.727 1.559-2.727 1.586-2.753 1.586v-3.171l2.753-1.559 8.18-4.757zM21.841 17.516l-5.453 3.171-2.753 1.586v3.171l2.753-1.586 10.907-6.343v-3.144l-2.727 1.559-2.727 1.586zM21.841 23.859l-5.453 3.171-2.753 1.586v3.171l2.753-1.586 10.907-6.343v-3.171l-5.453 3.171z"></path>
<path fill="#000" style="fill: var(--color3, #000)" d="M19.114 15.931l2.727-1.559 2.727-1.586 2.727 1.586-2.727 1.559-8.18 4.757-1.176 0.672-1.577 0.914-3.048-1.774-0.401-0.215-2.005-1.183-0.749-0.43-1.256-0.726-0.722-0.43-0.829-0.457-1.898-1.129-0.829-0.457-1.898-1.102 2.727-1.586 2.727 1.586 0.722 0.403 2.005 1.156 1.417 0.833 1.31 0.753 2.727 1.586 2.753-1.586 2.727-1.586zM19.114 22.273l5.453-3.171 2.727 1.586-10.907 6.343-2.753 1.586-2.727-1.586-0.16-0.081-0.16-0.107-10.586-6.154 2.727-1.586 2.727 1.586 1.043 0.618 1.684 0.968 5.454 3.171 2.753-1.586 2.727-1.586z"></path>
<path fill="#5e5e5e" style="fill: var(--color7, #5e5e5e)" d="M24.567 22.273v0z"></path>
<path fill="#5e5e5e" style="fill: var(--color7, #5e5e5e)" d="M21.841 23.859v0z"></path>
<path fill="#5e5e5e" style="fill: var(--color7, #5e5e5e)" d="M19.114 25.445v0z"></path>
<path fill="#5e5e5e" style="fill: var(--color7, #5e5e5e)" d="M16.387 27.030v0z"></path>
<path fill="#5e5e5e" style="fill: var(--color7, #5e5e5e)" d="M24.567 15.931v0z"></path>
<path fill="#5e5e5e" style="fill: var(--color7, #5e5e5e)" d="M21.841 17.516v0z"></path>
<path fill="#5e5e5e" style="fill: var(--color7, #5e5e5e)" d="M19.114 19.102v0z"></path>
<path fill="#5e5e5e" style="fill: var(--color7, #5e5e5e)" d="M15.211 21.36l-1.577 0.914 2.753-1.586-1.176 0.672z"></path>
<path fill="#000" style="fill: var(--color3, #000)" d="M5.454 14.372l-5.454-3.171v-3.171l2.727 1.586 2.032 1.156 0.695 0.43 2.192 1.263 0.535 0.322 2.032 1.156 0.695 0.43 2.727 1.559v3.171l-2.727-1.586-1.31-0.753-1.417-0.833-2.005-1.156-0.722-0.403zM2.727 19.102l2.727 1.586 1.043 0.618 1.684 0.968 5.454 3.171v-3.171l-8.18-4.757-0.829-0.457-1.898-1.129-0.829-0.457-1.898-1.102v3.144l2.727 1.586zM2.727 22.273l-2.727-1.586v3.171l5.453 3.171v-3.171l-2.727-1.586zM5.454 23.859l2.727 1.586 2.566 1.505 0.16 0.081v3.171l-5.453-3.171v-3.171zM10.907 27.030l2.727 1.586v3.171l-2.727-1.586v-3.171z"></path>
<path fill="#5e5e5e" style="fill: var(--color7, #5e5e5e)" d="M24.567 9.615v0z"></path>
<path fill="#5e5e5e" style="fill: var(--color7, #5e5e5e)" d="M19.114 12.786l2.727-1.586-1.631 0.941-1.096 0.645z"></path>
<path fill="#5e5e5e" style="fill: var(--color7, #5e5e5e)" d="M19.114 12.786v0z"></path>
<path fill="#5e5e5e" style="fill: var(--color7, #5e5e5e)" d="M16.387 14.372v0z"></path>
<path fill="#000" style="fill: var(--color3, #000)" d="M2.727 9.615l1.256 0.726 0.775 0.43 0.695 0.43 1.604 0.914 0.588 0.349 0.535 0.322 1.283 0.726 0.749 0.43 0.695 0.43 2.727 1.559 2.753-1.559 2.727-1.586 1.096-0.645 1.631-0.941 1.39-0.806 1.337-0.779 2.727-1.586-1.925-1.129-0.802-0.457-2.727-1.586-1.363-0.779-1.363-0.806-0.695-0.403-2.032-1.183-2.753-1.586-13.634 7.928 2.727 1.586z"></path>
</symbol>
<symbol id="icon-Group3" viewBox="0 0 28 32">
<path fill="#86a8fd" style="fill: var(--color8, #86a8fd)" d="M5.507 20.791l-2.754-1.601v6.405l5.507-3.203-2.754-1.601z"></path>
<path fill="#1e1e1e" style="fill: var(--color1, #1e1e1e)" d="M11.015 27.196v0z"></path>
<path fill="#1e1e1e" style="fill: var(--color1, #1e1e1e)" d="M13.769 25.595v0z"></path>
<path fill="#1e1e1e" style="fill: var(--color1, #1e1e1e)" d="M5.507 14.412v0z"></path>
<path fill="#1e1e1e" style="fill: var(--color1, #1e1e1e)" d="M8.261 15.986v0z"></path>
<path fill="#1e1e1e" style="fill: var(--color1, #1e1e1e)" d="M11.015 17.588v0z"></path>
<path fill="#1e1e1e" style="fill: var(--color1, #1e1e1e)" d="M13.769 19.189v0z"></path>
<path fill="#1e1e1e" style="fill: var(--color1, #1e1e1e)" d="M8.261 9.608v0z"></path>
<path fill="#86a8fd" style="fill: var(--color8, #86a8fd)" d="M5.507 11.21l5.507-3.203v-3.203l-8.261 4.804v6.378l2.754-1.574v-3.203z"></path>
<path fill="#1e1e1e" style="fill: var(--color1, #1e1e1e)" d="M13.769 6.405v0z"></path>
<path fill="#1e1e1e" style="fill: var(--color1, #1e1e1e)" d="M16.549 4.804v0z"></path>
<path fill="#1e1e1e" style="fill: var(--color1, #1e1e1e)" d="M19.303 6.405v0 0z"></path>
<path fill="#86a8fd" style="fill: var(--color8, #86a8fd)" d="M11.015 14.412l2.754-1.601 2.781-1.601 2.754-1.601v-3.203l-2.754 1.601-2.781 1.601-5.508 3.203v3.176l2.754-1.574z"></path>
<path fill="#1e1e1e" style="fill: var(--color1, #1e1e1e)" d="M22.057 11.21v-0z"></path>
<path fill="#a2bdff" style="fill: var(--color6, #a2bdff)" d="M11.015 4.804v3.203l2.754-1.601v-3.203l-2.754-1.601v3.203z"></path>
<path fill="#a2bdff" style="fill: var(--color6, #a2bdff)" d="M16.549 4.804l-2.781-1.601v3.203l2.781-1.601z"></path>
<path fill="#a2bdff" style="fill: var(--color6, #a2bdff)" d="M19.303 9.608l2.754 1.601v-3.203l-2.754-1.601v3.203z"></path>
<path fill="#a2bdff" style="fill: var(--color6, #a2bdff)" d="M22.057 8.007v9.581l2.754 1.601v-9.581l-2.754-1.601z"></path>
<path fill="#5e5e5e" style="fill: var(--color7, #5e5e5e)" d="M24.811 22.392v0z"></path>
<path fill="#5e5e5e" style="fill: var(--color7, #5e5e5e)" d="M19.303 25.595v0z"></path>
<path fill="#5e5e5e" style="fill: var(--color7, #5e5e5e)" d="M16.549 27.196v0z"></path>
<path fill="#5e5e5e" style="fill: var(--color7, #5e5e5e)" d="M13.769 15.986v0z"></path>
<path fill="#5e5e5e" style="fill: var(--color7, #5e5e5e)" d="M11.015 17.588v0z"></path>
<path fill="#5e5e5e" style="fill: var(--color7, #5e5e5e)" d="M16.549 11.21v0z"></path>
<path fill="#5e5e5e" style="fill: var(--color7, #5e5e5e)" d="M16.549 14.412v0 0-0z"></path>
<path fill="#5e5e5e" style="fill: var(--color7, #5e5e5e)" d="M8.261 6.405v0z"></path>
<path fill="#5e5e5e" style="fill: var(--color7, #5e5e5e)" d="M5.507 8.007v0z"></path>
<path fill="#5e5e5e" style="fill: var(--color7, #5e5e5e)" d="M19.303 6.405v0z"></path>
<path fill="#5e5e5e" style="fill: var(--color7, #5e5e5e)" d="M16.549 8.007v0z"></path>
<path fill="#5e5e5e" style="fill: var(--color7, #5e5e5e)" d="M13.769 9.608v0z"></path>
<path fill="#5e5e5e" style="fill: var(--color7, #5e5e5e)" d="M11.015 11.21v0z"></path>
<path fill="#939393" style="fill: var(--color9, #939393)" d="M16.549 20.791v0z"></path>
<path fill="#000" style="fill: var(--color3, #000)" d="M13.769 3.203v-0l2.781 1.601-2.781 1.601-8.261 4.804 2.754 1.601 5.508-3.203 2.781-1.601 5.507-3.203-5.508-3.203-2.781-1.601-2.754 1.601 2.754 1.601zM8.261 22.392l5.508 3.203v-3.203l-11.015-6.405v-6.378l-2.754-1.601v15.986l2.754 1.601v-6.405l5.507 3.203zM8.261 6.405l-5.507 3.203-2.754-1.601 8.261-4.804 2.754 1.601-2.754 1.601zM24.811 6.405l-2.754-1.601-2.754 1.601 5.508 3.203 2.754-1.601-2.754-1.601z"></path>
<path fill="#000" style="fill: var(--color3, #000)" d="M24.811 9.608l2.754-1.601v9.581l-2.754 1.601v-9.581zM22.057 20.79v-9.581l-2.754-1.601-2.754 1.601 2.754 1.601v12.784l-2.754 1.601-2.781 1.601-5.508-3.203v3.203l5.508 3.203 2.781-1.601 11.015-6.405v-3.203l-5.508 3.203v-3.203zM13.769 25.595l2.781-1.601v-3.203l-2.781 1.601v3.203zM8.261 15.986v-3.176l-2.754-1.601v3.203l2.754 1.574zM5.507 23.993l2.754 1.601v3.203l-2.754-1.601v-3.203z"></path>
<path fill="#a2bdff" style="fill: var(--color6, #a2bdff)" d="M11.015 23.993l-2.754-1.601-2.754 1.601 2.754 1.601 2.754-1.601z"></path>
<path fill="#a2bdff" style="fill: var(--color6, #a2bdff)" d="M11.015 23.993l-2.754 1.601 2.754 1.601 2.754-1.601-2.754-1.601z"></path>
<path fill="#a2bdff" style="fill: var(--color6, #a2bdff)" d="M13.769 25.595l-2.754 1.601 2.754 1.601 2.781-1.601 2.754-1.601-2.754-1.601-2.781 1.601z"></path>
<path fill="#a2bdff" style="fill: var(--color6, #a2bdff)" d="M5.507 14.412l-2.754 1.574 2.754 1.601 2.754-1.601-2.754-1.574z"></path>
<path fill="#a2bdff" style="fill: var(--color6, #a2bdff)" d="M13.769 19.189l-2.754-1.601-2.754 1.601 2.754 1.601 2.754-1.601z"></path>
<path fill="#a2bdff" style="fill: var(--color6, #a2bdff)" d="M16.549 20.791l-2.781-1.601-2.754 1.601 2.754 1.601 2.781-1.601z"></path>
<path fill="#a2bdff" style="fill: var(--color6, #a2bdff)" d="M22.057 17.588v3.203l2.754-1.601-2.754-1.601z"></path>
<path fill="#a2bdff" style="fill: var(--color6, #a2bdff)" d="M24.811 19.189l-2.754 1.601v3.203l5.507-3.203-2.754-1.601z"></path>
<path fill="#7ea0f5" style="fill: var(--color2, #7ea0f5)" d="M13.769 19.189l2.781 1.601v-6.378l-2.781 1.574-2.754 1.601 2.754 1.601z"></path>
<path fill="#86a8fd" style="fill: var(--color8, #86a8fd)" d="M19.303 12.811l-2.754-1.601v12.784l2.754 1.601v-12.784z"></path>
<path fill="#a2bdff" style="fill: var(--color6, #a2bdff)" d="M13.769 15.986l2.781-1.574v-3.203l-2.781 1.601-2.754 1.601-2.754 1.574-2.754 1.601 2.754 1.601 5.508-3.203z"></path>
</symbol>
<symbol id="icon-Group4" viewBox="0 0 27 32">
<path fill="#1e1e1e" style="fill: var(--color1, #1e1e1e)" d="M16.387 8.029v0z"></path>
<path fill="#1e1e1e" style="fill: var(--color1, #1e1e1e)" d="M8.18 12.786v0z"></path>
<path fill="#86a8fd" style="fill: var(--color8, #86a8fd)" d="M16.387 8.029l-2.753-1.586v-3.171l2.753-1.586v6.343zM10.907 11.2v-6.343l-2.727 1.586v3.171l2.727 1.586-2.727 1.586v15.83l2.727-1.586v-15.83zM5.453 17.516v6.343l-2.727 1.586v-15.83l2.727-1.586v9.487zM19.114 9.615l2.727 1.586v-6.343l-2.727 1.586v3.171zM16.387 14.372l-2.753-1.586v-3.171l2.753-1.586v6.343z"></path>
<path fill="#000" style="fill: var(--color3, #000)" d="M24.567 9.615l2.727-1.586v15.83l-2.727 1.586v-15.83zM21.841 20.688v-9.487l-2.727 1.586v15.83l2.727-1.586v-6.343zM16.387 23.859v-9.487l-2.753 1.559v15.857l2.753-1.586v-6.343z"></path>
<path fill="#a2bdff" style="fill: var(--color6, #a2bdff)" d="M24.567 19.102v-9.487l-2.727-1.586v15.83l2.727 1.586v-6.343z"></path>
<path fill="#a2bdff" style="fill: var(--color6, #a2bdff)" d="M10.907 4.858v3.171l2.727-1.586v-3.171l-2.727-1.586v3.171z"></path>
<path fill="#a2bdff" style="fill: var(--color6, #a2bdff)" d="M5.453 8.029v3.171l2.727-1.586v-3.171l-2.727-1.586v3.171z"></path>
<path fill="#a2bdff" style="fill: var(--color6, #a2bdff)" d="M16.387 8.029v3.171l2.727-1.586v-3.171l-2.727-1.586v3.171z"></path>
<path fill="#000" style="fill: var(--color3, #000)" d="M2.727 19.102v-9.487l-2.727-1.586v15.83l2.727 1.586v-6.343zM8.18 19.102v-6.316l-2.727-1.586v15.83l2.727 1.586v-9.514zM13.634 19.102v12.685l-2.727-1.586v-15.83l2.727 1.559v3.171z"></path>
<path fill="#5e5e5e" style="fill: var(--color7, #5e5e5e)" d="M10.907 11.201v-0z"></path>
<path fill="#5e5e5e" style="fill: var(--color7, #5e5e5e)" d="M16.387 11.201v0 0z"></path>
<path fill="#000" style="fill: var(--color3, #000)" d="M13.634 3.272l2.753-1.586-2.753-1.586-2.727 1.586 2.727 1.586zM16.387 14.372l-2.753-1.586-2.727 1.586 2.727 1.559 2.753-1.559zM10.907 4.858l-2.727 1.586-2.727-1.586 2.727-1.586 2.727 1.586zM2.727 9.615l2.727-1.586-2.727-1.586-2.727 1.586 2.727 1.586zM13.634 6.444l2.753 1.586-2.753 1.586-2.727-1.586 2.727-1.586zM19.114 6.444l2.727-1.586-2.727-1.586-2.727 1.586 2.727 1.586zM19.114 9.615l2.727 1.586-2.727 1.586-2.727-1.586 2.727-1.586zM24.567 9.615l2.727-1.586-2.727-1.586-2.727 1.586 2.727 1.586zM8.18 9.615l2.727 1.586-2.727 1.586-2.727-1.586 2.727-1.586z"></path>
<path fill="#a2bdff" style="fill: var(--color6, #a2bdff)" d="M19.114 22.273v-9.487l-2.727-1.586v15.83l2.727 1.586v-6.343z"></path>
<path fill="#a2bdff" style="fill: var(--color6, #a2bdff)" d="M13.634 12.786v-3.171l-2.727-1.586v6.343l2.727-1.586z"></path>
</symbol>
<symbol id="icon-Group5" viewBox="0 0 27 32">
<path fill="#1e1e1e" style="fill: var(--color1, #1e1e1e)" d="M8.18 25.445v0z"></path>
<path fill="#1e1e1e" style="fill: var(--color1, #1e1e1e)" d="M10.907 27.030v0z"></path>
<path fill="#1e1e1e" style="fill: var(--color1, #1e1e1e)" d="M13.634 25.445l2.753-1.586v0l-2.753 1.586v0z"></path>
<path fill="#1e1e1e" style="fill: var(--color1, #1e1e1e)" d="M19.114 12.786v0z"></path>
<path fill="#1e1e1e" style="fill: var(--color1, #1e1e1e)" d="M10.907 14.372v0z"></path>
<path fill="#1e1e1e" style="fill: var(--color1, #1e1e1e)" d="M16.387 8.029v0z"></path>
<path fill="#1e1e1e" style="fill: var(--color1, #1e1e1e)" d="M19.114 9.615v0z"></path>
<path fill="#1e1e1e" style="fill: var(--color1, #1e1e1e)" d="M21.841 11.201v0z"></path>
<path fill="#000" style="fill: var(--color3, #000)" d="M5.453 20.688l-2.727 1.586v-12.658l10.907-6.343v6.343l-5.453 3.171v6.316l-2.727 1.586zM24.567 9.615l2.727-1.586v15.83l-10.907 6.343-2.753 1.586v-3.171l2.753-1.586 8.18-4.757v-12.658z"></path>
<path fill="#7796e6" style="fill: var(--color10, #7796e6)" d="M19.114 15.931v-3.144l-2.727 1.586-2.753 1.559v6.343l2.753-1.586 2.727-1.586v-3.171z"></path>
<path fill="#86a8fd" style="fill: var(--color8, #86a8fd)" d="M13.634 19.102v-3.171l-2.727-1.559-2.727-1.586v6.316l5.454 3.171v-3.171z"></path>
<path fill="#5e5e5e" style="fill: var(--color7, #5e5e5e)" d="M8.18 22.273v0z"></path>
<path fill="#5e5e5e" style="fill: var(--color7, #5e5e5e)" d="M8.18 22.273v0z"></path>
<path fill="#5e5e5e" style="fill: var(--color7, #5e5e5e)" d="M10.907 23.859v0z"></path>
<path fill="#5e5e5e" style="fill: var(--color7, #5e5e5e)" d="M10.907 23.859v0z"></path>
<path fill="#5e5e5e" style="fill: var(--color7, #5e5e5e)" d="M21.841 20.688v0z"></path>
<path fill="#5e5e5e" style="fill: var(--color7, #5e5e5e)" d="M19.114 22.273v0z"></path>
<path fill="#5e5e5e" style="fill: var(--color7, #5e5e5e)" d="M16.387 23.859v0z"></path>
<path fill="#5e5e5e" style="fill: var(--color7, #5e5e5e)" d="M13.634 25.445v0z"></path>
<path fill="#5e5e5e" style="fill: var(--color7, #5e5e5e)" d="M24.567 22.273v0z"></path>
<path fill="#5e5e5e" style="fill: var(--color7, #5e5e5e)" d="M21.841 23.859v0z"></path>
<path fill="#5e5e5e" style="fill: var(--color7, #5e5e5e)" d="M19.114 25.445v0z"></path>
<path fill="#5e5e5e" style="fill: var(--color7, #5e5e5e)" d="M16.387 27.030v0z"></path>
<path fill="#5e5e5e" style="fill: var(--color7, #5e5e5e)" d="M8.18 19.102v0z"></path>
<path fill="#5e5e5e" style="fill: var(--color7, #5e5e5e)" d="M13.634 3.272v0z"></path>
<path fill="#5e5e5e" style="fill: var(--color7, #5e5e5e)" d="M10.907 4.858v0z"></path>
<path fill="#5e5e5e" style="fill: var(--color7, #5e5e5e)" d="M8.18 6.444v0z"></path>
<path fill="#5e5e5e" style="fill: var(--color7, #5e5e5e)" d="M5.453 8.029v0z"></path>
<path fill="#000" style="fill: var(--color3, #000)" d="M16.387 8.029v3.171l-2.513-1.478-0.241-0.107v-6.343l2.753 1.586v3.171zM16.387 4.858l8.18 4.757v12.658l-5.453-3.171v-6.316l-2.727-1.586v-6.343zM2.727 15.931v6.343l2.727 1.586v3.171l-5.453-3.171v-15.83l2.727 1.586v6.316zM8.18 25.444l-2.727-1.586v3.171l2.727 1.586v-3.171zM10.907 27.030l2.727 1.586v3.171l-5.453-3.171v-3.171l2.727 1.586z"></path>
<path fill="#5e5e5e" style="fill: var(--color7, #5e5e5e)" d="M16.387 14.372v0z"></path>
<path fill="#939393" style="fill: var(--color9, #939393)" d="M19.114 12.786l-2.727-1.586-2.513-1.478 1.444 0.86 1.069 0.618 2.727 1.586z"></path>
<path fill="#939393" style="fill: var(--color9, #939393)" d="M10.907 11.2v0z"></path>
<path fill="#000" style="fill: var(--color3, #000)" d="M5.454 8.029l8.18-4.757 2.753 1.586 2.727-1.586-2.727-1.586-2.753-1.586-13.634 7.928 2.727 1.586 2.727-1.586zM21.841 4.858l-2.727 1.586-2.727-1.586 2.727-1.586 2.727 1.586zM21.841 8.029l-0 0-2.727-1.586 2.727-1.586 5.453 3.171-2.727 1.586-2.727-1.586z"></path>
<path fill="#000" style="fill: var(--color3, #000)" d="M5.453 20.688l2.727-1.586 5.453 3.171-5.453 3.171-5.453-3.171 2.727-1.586zM21.841 20.688l0-0 2.727 1.586-8.18 4.757-2.753 1.586-5.454-3.171 5.454-3.171 2.753-1.586 2.727-1.586 2.727 1.586z"></path>
<path fill="#a2bdff" style="fill: var(--color6, #a2bdff)" d="M8.18 12.786l2.727 1.586 2.727 1.559 2.753-1.559 2.727-1.586-3.796-2.204-1.444-0.86-0.241-0.107-5.454 3.171z"></path>
</symbol>
<symbol id="icon-Group6" viewBox="0 0 27 32">
<path fill="#7ea0f5" style="fill: var(--color2, #7ea0f5)" d="M8.18 15.931l-2.727-1.559-2.727-1.586v12.658l8.18-4.757v-3.171l-2.727-1.586z"></path>
<path fill="#1e1e1e" style="fill: var(--color1, #1e1e1e)" d="M13.634 6.444v0z"></path>
<path fill="#1e1e1e" style="fill: var(--color1, #1e1e1e)" d="M5.453 8.029v0z"></path>
<path fill="#1e1e1e" style="fill: var(--color1, #1e1e1e)" d="M16.387 8.029v0z"></path>
<path fill="#1e1e1e" style="fill: var(--color1, #1e1e1e)" d="M8.18 9.615v0z"></path>
<path fill="#1e1e1e" style="fill: var(--color1, #1e1e1e)" d="M19.114 9.615v0z"></path>
<path fill="#1e1e1e" style="fill: var(--color1, #1e1e1e)" d="M10.907 11.201v0z"></path>
<path fill="#1e1e1e" style="fill: var(--color1, #1e1e1e)" d="M21.841 8.029v0z"></path>
<path fill="#1e1e1e" style="fill: var(--color1, #1e1e1e)" d="M13.634 12.786v0z"></path>
<path fill="#000" style="fill: var(--color3, #000)" d="M21.841 14.372l5.453-3.171v-3.171l-10.907 6.343-2.753 1.559v15.857l2.753-1.586 10.907-6.343v-3.171l-2.727 1.586-1.631 0.941-1.096 0.645-1.444 0.833-1.283 0.753-2.727 1.586v-9.514l2.727-1.586 2.727-1.559z"></path>
<path fill="#9eb8f7" style="fill: var(--color11, #9eb8f7)" d="M10.907 11.201l2.727 1.586v-9.514l-2.727-1.586v9.514z"></path>
<path fill="#9eb8f7" style="fill: var(--color11, #9eb8f7)" d="M16.387 8.029v-3.171l-2.753-1.586v9.514l2.753-1.586v-3.171z"></path>
<path fill="#9eb8f7" style="fill: var(--color11, #9eb8f7)" d="M19.114 6.444l-2.727-1.586v6.343l2.727-1.586v-3.171z"></path>
<path fill="#9eb8f7" style="fill: var(--color11, #9eb8f7)" d="M21.841 8.029l-2.727-1.586v3.171l2.727-1.586z"></path>
<path fill="#5e5e5e" style="fill: var(--color7, #5e5e5e)" d="M24.567 22.273v0z"></path>
<path fill="#5e5e5e" style="fill: var(--color7, #5e5e5e)" d="M21.841 23.859v0z"></path>
<path fill="#5e5e5e" style="fill: var(--color7, #5e5e5e)" d="M19.114 25.445v0z"></path>
<path fill="#000" style="fill: var(--color3, #000)" d="M13.634 25.445v-9.514l-2.727-1.559-10.907-6.343v15.83l2.727 1.586v-12.658l2.727 1.586 2.727 1.559 2.727 1.586v12.685l2.727 1.586v-6.343z"></path>
<path fill="#5e5e5e" style="fill: var(--color7, #5e5e5e)" d="M24.567 9.615v0z"></path>
<path fill="#5e5e5e" style="fill: var(--color7, #5e5e5e)" d="M21.841 11.201v0z"></path>
<path fill="#5e5e5e" style="fill: var(--color7, #5e5e5e)" d="M19.114 12.786v0z"></path>
<path fill="#5e5e5e" style="fill: var(--color7, #5e5e5e)" d="M16.387 14.372v0z"></path>
<path fill="#000" style="fill: var(--color3, #000)" d="M10.907 1.687l2.727 1.586 2.753 1.586 2.727 1.586 2.727-1.586-5.454-3.171-2.753-1.586-2.727 1.586zM2.727 9.615l8.18 4.757 2.727 1.559 13.634-7.928-2.727-1.586-0.010 0.006-2.69-1.564-2.727 1.586 2.69 1.564-5.444 3.166-2.727 1.613-10.907-6.343-2.727 1.586 2.727 1.586z"></path>
<path fill="#a2bdff" style="fill: var(--color6, #a2bdff)" d="M19.114 15.931l-2.727 1.586v9.514l2.727-1.586 1.283-0.753 1.444-0.833 1.096-0.645 1.631-0.941 2.727-1.586-2.727-1.586-0.962-0.538-1.764-1.048-2.727-1.586z"></path>
</symbol>
<symbol id="icon-logo" viewBox="0 0 32 32">
<path fill="#373435" style="fill: var(--color12, #373435)" d="M6.415 8.198h-5.424c-0.547 0-0.991 0.444-0.991 0.991v5.424c0 0.547 0.444 0.991 0.991 0.991h5.424c0.547 0 0.991-0.444 0.991-0.991v-5.424c0-0.547-0.444-0.991-0.991-0.991z"></path>
<path fill="#fefefe" style="fill: var(--color13, #fefefe)" d="M14.612 0h-5.424c-0.547 0-0.991 0.444-0.991 0.991v5.424c0 0.547 0.444 0.991 0.991 0.991h5.424c0.547 0 0.991-0.444 0.991-0.991v-5.424c0-0.547-0.444-0.991-0.991-0.991z"></path>
<path fill="#373435" style="fill: var(--color12, #373435)" d="M14.612 8.198h-5.424c-0.547 0-0.991 0.444-0.991 0.991v5.424c0 0.547 0.444 0.991 0.991 0.991h5.424c0.547 0 0.991-0.444 0.991-0.991v-5.424c0-0.547-0.444-0.991-0.991-0.991z"></path>
<path fill="#373435" style="fill: var(--color12, #373435)" d="M14.612 16.395h-5.424c-0.547 0-0.991 0.444-0.991 0.991v5.424c0 0.547 0.444 0.991 0.991 0.991h5.424c0.547 0 0.991-0.444 0.991-0.991v-5.424c0-0.547-0.444-0.991-0.991-0.991z"></path>
<path fill="#373435" style="fill: var(--color12, #373435)" d="M14.612 24.594h-5.424c-0.547 0-0.991 0.444-0.991 0.991v5.424c0 0.547 0.444 0.991 0.991 0.991h5.424c0.547 0 0.991-0.444 0.991-0.991v-5.424c0-0.547-0.444-0.991-0.991-0.991z"></path>
<path fill="#fefefe" style="fill: var(--color13, #fefefe)" d="M22.811 0h-5.424c-0.547 0-0.991 0.444-0.991 0.991v5.424c0 0.547 0.444 0.991 0.991 0.991h5.424c0.547 0 0.991-0.444 0.991-0.991v-5.424c0-0.547-0.444-0.991-0.991-0.991z"></path>
<path fill="#373435" style="fill: var(--color12, #373435)" d="M22.811 8.198h-5.424c-0.547 0-0.991 0.444-0.991 0.991v5.424c0 0.547 0.444 0.991 0.991 0.991h5.424c0.547 0 0.991-0.444 0.991-0.991v-5.424c0-0.547-0.444-0.991-0.991-0.991z"></path>
<path fill="#fefefe" style="fill: var(--color13, #fefefe)" d="M22.811 16.395h-5.424c-0.547 0-0.991 0.444-0.991 0.991v5.424c0 0.547 0.444 0.991 0.991 0.991h5.424c0.547 0 0.991-0.444 0.991-0.991v-5.424c0-0.547-0.444-0.991-0.991-0.991z"></path>
<path fill="#fefefe" style="fill: var(--color13, #fefefe)" d="M31.009 0h-5.424c-0.547 0-0.991 0.444-0.991 0.991v5.424c0 0.547 0.444 0.991 0.991 0.991h5.424c0.547 0 0.991-0.444 0.991-0.991v-5.424c0-0.547-0.444-0.991-0.991-0.991z"></path>
<path fill="#fefefe" style="fill: var(--color13, #fefefe)" d="M31.009 8.198h-5.424c-0.547 0-0.991 0.444-0.991 0.991v5.424c0 0.547 0.444 0.991 0.991 0.991h5.424c0.547 0 0.991-0.444 0.991-0.991v-5.424c0-0.547-0.444-0.991-0.991-0.991z"></path>
<path fill="#fefefe" style="fill: var(--color13, #fefefe)" d="M31.009 16.395h-5.424c-0.547 0-0.991 0.444-0.991 0.991v5.424c0 0.547 0.444 0.991 0.991 0.991h5.424c0.547 0 0.991-0.444 0.991-0.991v-5.424c0-0.547-0.444-0.991-0.991-0.991z"></path>
</symbol>
<symbol id="icon-Polygon-1" viewBox="0 0 31 32">
<path d="M14.587 0.442c2.055-0.814 4.388-0.47 6.12 0.902l7.766 6.152c1.732 1.372 2.601 3.565 2.279 5.751l-1.445 9.801c-0.322 2.186-1.787 4.035-3.841 4.849l-9.21 3.649c-2.055 0.814-4.388 0.47-6.12-0.902l-7.766-6.152c-1.732-1.372-2.601-3.565-2.279-5.751l1.445-9.801c0.322-2.187 1.787-4.035 3.841-4.849l9.21-3.649z"></path>
</symbol>
</defs>
</svg>
