
<svg display="none">
	<defs>
		<g id="icon4">
			<g xmlns="http://www.w3.org/2000/svg" clip-path="url(#clip0_220_2043)"><path fill="#1E1E1E" d="M52.2342 25.5931L43.4575 30.6474L52.2342 25.5931Z"/><path fill="#1E1E1E" d="M26.0742 40.7561L34.7657 35.7018L26.0742 40.7561Z"/><path fill="#86A8FD" fill-rule="evenodd" d="M52.234 25.5931L43.4573 20.5388V10.4303L52.234 5.37598V15.4845V25.5931ZM34.7658 35.7016V25.5934V15.4848L26.0743 20.5391V30.6476L34.7655 35.7018L26.0743 40.7559V50.7788V60.8873V70.9959V81.1045V91.213L34.7658 86.1588V76.0502V65.9416V55.8331V45.8102V35.7019V35.7016ZM17.3829 55.8332V65.9418V76.0504L8.69141 81.1046V70.9961V60.8875V50.7789V40.756V30.6475L17.3829 25.5932V35.7018V45.8103V55.8332ZM60.9255 30.6476L69.617 35.7019V25.5934V15.4848L60.9255 20.5391V30.6476ZM52.234 45.8103L43.4573 40.756V30.6475L52.234 25.5932V35.7018V45.8103Z" clip-rule="evenodd"/><path fill="url(#paint0_linear_220_2043)" fill-rule="evenodd" d="M78.3087 30.6474L87.0001 25.5931V35.7017V45.8103V55.8332V65.9417V76.0503L78.3087 81.1046V70.996V60.8875V50.7789V40.756V30.6474ZM69.6172 65.9416V55.833V45.8101V35.7015L60.9257 40.7558V50.7787V60.8873V70.9959V81.1044V91.213L69.6172 86.1587V76.0501V65.9416ZM52.2342 76.0504V65.9418V55.8333V45.8104L43.4575 50.779V60.8875V70.9961V81.1047V91.2132V101.322L52.2342 96.2675V86.159V76.0504Z" clip-rule="evenodd"/><path fill="#A2BDFF" d="M78.3087 60.8875V50.7789V40.756V30.6474L69.6172 25.5931V35.7017V45.8103V55.8332V65.9417V76.0503L78.3087 81.1046V70.996V60.8875Z"/><path fill="#A2BDFF" d="M34.7661 15.4847V25.5932L43.4576 20.5389V10.4304L34.7661 5.3761V15.4847Z"/><path fill="#A2BDFF" d="M17.3828 25.5932V35.7018L26.0743 30.6475V20.5389L17.3828 15.4846V25.5932Z"/><path fill="#A2BDFF" d="M52.2339 25.5932V35.7018L60.9254 30.6475V20.5389L52.2339 15.4846V25.5932Z"/><path fill="url(#paint1_linear_220_2043)" fill-rule="evenodd" d="M8.69148 60.8875V50.7789V40.756V30.6474L0 25.5931V35.7017V45.8103V55.8332V65.9417V76.0503L8.69148 81.1046V70.996V60.8875ZM26.0745 60.8873V50.7787V40.7558L17.383 35.7015V45.8101V55.833V65.9416V76.0501V86.1587L26.0745 91.213V81.1044V70.9959V60.8873ZM43.4574 60.8875V70.9961V81.1047V91.2132V101.322L34.766 96.2675V86.159V76.0504V65.9418V55.8333V45.8104L43.4574 50.779V60.8875Z" clip-rule="evenodd"/><path fill="#5E5E5E" d="M34.7661 35.7017V25.5931L43.4576 30.6474L34.7661 25.5931V35.7017Z"/><path fill="#5E5E5E" d="M52.2339 35.7018V45.8103V35.7018L60.9254 40.7561L52.2339 35.7018Z"/><path fill="url(#paint2_linear_220_2043)" fill-rule="evenodd" d="M43.4574 10.4303L52.2341 5.37606L43.4574 0.321777L34.766 5.37606L43.4574 10.4303ZM52.2341 45.8105L43.4574 40.7562L34.766 45.8105L43.4574 50.7791L52.2341 45.8105ZM34.7659 15.4845L26.0745 20.5387L17.383 15.4845L26.0745 10.4302L34.7659 15.4845ZM8.69148 30.6476L17.383 25.5933L8.69148 20.539L0 25.5933L8.69148 30.6476ZM43.4574 20.539L52.2341 25.5933L43.4574 30.6476L34.766 25.5933L43.4574 20.539ZM60.9256 20.5387L69.6171 15.4845L60.9256 10.4302L52.2341 15.4845L60.9256 20.5387ZM60.9256 30.6474L69.6171 35.7017L60.9256 40.756L52.2341 35.7017L60.9256 30.6474ZM78.3085 30.6476L87 25.5933L78.3085 20.539L69.617 25.5933L78.3085 30.6476ZM26.0745 30.6474L34.7659 35.7017L26.0745 40.756L17.383 35.7017L26.0745 30.6474Z" clip-rule="evenodd"/><path fill="#A2BDFF" d="M60.9254 70.9961V60.8875V50.779V40.7561L52.2339 35.7018V45.8103V55.8333V65.9418V76.0504V86.1589L60.9254 91.2132V81.1047V70.9961Z"/><path fill="#A2BDFF" d="M43.4576 40.756V30.6474L34.7661 25.5931V35.7017V45.8103L43.4576 40.756Z"/></g><defs xmlns="http://www.w3.org/2000/svg"><linearGradient id="paint0_linear_220_2043" x1="65.229" x2="65.229" y1="25.593" y2="101.322" gradientUnits="userSpaceOnUse"><stop stop-color="#391578"/><stop offset="1" stop-color="#0F0599" stop-opacity=".11"/></linearGradient><linearGradient id="paint1_linear_220_2043" x1="-9.373" x2="55.831" y1="26.45" y2="113.496" gradientUnits="userSpaceOnUse"><stop stop-color="#5522B8"/><stop offset="1" stop-color="#0464AF" stop-opacity=".42"/></linearGradient><linearGradient id="paint2_linear_220_2043" x1="-12.782" x2="87.232" y1=".322" y2="65.368" gradientUnits="userSpaceOnUse"><stop stop-color="#5729BA"/><stop offset="1" stop-color="#032F9F" stop-opacity="0"/></linearGradient><clipPath id="clip0_220_2043"><path fill="white" d="M0 0H87V101H0z" transform="translate(0 .322)"/></clipPath></defs>
		</g>
		<g id="icon5">
			<path xmlns="http://www.w3.org/2000/svg" fill="#1E1E1E" d="M26.0743 81.1048L17.3828 76.0505L26.0743 70.9962L34.7658 65.9419L26.0743 70.9962L17.3828 76.0505V86.1591V76.0505L26.0743 81.1048Z"/><path xmlns="http://www.w3.org/2000/svg" fill="#1E1E1E" d="M34.7657 86.1593L26.0742 81.1051L34.7657 76.0508L43.4572 70.9965L34.7657 76.0508L26.0742 81.1051V91.2136V81.1051L34.7657 86.1593Z"/><path xmlns="http://www.w3.org/2000/svg" fill="#1E1E1E" d="M43.4576 81.1047L52.2343 76.0504L60.9258 70.9961L69.6172 65.9418V55.8333V65.9418L60.9258 70.9961L52.2343 76.0504L43.4576 81.1047L34.7661 86.159L43.4576 91.2133L34.7661 86.159L43.4576 81.1047Z"/><path xmlns="http://www.w3.org/2000/svg" fill="#1E1E1E" d="M60.9259 40.7563L52.2344 45.8106L60.9259 40.7563Z"/><path xmlns="http://www.w3.org/2000/svg" fill="#1E1E1E" d="M34.7661 45.8104L43.4576 50.7791L34.7661 45.8104Z"/><path xmlns="http://www.w3.org/2000/svg" fill="#1E1E1E" d="M52.2344 25.5933V15.4847L60.9259 20.539L52.2344 15.4847L60.9259 10.4304L52.2344 15.4847V25.5933Z"/><path xmlns="http://www.w3.org/2000/svg" fill="#1E1E1E" d="M60.9258 30.6479V20.5393L69.6173 25.5936L60.9258 20.5393L69.6173 15.485L60.9258 20.5393V30.6479Z"/><path xmlns="http://www.w3.org/2000/svg" fill="#1E1E1E" d="M69.6172 35.7019V25.5934L78.3087 30.6477L69.6172 25.5934L78.3087 20.5391L69.6172 25.5934V35.7019Z"/><path xmlns="http://www.w3.org/2000/svg" fill="url(#paint0_linear_220_2042)" fill-rule="evenodd" d="M17.3829 65.9415L8.69141 70.9958V60.8872V50.7786V40.7557V30.6471L17.3829 25.5928L26.0744 20.5385L34.7658 15.4842L43.4573 10.4299V20.5385V30.6471L34.7658 35.7014L26.0744 40.7557V50.7786V60.8872L17.3829 65.9415ZM78.3085 30.6467L87 25.5924V35.701V45.8096V55.8326V65.9411V76.0497L78.3085 81.104L69.617 86.1583L60.9256 91.2126L52.2341 96.2669L43.4574 101.321V91.2126L52.2341 86.1583L60.9256 81.104L69.617 76.0497L78.3085 70.9954V60.8868V50.7783V40.7553V30.6467Z" clip-rule="evenodd"/><path xmlns="http://www.w3.org/2000/svg" fill="#7796E6" d="M60.9257 50.7793V40.7563L52.2342 45.8106L43.4575 50.7793V60.8879V70.9965L52.2342 65.9422L60.9257 60.8879V50.7793Z"/><path xmlns="http://www.w3.org/2000/svg" fill="#86A8FD" d="M43.4572 60.8879V50.7793L34.7657 45.8106L26.0742 40.7563V50.7793V60.8879L34.7657 65.9422L43.4572 70.9965V60.8879Z"/><path xmlns="http://www.w3.org/2000/svg" fill="#5E5E5E" d="M26.0742 70.9962L34.7657 65.9419L26.0742 70.9962Z"/><path xmlns="http://www.w3.org/2000/svg" fill="#5E5E5E" d="M26.0743 70.9965L17.3828 76.0508L26.0743 70.9965Z"/><path xmlns="http://www.w3.org/2000/svg" fill="#5E5E5E" d="M34.7661 76.0508L43.4576 70.9965L34.7661 76.0508Z"/><path xmlns="http://www.w3.org/2000/svg" fill="#5E5E5E" d="M34.7657 76.0505L26.0742 81.1048L34.7657 76.0505Z"/><path xmlns="http://www.w3.org/2000/svg" fill="#5E5E5E" d="M69.6173 65.9419L60.9258 70.9962L69.6173 65.9419Z"/><path xmlns="http://www.w3.org/2000/svg" fill="#5E5E5E" d="M60.9259 70.9965L52.2344 76.0508L60.9259 70.9965Z"/><path xmlns="http://www.w3.org/2000/svg" fill="#5E5E5E" d="M52.2342 76.0505L43.4575 81.1048L52.2342 76.0505Z"/><path xmlns="http://www.w3.org/2000/svg" fill="#5E5E5E" d="M43.4576 81.1046L34.7661 86.1589L43.4576 81.1046Z"/><path xmlns="http://www.w3.org/2000/svg" fill="#5E5E5E" d="M78.3087 70.9965L69.6172 76.0508L78.3087 70.9965Z"/><path xmlns="http://www.w3.org/2000/svg" fill="#5E5E5E" d="M69.6173 76.0505L60.9258 81.1048L69.6173 76.0505Z"/><path xmlns="http://www.w3.org/2000/svg" fill="#5E5E5E" d="M60.9259 81.1046L52.2344 86.1589L60.9259 81.1046Z"/><path xmlns="http://www.w3.org/2000/svg" fill="#5E5E5E" d="M52.2342 86.1592L43.4575 91.2135L52.2342 86.1592Z"/><path xmlns="http://www.w3.org/2000/svg" fill="#5E5E5E" d="M26.0742 60.8879V50.7793V40.7563L34.7657 45.8106L26.0742 40.7563V50.7793V60.8879Z"/><path xmlns="http://www.w3.org/2000/svg" fill="#5E5E5E" d="M43.4576 10.4304L34.7661 15.4847L43.4576 10.4304Z"/><path xmlns="http://www.w3.org/2000/svg" fill="#5E5E5E" d="M34.7657 15.485L26.0742 20.5393L34.7657 15.485Z"/><path xmlns="http://www.w3.org/2000/svg" fill="#5E5E5E" d="M26.0743 20.5391L17.3828 25.5934L26.0743 20.5391Z"/><path xmlns="http://www.w3.org/2000/svg" fill="#5E5E5E" d="M17.3829 25.5931L8.69141 30.6474L17.3829 25.5931Z"/><path xmlns="http://www.w3.org/2000/svg" fill="url(#paint1_linear_220_2042)" fill-rule="evenodd" d="M52.2341 25.5926V35.7012L44.2243 30.9895L43.4574 30.6469V20.5383V10.4297L52.2341 15.484V25.5926ZM52.2341 15.4843L60.9255 20.5385V20.5383L69.617 25.5926V25.593L78.3084 30.6472V40.7558V50.7787V60.8873V70.9959L69.6169 65.9416V65.9413L60.9255 60.887V50.7784V40.7557L52.2341 35.7014V25.5928V15.4843ZM8.69148 50.7787V60.8873V70.9957L17.3829 76.05V86.1586L8.69148 81.1043V81.1045L0 76.0502V65.9416V55.833V45.8101V35.7015V25.5929L8.69148 30.6472V40.7558V50.7787ZM26.0744 81.1041L17.3829 76.0498V86.1584L26.0744 91.2127V81.1041ZM34.7659 86.1586L43.4574 91.2129V101.322L34.7659 96.2672L26.0745 91.2129V81.1044L34.7659 86.1586Z" clip-rule="evenodd"/><path xmlns="http://www.w3.org/2000/svg" fill="#5E5E5E" d="M52.2342 45.8104L43.4575 50.7791L52.2342 45.8104Z"/><path xmlns="http://www.w3.org/2000/svg" fill="#939393" d="M60.9254 40.7558L52.2339 35.7015L44.2241 30.9899L48.8255 33.7312L52.2339 35.7015L60.9254 40.7558Z"/><path xmlns="http://www.w3.org/2000/svg" fill="#939393" d="M34.7657 35.7015L26.0742 40.7558L43.4572 30.6472L34.7657 35.7015Z"/><path xmlns="http://www.w3.org/2000/svg" fill="url(#paint2_linear_220_2042)" fill-rule="evenodd" d="M17.383 25.5933L26.0744 20.539L34.7659 15.4847L43.4574 10.4304L43.4576 10.4303L52.2341 15.4844L60.9256 10.4302L52.2341 5.37586L52.2339 5.37597L43.4574 0.321777L34.7659 5.37607L26.0744 10.4304L17.383 15.4847L8.69148 20.539L0 25.5933L8.69148 30.6475L17.383 25.5933ZM69.6171 15.4847L60.9256 20.539L52.2341 15.4847L60.9256 10.4304L69.6171 15.4847ZM69.6172 25.5935L69.617 25.5936L60.9255 20.5393L69.617 15.485L78.3083 20.5392L78.3084 20.5391L86.9999 25.5934L78.3084 30.6477L69.6172 25.5935Z" clip-rule="evenodd"/><path xmlns="http://www.w3.org/2000/svg" fill="url(#paint3_linear_220_2042)" fill-rule="evenodd" d="M17.3829 65.9421L26.0744 60.8878L34.7656 65.942L34.7658 65.9419L43.4572 70.9962L34.7658 76.0505L26.0743 81.1048L17.383 76.0506L17.3829 76.0507L8.69141 70.9964L17.3829 65.9421ZM69.6168 65.9421L69.6172 65.9419L78.3087 70.9962L69.6172 76.0505L60.9258 81.1048L52.2343 86.1591L43.4576 91.2134L34.7661 86.1591L34.7657 86.1593L26.0742 81.105L34.7657 76.0507L43.4572 70.9964L52.2339 65.9421L60.9253 60.8878L69.6168 65.9421Z" clip-rule="evenodd"/><path xmlns="http://www.w3.org/2000/svg" fill="#A2BDFF" d="M26.0742 40.7558L34.7657 45.8101L43.4572 50.7787L52.2339 45.8101L60.9253 40.7558L52.2339 35.7015L48.8254 33.7312L44.2241 30.9899L43.4572 30.6472L26.0742 40.7558Z"/><defs xmlns="http://www.w3.org/2000/svg"><linearGradient id="paint0_linear_220_2042" x1="47.718" x2="47.847" y1="-4.39" y2="101.321" gradientUnits="userSpaceOnUse"><stop stop-color="#3E1C7D"/><stop offset="1" stop-color="#0B03A2" stop-opacity=".12"/></linearGradient><linearGradient id="paint1_linear_220_2042" x1="-6.817" x2="74.649" y1="10.601" y2="109.119" gradientUnits="userSpaceOnUse"><stop stop-color="#553C96"/><stop offset="1" stop-color="#05088A" stop-opacity=".22"/></linearGradient><linearGradient id="paint2_linear_220_2042" x1="10.651" x2="18.306" y1="3.466" y2="45.151" gradientUnits="userSpaceOnUse"><stop stop-color="#705DC5"/><stop offset="1" stop-color="#0648A5" stop-opacity=".21"/></linearGradient><linearGradient id="paint3_linear_220_2042" x1="17" x2="40.5" y1="59.5" y2="94.5" gradientUnits="userSpaceOnUse"><stop stop-color="#57409A"/><stop offset="1" stop-color="#2400AC" stop-opacity=".14"/><stop offset="1" stop-color="#0076AC" stop-opacity=".14"/></linearGradient></defs>
		</g>
		<g id="icon6">
			<g xmlns="http://www.w3.org/2000/svg" clip-path="url(#clip0_220_2041)"><path fill="#7EA0F5" d="M26.0744 50.779L17.3829 45.8104L8.69141 40.7561V50.779V60.8876V70.9961V81.1047L17.3829 76.0504L26.0744 70.9961L34.7658 65.9418V55.8333L26.0744 50.779Z"/><path fill="#1E1E1E" d="M43.4575 20.5389V10.4304L52.2342 15.4847L43.4575 10.4304L52.2342 5.3761L43.4575 10.4304V20.5389Z"/><path fill="#1E1E1E" d="M17.3829 25.5931L8.69141 30.6474V40.756V30.6474L17.3829 35.7017L8.69141 30.6474L17.3829 25.5931Z"/><path fill="#1E1E1E" d="M52.2339 25.5931V15.4846L60.9254 20.5389L52.2339 15.4846L60.9254 10.4303L52.2339 15.4846V25.5931Z"/><path fill="#1E1E1E" d="M26.0743 30.6475L17.3828 35.7017V45.8103V35.7017L26.0743 40.756L17.3828 35.7017L26.0743 30.6475Z"/><path fill="#1E1E1E" d="M60.9258 30.6475V20.5389L69.6173 25.5932L60.9258 20.5389L69.6173 15.4846L60.9258 20.5389V30.6475Z"/><path fill="#1E1E1E" d="M34.7657 35.7018L26.0742 40.7561V50.779V40.7561L34.7657 45.8103L26.0742 40.7561L34.7657 35.7018Z"/><path fill="#1E1E1E" d="M69.6172 25.5932L78.3087 20.5389L69.6172 25.5932Z"/><path fill="#1E1E1E" d="M43.4576 40.7561L34.7661 45.8104L43.4576 50.779L34.7661 45.8104L43.4576 40.7561Z"/><path fill="url(#paint0_linear_220_2041)" d="M69.6172 45.8103L78.3086 40.756L87.0001 35.7017V25.5931L78.3086 30.6474L69.6172 35.7017L60.9257 40.756L52.2342 45.8103L43.4575 50.7789V60.8875V70.996V81.1046V91.2132V101.322L52.2342 96.2674L60.9257 91.2132L69.6172 86.1589L78.3086 81.1046L87.0001 76.0503V65.9417L78.3086 70.996L73.1108 73.9943L69.6172 76.0503L65.0158 78.7059L60.9257 81.1046L52.2342 86.1589V76.0503V70.996V65.9417V55.8332L60.9257 50.7789L69.6172 45.8103Z"/><path fill="#9EB8F7" d="M34.7661 35.7018L43.4576 40.7561V30.6475V20.5389V10.4304L34.7661 5.3761V15.4847V25.5932V35.7018Z"/><path fill="#9EB8F7" d="M52.2342 25.5931V15.4846L43.4575 10.4303V20.5389V30.6474V40.756L52.2342 35.7017V25.5931Z"/><path fill="#9EB8F7" d="M60.9254 20.5389L52.2339 15.4846V25.5932V35.7018L60.9254 30.6475V20.5389Z"/><path fill="#9EB8F7" d="M69.6173 25.5932L60.9258 20.5389V30.6475L69.6173 25.5932Z"/><path fill="#5E5E5E" d="M78.3087 70.9961L73.1108 73.9944L78.3087 70.9961Z"/><path fill="#5E5E5E" d="M69.617 76.0504L65.0156 78.7061L69.617 76.0504Z"/><path fill="#5E5E5E" d="M60.9254 81.1046L52.2339 86.1589L60.9254 81.1046Z"/><path fill="url(#paint1_linear_220_2041)" d="M43.4574 81.1046V70.996V60.8875V50.7789L34.7659 45.8103L26.0744 40.756V50.7789V40.756L17.383 35.7017V45.8103V35.7017L8.69148 30.6474V40.756V30.6474L0 25.5931V35.7017V45.8103V55.8332V65.9417V76.0503L8.69148 81.1046V70.996V60.8875V50.7789V40.756L17.383 45.8103L26.0744 50.7789L34.7659 55.8332V65.9417V76.0503V86.1589V96.2674L43.4574 101.322V91.2132V81.1046Z"/><path fill="#5E5E5E" d="M78.3087 30.6475L69.6172 35.7017L78.3087 30.6475Z"/><path fill="#5E5E5E" d="M69.6173 35.7018L60.9258 40.7561L69.6173 35.7018Z"/><path fill="#5E5E5E" d="M60.9254 40.7561L52.2339 45.8104L60.9254 40.7561Z"/><path fill="#5E5E5E" d="M52.2342 45.8103L43.4575 50.7789L52.2342 45.8103Z"/><path fill="url(#paint2_linear_220_2041)" fill-rule="evenodd" d="M34.766 5.37606L43.4574 10.4303L43.4574 10.4303L52.2341 15.4845L52.2341 15.4845L60.9256 20.5387L69.6171 15.4845L60.9256 10.4302L60.9256 10.4303L52.2341 5.37606L52.2341 5.37598L43.4574 0.321777L34.766 5.37606ZM8.69148 30.6475L17.383 35.7018L26.0744 40.756L34.7659 45.8103L43.4574 50.7789L52.1489 45.7247L60.8404 40.6704L69.5318 35.6161L78.2233 30.5618L86.9148 25.5075L78.2233 20.4532L78.1921 20.4714L69.617 15.4848L60.9256 20.5391L69.5006 25.5257L60.8404 30.5618L52.1489 35.6161L43.4574 40.756L34.7659 35.7018L26.0744 30.6475L17.383 25.5932L8.69148 20.5389L0 25.5932L8.69148 30.6475Z" clip-rule="evenodd"/><path fill="#A2BDFF" d="M60.9254 50.7789L52.2339 55.8332V65.9418V70.9961V76.0504V86.1589L60.9254 81.1046L65.0155 78.706L69.6168 76.0504L73.1105 73.9944L78.3083 70.9961L86.9998 65.9418L81.5463 62.7721L78.3083 60.8875L75.2407 59.1742L69.6168 55.8332L60.9254 50.7789Z"/></g><defs xmlns="http://www.w3.org/2000/svg"><linearGradient id="paint0_linear_220_2041" x1="65.229" x2="65.229" y1="25.593" y2="101.322" gradientUnits="userSpaceOnUse"><stop stop-color="#361074"/><stop offset="1" stop-color="#15209C" stop-opacity=".17"/></linearGradient><linearGradient id="paint1_linear_220_2041" x1="-4.687" x2="42.144" y1="20.881" y2="110.627" gradientUnits="userSpaceOnUse"><stop stop-color="#5123B0"/><stop offset="1" stop-color="#0A329C" stop-opacity=".4"/></linearGradient><linearGradient id="paint2_linear_220_2041" x1="9.373" x2="70.48" y1="12.743" y2="50.572" gradientUnits="userSpaceOnUse"><stop stop-color="#5524B9"/><stop offset="1" stop-color="#0F38AE" stop-opacity=".22"/></linearGradient><clipPath id="clip0_220_2041"><path fill="white" d="M0 0H87V101H0z" transform="translate(0 .322)"/></clipPath></defs>
		</g>
		<g id="icon3">
			<path xmlns="http://www.w3.org/2000/svg" fill="#86A8FD" d="M17.3829 65.62L8.69141 60.5657V70.6742V80.7828L17.3829 75.7285L26.0744 70.6742L17.3829 65.62Z"/><path xmlns="http://www.w3.org/2000/svg" fill="#1E1E1E" d="M34.7657 85.8372L26.0742 80.7829L34.7657 75.7286L26.0742 80.7829V90.8915V80.7829L34.7657 85.8372Z"/><path xmlns="http://www.w3.org/2000/svg" fill="#1E1E1E" d="M43.4576 80.7828L34.7661 85.8371L43.4576 90.8914L34.7661 85.8371L43.4576 80.7828Z"/><path xmlns="http://www.w3.org/2000/svg" fill="#1E1E1E" d="M17.3829 45.4885L8.69141 50.4571V60.5657V50.4571L17.3829 55.5114L8.69141 50.4571L17.3829 45.4885Z"/><path xmlns="http://www.w3.org/2000/svg" fill="#1E1E1E" d="M26.0743 50.4572L17.3828 55.5114V65.62V55.5114L26.0743 60.5657L17.3828 55.5114L26.0743 50.4572Z"/><path xmlns="http://www.w3.org/2000/svg" fill="#1E1E1E" d="M34.7657 55.5115L26.0742 60.5658V70.6743V60.5658L34.7657 65.62L26.0742 60.5658L34.7657 55.5115Z"/><path xmlns="http://www.w3.org/2000/svg" fill="#1E1E1E" d="M43.4576 60.5657L34.7661 65.62L43.4576 70.6742L34.7661 65.62L43.4576 60.5657Z"/><path xmlns="http://www.w3.org/2000/svg" fill="#1E1E1E" d="M26.0743 30.3256L17.3828 35.3799L26.0743 30.3256L34.7658 25.2714L26.0743 30.3256Z"/><path xmlns="http://www.w3.org/2000/svg" fill="#86A8FD" d="M17.3829 35.38L26.0744 30.3257L34.7658 25.2714V15.1628L26.0744 20.2171L17.3829 25.2714L8.69141 30.3257V40.4343V50.4572L17.3829 45.4885V35.38Z"/><path xmlns="http://www.w3.org/2000/svg" fill="#1E1E1E" d="M43.4575 20.2172V10.1086L52.2342 15.1629L43.4575 10.1086L52.2342 5.05432L43.4575 10.1086V20.2172Z"/><path xmlns="http://www.w3.org/2000/svg" fill="#1E1E1E" d="M52.2339 15.1628L60.9254 10.1085L52.2339 15.1628Z"/><path xmlns="http://www.w3.org/2000/svg" fill="#1E1E1E" d="M60.9258 20.2171L69.6173 25.2714L60.9258 20.2171L69.6173 15.1628L60.9258 20.2171Z"/><path xmlns="http://www.w3.org/2000/svg" fill="#86A8FD" d="M34.7657 45.4886L43.4572 40.4343L52.2339 35.38L60.9253 30.3257V20.2172L52.2339 25.2714L43.4572 30.3257L34.7657 35.38L26.0742 40.4343V50.4572L34.7657 45.4886Z"/><path xmlns="http://www.w3.org/2000/svg" fill="#1E1E1E" d="M69.6172 35.38V25.2714L78.3087 30.3257L69.6172 25.2714L78.3087 20.2172L69.6172 25.2714V35.38Z"/><path xmlns="http://www.w3.org/2000/svg" fill="#A2BDFF" d="M34.7661 15.1629V25.2715L43.4576 20.2172V10.1086L34.7661 5.05432V15.1629Z"/><path xmlns="http://www.w3.org/2000/svg" fill="#A2BDFF" d="M52.2342 15.1628L43.4575 10.1085V20.2171L52.2342 15.1628Z"/><path xmlns="http://www.w3.org/2000/svg" fill="#A2BDFF" d="M60.9258 30.3257L69.6173 35.38V25.2714L60.9258 20.2172V30.3257Z"/><path xmlns="http://www.w3.org/2000/svg" fill="#A2BDFF" d="M69.6172 25.2714V35.3799V45.4885V55.5114L78.3087 60.5657V50.4571V40.4342V30.3256L69.6172 25.2714Z"/><path xmlns="http://www.w3.org/2000/svg" fill="#5E5E5E" d="M78.3087 70.6743L69.6172 75.7286L78.3087 70.6743Z"/><path xmlns="http://www.w3.org/2000/svg" fill="#5E5E5E" d="M60.9254 80.7828L52.2339 85.8371L60.9254 80.7828Z"/><path xmlns="http://www.w3.org/2000/svg" fill="#5E5E5E" d="M52.2342 85.8372L43.4575 90.8914L52.2342 85.8372Z"/><path xmlns="http://www.w3.org/2000/svg" fill="#5E5E5E" d="M43.4576 50.4572L34.7661 55.5114L43.4576 50.4572Z"/><path xmlns="http://www.w3.org/2000/svg" fill="#5E5E5E" d="M34.7657 55.5115L26.0742 60.5658L34.7657 55.5115Z"/><path xmlns="http://www.w3.org/2000/svg" fill="#5E5E5E" d="M52.2339 35.38L60.9254 30.3257L52.2339 35.38Z"/><path xmlns="http://www.w3.org/2000/svg" fill="#5E5E5E" d="M52.2342 45.4886L43.4575 50.4572L52.2342 45.4886V55.5115V65.62V55.5115V45.4886V35.38L60.9257 40.4343L52.2342 35.38V45.4886Z"/><path xmlns="http://www.w3.org/2000/svg" fill="#5E5E5E" d="M26.0743 20.2172L17.3828 25.2714L26.0743 20.2172Z"/><path xmlns="http://www.w3.org/2000/svg" fill="#5E5E5E" d="M17.3829 25.2714L8.69141 30.3256L17.3829 25.2714Z"/><path xmlns="http://www.w3.org/2000/svg" fill="#5E5E5E" d="M60.9254 20.2172L52.2339 25.2714L60.9254 20.2172Z"/><path xmlns="http://www.w3.org/2000/svg" fill="#5E5E5E" d="M52.2342 25.2714L43.4575 30.3256L52.2342 25.2714Z"/><path xmlns="http://www.w3.org/2000/svg" fill="#5E5E5E" d="M43.4576 30.3257L34.7661 35.38L43.4576 30.3257Z"/><path xmlns="http://www.w3.org/2000/svg" fill="#5E5E5E" d="M34.7657 35.38L26.0742 40.4343L34.7657 35.38Z"/><path xmlns="http://www.w3.org/2000/svg" fill="#939393" d="M52.2343 65.62L43.4576 60.5657L34.7661 65.62L43.4576 60.5657L52.2343 65.62Z"/><path xmlns="http://www.w3.org/2000/svg" fill="url(#paint0_linear_223_2051)" fill-rule="evenodd" d="M43.4574 10.1086L43.4574 10.1085L52.234 15.1627L43.4574 20.217L34.7659 25.2712L26.0744 30.3255L17.3829 35.3798L26.0744 40.4341L34.7659 35.3798L43.4574 30.3255L52.2341 25.2712L60.9255 20.217L69.617 15.1627L60.9256 10.1085L60.9255 10.1084L52.2341 5.0542L52.234 5.05428L43.4574 0L34.7659 5.05428L43.4574 10.1086ZM26.0744 70.6744L34.7659 75.7287L43.4574 80.7829V70.6744L34.7659 65.6201L26.0744 60.5658L17.383 55.5115L8.69148 50.4572V40.4343V30.3258L0 25.2715V35.3801V45.4886V55.5115V65.6201V75.7287L8.69148 80.7829V70.6744V60.5658L17.383 65.6201L26.0744 70.6744ZM26.0744 20.217L17.383 25.2712L8.69148 30.3255L0 25.2712L8.69148 20.217L17.383 15.1627L26.0744 10.1084L34.7659 15.1627L26.0744 20.217ZM78.3085 20.2174L69.617 15.1631L60.9255 20.2174L69.617 25.2717L69.6171 25.2716L78.3085 30.3259L87 25.2716L78.3085 20.2173L78.3085 20.2174Z" clip-rule="evenodd"/><path xmlns="http://www.w3.org/2000/svg" fill="url(#paint1_linear_223_2051)" fill-rule="evenodd" d="M78.3083 30.3258L86.9998 25.2715V35.38V45.4886V55.5115L78.3083 60.5658V50.4572V40.4343V30.3258ZM69.6169 65.6199V55.5114V45.4884V35.38L69.617 35.38L69.6169 35.3799V35.3799L69.6169 35.3799L60.9255 30.3257L52.234 35.38L60.9254 40.4342V50.4571V60.5656V70.6742V80.7828L52.234 85.837L43.4573 90.8913L34.7658 85.837L26.0743 80.7827V90.8913L34.7658 95.9456L43.4573 101L52.234 95.9456L60.9254 90.8913L69.6169 85.837L78.3084 80.7828L86.9999 75.7285V65.6199L78.3084 70.6742L69.6169 75.7285V65.6199ZM43.4573 80.783L52.234 75.7287V65.6201L43.4573 70.6744V80.783ZM26.0743 50.4571V40.4342L17.3828 35.3799V45.4884L26.0743 50.4571ZM17.3828 75.7285L26.0743 80.7828V90.8914L17.3828 85.8371V75.7285Z" clip-rule="evenodd"/><path xmlns="http://www.w3.org/2000/svg" fill="#A2BDFF" d="M34.7658 75.7286L26.0743 70.6743L17.3828 75.7286L26.0743 80.7829L34.7658 75.7286Z"/><path xmlns="http://www.w3.org/2000/svg" fill="#A2BDFF" d="M34.7657 75.7286L26.0742 80.7829L34.7657 85.8372L43.4572 80.7829L34.7657 75.7286Z"/><path xmlns="http://www.w3.org/2000/svg" fill="#A2BDFF" d="M43.4576 80.7829L34.7661 85.8372L43.4576 90.8915L52.2343 85.8372L60.9258 80.7829L52.2343 75.7286L43.4576 80.7829Z"/><path xmlns="http://www.w3.org/2000/svg" fill="#A2BDFF" d="M17.3829 45.4885L8.69141 50.4571L17.3829 55.5114L26.0744 50.4571L17.3829 45.4885Z"/><path xmlns="http://www.w3.org/2000/svg" fill="#A2BDFF" d="M43.4572 60.5658L34.7657 55.5115L26.0742 60.5658L34.7657 65.62L43.4572 60.5658Z"/><path xmlns="http://www.w3.org/2000/svg" fill="#A2BDFF" d="M52.2343 65.62L43.4576 60.5657L34.7661 65.62L43.4576 70.6742L52.2343 65.62Z"/><path xmlns="http://www.w3.org/2000/svg" fill="#A2BDFF" d="M69.6172 55.5115V65.62L78.3087 60.5658L69.6172 55.5115Z"/><path xmlns="http://www.w3.org/2000/svg" fill="#A2BDFF" d="M78.3087 60.5657L69.6172 65.62V75.7285L78.3087 70.6742L87.0001 65.62L78.3087 60.5657Z"/><path xmlns="http://www.w3.org/2000/svg" fill="#7EA0F5" d="M43.4576 60.5657L52.2343 65.62V55.5114V45.4885L43.4576 50.4571L34.7661 55.5114L43.4576 60.5657Z"/><path xmlns="http://www.w3.org/2000/svg" fill="#86A8FD" d="M60.9254 40.4343L52.2339 35.38V45.4886V55.5115V65.62V75.7286L60.9254 80.7829V70.6743V60.5658V50.4572V40.4343Z"/><path xmlns="http://www.w3.org/2000/svg" fill="#A2BDFF" d="M43.4573 50.4572L52.2339 45.4886V35.38L43.4573 40.4343L34.7658 45.4886L26.0743 50.4572L17.3828 55.5115L26.0743 60.5658L34.7658 55.5115L43.4573 50.4572Z"/><defs xmlns="http://www.w3.org/2000/svg"><linearGradient id="paint0_linear_223_2051" x1="-11" x2="104" y1="15" y2="75" gradientUnits="userSpaceOnUse"><stop stop-color="#5524B9"/><stop offset="1" stop-color="#90A3DA" stop-opacity=".67"/></linearGradient><linearGradient id="paint1_linear_223_2051" x1="64" x2="62.5" y1="10.5" y2="116.5" gradientUnits="userSpaceOnUse"><stop stop-color="#090484"/><stop offset="1" stop-color="#D2D5EC" stop-opacity=".3"/></linearGradient></defs>
		</g>
		<g id="icon2">
			<g xmlns="http://www.w3.org/2000/svg" clip-path="url(#clip0_220_2040)"><path fill="#1E1E1E" d="M17.3829 76.0504L8.69141 70.9961V81.1047V70.9961L17.3829 76.0504Z"/><path fill="#1E1E1E" d="M26.0743 81.1047L17.3828 76.0504V86.159V76.0504L26.0743 81.1047Z"/><path fill="#1E1E1E" d="M34.2544 85.9019L33.7432 85.5592L26.0742 81.1046V91.2132V81.1046L34.2544 85.9019Z"/><path fill="#1E1E1E" d="M43.4576 91.2132L34.7661 86.1589V96.2675V86.1589L43.4576 91.2132Z"/><path fill="#1E1E1E" d="M8.69141 50.7789L14.7414 54.3769L8.69141 50.7789V60.8875V50.7789Z"/><path fill="#1E1E1E" d="M17.3828 55.8333L23.6884 59.5169L19.6835 57.2039L17.3828 55.8333V65.9418V55.8333Z"/><path fill="#1E1E1E" d="M26.0742 60.8875L33.7432 65.3421L32.465 64.6567L26.0742 60.8875V70.996V60.8875Z"/><path fill="#1E1E1E" d="M34.7661 65.9418L43.4576 70.9961L34.7661 65.9418V76.0503V65.9418Z"/><path fill="#1E1E1E" d="M8.69141 30.6475V40.756V30.6475L15.1674 34.3311L12.6963 32.9604L8.69141 30.6475Z"/><path fill="#1E1E1E" d="M17.3828 35.7018V45.8103V35.7018L24.3701 39.7281L22.4954 38.6144L17.3828 35.7018Z"/><path fill="#1E1E1E" d="M26.0742 40.7561V50.779V40.7561L32.5502 44.4397L30.1643 43.0691L26.0742 40.7561Z"/><path fill="#1E1E1E" d="M34.7661 45.8103V55.8332V45.8103L43.4576 50.7789L34.7661 45.8103Z"/><path fill="url(#paint0_linear_220_2040)" fill-rule="evenodd" d="M78.3086 30.6474L87.0001 25.5931V35.7017L78.3086 40.756L69.6172 45.8103L60.9257 50.7789L52.2342 55.8332L43.4575 60.8875V50.7789L52.2342 45.8103L60.9257 40.756L69.6172 35.7017L74.0481 33.1317L78.3086 30.6474ZM69.6172 55.8333L60.9257 60.8875L52.2342 65.9418L43.4575 70.9961V81.1047L52.2342 76.0504L60.9257 70.9961L69.6172 65.9418L78.3086 60.8875L87.0001 55.8333V45.8104L78.3086 50.779L69.6172 55.8333ZM69.6172 76.0504L60.9257 81.1047L52.2342 86.159L43.4575 91.2132V101.322L52.2342 96.2675L60.9257 91.2132L69.6172 86.159L78.3086 81.1047L87.0001 76.0504V65.9418L78.3086 70.9961L69.6172 76.0504Z" clip-rule="evenodd"/><path fill="url(#paint1_linear_220_2040)" fill-rule="evenodd" d="M60.9256 50.7791L69.617 45.8105L78.3085 40.7562L87 45.8105L78.3085 50.7791L69.617 55.8334L60.9256 60.8877L52.2341 65.942L48.4848 68.0836L43.4574 70.9963L34.7659 65.942L33.7434 65.3423L32.4652 64.657L26.0744 60.8877L23.6885 59.517L19.6836 57.2041L17.383 55.8334L14.7414 54.3771L8.69148 50.7791L6.04995 49.3228L0 45.8105L8.69148 40.7562L17.383 45.8105L19.6836 47.0955L26.0744 50.7791L30.5906 53.4348L34.7659 55.8334L43.4574 60.8877L52.2341 55.8334L60.9256 50.7791ZM60.9256 70.9963L69.617 65.942L78.3085 60.8877L87 65.942L78.3085 70.9963L69.617 76.0505L60.9256 81.1048L52.2341 86.1591L43.4574 91.2134L34.7659 86.1591L34.2547 85.9021L33.7434 85.5595L26.0744 81.1048L17.383 76.0505L8.69148 70.9963L0 65.942L8.69148 60.8877L17.383 65.942L20.7062 67.9123L26.0744 70.9963L34.7659 76.0505L43.4574 81.1048L52.2341 76.0505L60.9256 70.9963Z" clip-rule="evenodd"/><path fill="#5E5E5E" d="M78.3087 70.9961L69.6172 76.0504L78.3087 70.9961Z"/><path fill="#5E5E5E" d="M69.6173 76.0504L60.9258 81.1047L69.6173 76.0504Z"/><path fill="#5E5E5E" d="M60.9254 81.1046L52.2339 86.1589L60.9254 81.1046Z"/><path fill="#5E5E5E" d="M52.2342 86.1589L43.4575 91.2132L52.2342 86.1589Z"/><path fill="#5E5E5E" d="M78.3087 50.7789L69.6172 55.8332L78.3087 50.7789Z"/><path fill="#5E5E5E" d="M69.6173 55.8333L60.9258 60.8875L69.6173 55.8333Z"/><path fill="#5E5E5E" d="M60.9254 60.8875L52.2339 65.9417L60.9254 60.8875Z"/><path fill="#5E5E5E" d="M48.4849 68.0834L43.4575 70.9961L52.2342 65.9418L48.4849 68.0834Z"/><path fill="url(#paint2_linear_220_2040)" fill-rule="evenodd" d="M17.383 45.8103L8.69148 40.756L0 35.7017V25.5931L8.69148 30.6474L15.1675 34.3311L17.383 35.7017L24.3702 39.728L26.0744 40.756L32.5504 44.4396L34.7659 45.8103L43.4574 50.7789V60.8875L34.7659 55.8332L30.5906 53.4345L26.0744 50.7789L19.6836 47.0953L17.383 45.8103ZM8.69148 60.8875L17.383 65.9418L20.7062 67.9121L26.0744 70.9961L34.7659 76.0504L43.4574 81.1047V70.9961L34.7659 65.9418L33.7434 65.3422L26.0744 60.8875L23.6885 59.5169L17.383 55.8333L14.7414 54.3769L8.69148 50.779L6.04995 49.3227L0 45.8104V55.8333L8.69148 60.8875ZM8.69144 70.996L0 65.9418V76.0504L8.69144 81.1046L8.69148 81.1047L17.3829 86.1589V76.0503L8.69148 70.9961L8.69144 70.996ZM17.383 76.0502L26.0744 81.1044L26.0745 81.1045L34.2546 85.9017L34.7659 86.1587V96.2673L26.0745 91.2131L26.0744 91.213L17.383 86.1588V76.0502ZM34.766 86.159L43.4574 91.2133V101.322L34.766 96.2676V86.159Z" clip-rule="evenodd"/><path fill="#5E5E5E" d="M78.3084 30.6475L74.0479 33.1318L78.3084 30.6475Z"/><path fill="#5E5E5E" d="M60.9258 40.7561L69.6173 35.7018L64.4194 38.7001L60.9258 40.7561Z"/><path fill="#5E5E5E" d="M60.9254 40.7561L52.2339 45.8104L60.9254 40.7561Z"/><path fill="#5E5E5E" d="M52.2342 45.8103L43.4575 50.7789L52.2342 45.8103Z"/><path fill="url(#paint3_linear_220_2040)" d="M8.69148 30.6475L12.6964 32.9604L15.1675 34.3311L17.383 35.7018L22.4956 38.6144L24.3702 39.7281L26.0744 40.756L30.1645 43.069L32.5504 44.4397L34.7659 45.8103L43.4574 50.7789L52.2341 45.8103L60.9256 40.756L64.4192 38.7001L69.617 35.7018L74.048 33.1318L78.3085 30.6475L87 25.5932L80.8648 21.9952L78.3085 20.5389L72.855 17.3693L69.617 15.4846L65.2713 13.0003L60.9256 10.4303L58.7101 9.14536L52.2341 5.37606L43.4574 0.321777L34.7659 5.37606L26.0744 10.4303L17.383 15.4846L8.69148 20.5389L0 25.5932L8.69148 30.6475Z"/></g><defs xmlns="http://www.w3.org/2000/svg"><linearGradient id="paint0_linear_220_2040" x1="65.229" x2="65.229" y1="25.593" y2="101.322" gradientUnits="userSpaceOnUse"><stop stop-color="#5957AD"/><stop offset="1" stop-color="#060292" stop-opacity=".24"/></linearGradient><linearGradient id="paint1_linear_220_2040" x1="43.5" x2="43.5" y1="40.756" y2="91.213" gradientUnits="userSpaceOnUse"><stop stop-color="#7EA0F5"/><stop offset="1" stop-color="#A2BDFF" stop-opacity=".32"/></linearGradient><linearGradient id="paint2_linear_220_2040" x1="22.155" x2="21.724" y1=".322" y2="101.322" gradientUnits="userSpaceOnUse"><stop stop-color="#6845C2"/><stop offset="1" stop-color="#190B76" stop-opacity=".07"/></linearGradient><linearGradient id="paint3_linear_220_2040" x1="21.729" x2="103.3" y1="4.605" y2="48.36" gradientUnits="userSpaceOnUse"><stop stop-color="#5F44C0"/><stop offset="1" stop-color="#085B9C" stop-opacity=".1"/></linearGradient><clipPath id="clip0_220_2040"><path fill="white" d="M0 0H87V101H0z" transform="translate(0 .322)"/></clipPath></defs>
		</g>
		<g id="icon1">
			<path xmlns="http://www.w3.org/2000/svg" fill="#1E1E1E" d="M17.9824 79.4772L8.99121 74.1727L17.9824 68.8682L26.9736 63.5637L35.9648 58.2593L26.9736 63.5637L17.9824 68.8682L8.99121 74.1727V84.7817V74.1727L17.9824 79.4772Z"/><path xmlns="http://www.w3.org/2000/svg" fill="#1E1E1E" d="M26.4447 84.5123L25.9158 84.1527L17.9824 79.4775V90.0865V79.4775L26.4447 84.5123Z"/><path xmlns="http://www.w3.org/2000/svg" fill="#1E1E1E" d="M35.9648 90.0865L26.9736 84.782V95.3909V84.782L35.9648 90.0865Z"/><path xmlns="http://www.w3.org/2000/svg" fill="#7EA0F5" d="M8.99121 74.173L17.9824 68.8685L26.9736 63.564L35.9648 58.2595L26.9736 52.9551L17.9824 47.7405L8.99121 52.9551V63.564V74.173Z"/><path xmlns="http://www.w3.org/2000/svg" fill="#1E1E1E" d="M63.0264 31.8272L72.0175 26.5227L63.0264 31.8272Z"/><path xmlns="http://www.w3.org/2000/svg" fill="url(#paint0_linear_220_1716)" d="M90.0001 37.1314L90.0001 26.3918L81.0089 31.8269L72.0178 37.1314L63.0266 42.4358L54.0354 47.7403L44.9561 52.9549V63.5638V74.1728V84.7818V95.3907V106L54.0354 100.695V90.0862V79.4773V68.8683V58.2594L63.0266 52.9549L72.0178 47.7403L81.0089 42.4358V52.9549V63.5638V74.1728L72.0178 79.4773L63.0266 84.7818V95.3907L72.0178 90.0862L81.0089 84.7818L90.0001 79.4773V68.8683V58.2594V47.7403V37.1314Z"/><path xmlns="http://www.w3.org/2000/svg" fill="#1E1E1E" d="M44.9561 10.6089L54.0354 15.9134L44.9561 10.6089L54.0354 5.30444L44.9561 10.6089Z"/><path xmlns="http://www.w3.org/2000/svg" fill="#5081FC" fill-opacity=".69" d="M17.9824 26.5223L26.9736 31.8268L35.9648 37.1313L44.956 42.4358V31.8268V21.2178V10.6089L35.9648 15.9134L26.9736 21.2178L17.9824 26.5223Z"/><path xmlns="http://www.w3.org/2000/svg" fill="#1E1E1E" d="M17.9824 26.5227L8.99121 31.8272V42.4361V31.8272L17.9824 37.1317L8.99121 31.8272L17.9824 26.5227Z"/><path xmlns="http://www.w3.org/2000/svg" fill="#1E1E1E" d="M54.0352 26.5223V15.9134L63.0263 21.2178L54.0352 15.9134L63.0263 10.6089L54.0352 15.9134V26.5223Z"/><path xmlns="http://www.w3.org/2000/svg" fill="#1E1E1E" d="M26.9736 31.8267L17.9824 37.1311V47.7401V37.1311L26.9736 42.4356L17.9824 37.1311L26.9736 31.8267Z"/><path xmlns="http://www.w3.org/2000/svg" fill="#7EA0F5" d="M63.0264 31.8273L72.0175 26.5228V15.9138L63.0264 21.2183V31.8273Z"/><path xmlns="http://www.w3.org/2000/svg" fill="#1E1E1E" d="M35.9648 37.1311L26.9736 42.4356V52.9546V42.4356L35.9648 47.7401L26.9736 42.4356L35.9648 37.1311Z"/><path xmlns="http://www.w3.org/2000/svg" fill="#1E1E1E" d="M44.956 42.4355L35.9648 47.74V58.2591V47.74L44.956 52.9546L35.9648 47.74L44.956 42.4355Z"/><path xmlns="http://www.w3.org/2000/svg" fill="#7EA0F5" d="M63.0263 84.782L54.0352 79.4775V90.0865L63.0263 95.391V84.782Z"/><path xmlns="http://www.w3.org/2000/svg" fill="#7EA0F5" d="M63.0263 52.9548L54.0352 58.2593L63.0263 63.5638V52.9548Z"/><path xmlns="http://www.w3.org/2000/svg" fill="#7EA0F5" d="M72.0176 68.868L81.0088 74.1725V63.5635V52.9546V42.4355L72.0176 47.74V58.2591V68.868Z"/><path xmlns="http://www.w3.org/2000/svg" fill="#7EA0F5" d="M72.0175 68.8685V58.2595V47.7405L63.0264 52.9551V63.564L72.0175 68.8685Z"/><path xmlns="http://www.w3.org/2000/svg" fill="#A3BDFF" d="M54.0352 37.1317L63.0263 31.8273V21.2183L54.0352 15.9138V26.5228V37.1317Z"/><path xmlns="http://www.w3.org/2000/svg" fill="#A3BDFF" d="M44.9561 21.2178V31.8268V42.4358L54.0354 37.1313V26.5223V15.9134L44.9561 10.6089V21.2178Z"/><path xmlns="http://www.w3.org/2000/svg" fill="#A2BDFF" d="M17.9824 47.74L8.99118 42.4355L0 47.74L8.99118 52.9546L17.9824 47.74Z"/><path xmlns="http://www.w3.org/2000/svg" fill="#5E5E5E" d="M81.0088 74.1731L72.0176 79.4776L81.0088 74.1731Z"/><path xmlns="http://www.w3.org/2000/svg" fill="#5E5E5E" d="M72.0175 79.4775L63.0264 84.782L72.0175 79.4775Z"/><path xmlns="http://www.w3.org/2000/svg" fill="url(#paint1_linear_220_1716)" fill-rule="evenodd" d="M44.9559 63.5639V74.1729V84.7818V95.3908V106L35.9647 100.695L26.9736 95.3908V84.7818L35.9647 90.0863V79.9269V79.837V79.7471V79.4773V73.5435V68.8684V58.2594L26.9736 52.9549L17.9824 47.7404L8.99118 42.4359L0 37.1314V26.5225L8.99118 31.8269L17.9824 37.1314L26.9736 42.4359L35.9647 47.7404L44.9559 52.9549V63.5639ZM8.99118 52.9553V63.5643V74.1732V84.7822L0 79.4777V68.8687V58.2598V47.7407L8.99118 52.9553ZM8.99121 74.1728L17.9823 79.4772L17.9824 79.4773L26.4446 84.512L26.9735 84.7817V95.3907L17.9824 90.0862L17.9823 90.0862L8.99121 84.7818V74.1728Z" clip-rule="evenodd"/><path xmlns="http://www.w3.org/2000/svg" fill="#5E5E5E" d="M44.956 10.6089L35.9648 15.9134L44.956 10.6089Z"/><path xmlns="http://www.w3.org/2000/svg" fill="#5E5E5E" d="M35.9648 15.9138L26.9736 21.2183L35.9648 15.9138Z"/><path xmlns="http://www.w3.org/2000/svg" fill="#5E5E5E" d="M26.9736 21.2183L17.9824 26.5227L26.9736 21.2183Z"/><path xmlns="http://www.w3.org/2000/svg" fill="#5E5E5E" d="M17.9824 26.5227L8.99121 31.8272L17.9824 26.5227Z"/><path xmlns="http://www.w3.org/2000/svg" fill="#5E5E5E" d="M81.0088 31.8267L72.0176 37.1311L81.0088 31.8267Z"/><path xmlns="http://www.w3.org/2000/svg" fill="#5E5E5E" d="M72.0175 37.1311L63.0264 42.4356L72.0175 37.1311Z"/><path xmlns="http://www.w3.org/2000/svg" fill="#5E5E5E" d="M63.0263 42.4355L54.0352 47.74L63.0263 42.4355Z"/><path xmlns="http://www.w3.org/2000/svg" fill="#5E5E5E" d="M54.0354 47.7405L44.9561 52.9551L54.0354 47.7405Z"/><path xmlns="http://www.w3.org/2000/svg" fill="url(#paint2_linear_220_1716)" fill-rule="evenodd" d="M17.9827 26.5222L26.9736 21.2179L35.9647 15.9134L44.9559 10.609L54.0353 15.9134L54.0353 15.9134L63.0265 21.2178L72.0176 15.9134L63.0265 10.6089L54.0353 5.30448L44.9559 0L35.9647 5.30448L26.9736 10.609L17.9824 15.9134L8.99118 21.2179L0 26.5224L8.99118 31.8269L8.99152 31.8267L17.9824 37.131L26.9736 42.4354L35.9648 47.7399L44.9559 52.9545L54.0353 47.8075L71.9576 37.2076L81.0849 31.7994L90 26.3913L80.9207 21.1276L71.9295 26.4321L63.0265 31.8265L54.0353 37.131L44.9559 42.4354L35.9648 37.131L26.9736 31.8265L17.9827 26.5222Z" clip-rule="evenodd"/><path xmlns="http://www.w3.org/2000/svg" fill="#A2BDFF" d="M17.9824 68.8682L8.99121 74.1727L17.9824 79.4772L25.9158 84.1523L26.4447 84.5119L26.9736 84.7817L35.9648 90.0861V79.9267V79.8368V79.7469V79.4772V73.5434V68.8682V58.2593L26.9736 63.5637L17.9824 68.8682Z"/><path xmlns="http://www.w3.org/2000/svg" fill="#A2BDFF" d="M72.0175 79.4772L81.0087 74.1727L72.0175 68.8682L63.0263 63.5637L54.0352 58.2593V68.8682V79.4772L63.0263 84.7817L72.0175 79.4772Z"/><defs xmlns="http://www.w3.org/2000/svg"><linearGradient id="paint0_linear_220_1716" x1="67.478" x2="67.478" y1="26.392" y2="106" gradientUnits="userSpaceOnUse"><stop stop-color="#30056C"/><stop offset="1" stop-color="#0320A0" stop-opacity="0"/></linearGradient><linearGradient id="paint1_linear_220_1716" x1="-17.069" x2="121.753" y1="43.03" y2="107.604" gradientUnits="userSpaceOnUse"><stop stop-color="#5628BA"/><stop offset="1" stop-color="#8898D6"/></linearGradient><linearGradient id="paint2_linear_220_1716" x1="-8.276" x2="111.275" y1="26.237" y2="43.072" gradientUnits="userSpaceOnUse"><stop stop-color="#4E05B2"/><stop offset="1" stop-color="#0558B2" stop-opacity=".29"/></linearGradient></defs>
		</g>
		<g id="polygon">
			<path xmlns="http://www.w3.org/2000/svg" fill="url(#paint0_linear_136_8)" d="M382.001 11.567C435.808 -9.7526 496.902 -0.746887 542.269 35.1918L745.63 196.29C790.997 232.229 813.745 289.64 805.304 346.898L767.47 603.563C759.029 660.822 720.683 709.228 666.876 730.547L425.681 826.114C371.873 847.434 310.779 838.428 265.412 802.489L62.0513 641.391C16.6843 605.453 -6.06345 548.041 2.37688 490.783L40.2113 234.118C48.6516 176.859 86.9977 128.454 140.805 107.134L382.001 11.567Z"/><defs xmlns="http://www.w3.org/2000/svg"><linearGradient id="paint0_linear_136_8" x1="112" x2="702" y1="121.5" y2="955.5" gradientUnits="userSpaceOnUse"><stop stop-color="#8370D1"/><stop offset=".604" stop-color="#8370D1" stop-opacity="0"/><stop offset="1" stop-color="#8370D1" stop-opacity="0"/></linearGradient></defs>
		</g>
		<g id="points2">
			<circle xmlns="http://www.w3.org/2000/svg" cx="124.783" cy="3.043" r="3.043" fill="#3383FF"/><circle xmlns="http://www.w3.org/2000/svg" cx="124.783" cy="51.739" r="3.043" fill="#3383FF"/><circle xmlns="http://www.w3.org/2000/svg" cx="124.783" cy="100.435" r="3.043" fill="#3383FF"/><circle xmlns="http://www.w3.org/2000/svg" cx="124.783" cy="149.13" r="3.043" fill="#3383FF"/><circle xmlns="http://www.w3.org/2000/svg" cx="124.783" cy="197.826" r="3.043" fill="#3383FF"/><circle xmlns="http://www.w3.org/2000/svg" cx="124.783" cy="246.522" r="3.043" fill="#3383FF"/><circle xmlns="http://www.w3.org/2000/svg" cx="124.783" cy="295.217" r="3.043" fill="#3383FF"/><circle xmlns="http://www.w3.org/2000/svg" cx="124.783" cy="343.913" r="3.043" fill="#3383FF"/><circle xmlns="http://www.w3.org/2000/svg" cx="124.783" cy="392.609" r="3.043" fill="#3383FF"/><circle xmlns="http://www.w3.org/2000/svg" cx="100.435" cy="3.043" r="3.043" fill="#3383FF"/><circle xmlns="http://www.w3.org/2000/svg" cx="100.435" cy="100.435" r="3.043" fill="#3383FF"/><circle xmlns="http://www.w3.org/2000/svg" cx="100.435" cy="149.13" r="3.043" fill="#3383FF"/><circle xmlns="http://www.w3.org/2000/svg" cx="100.435" cy="197.826" r="3.043" fill="#3383FF"/><circle xmlns="http://www.w3.org/2000/svg" cx="100.435" cy="246.522" r="3.043" fill="#3383FF"/><circle xmlns="http://www.w3.org/2000/svg" cx="100.435" cy="295.217" r="3.043" fill="#3383FF"/><circle xmlns="http://www.w3.org/2000/svg" cx="100.435" cy="51.739" r="3.043" fill="#3383FF"/><circle xmlns="http://www.w3.org/2000/svg" cx="100.435" cy="343.913" r="3.043" fill="#3383FF"/><circle xmlns="http://www.w3.org/2000/svg" cx="100.435" cy="392.609" r="3.043" fill="#3383FF"/><circle xmlns="http://www.w3.org/2000/svg" cx="76.087" cy="100.435" r="3.043" fill="#3383FF"/><circle xmlns="http://www.w3.org/2000/svg" cx="76.087" cy="3.043" r="3.043" fill="#3383FF"/><circle xmlns="http://www.w3.org/2000/svg" cx="76.087" cy="149.13" r="3.043" fill="#3383FF"/><circle xmlns="http://www.w3.org/2000/svg" cx="76.087" cy="197.826" r="3.043" fill="#3383FF"/><circle xmlns="http://www.w3.org/2000/svg" cx="76.087" cy="246.522" r="3.043" fill="#3383FF"/><circle xmlns="http://www.w3.org/2000/svg" cx="76.087" cy="295.217" r="3.043" fill="#3383FF"/><circle xmlns="http://www.w3.org/2000/svg" cx="76.087" cy="51.739" r="3.043" fill="#3383FF"/><circle xmlns="http://www.w3.org/2000/svg" cx="51.739" cy="100.435" r="3.043" fill="#3383FF"/><circle xmlns="http://www.w3.org/2000/svg" cx="76.087" cy="343.913" r="3.043" fill="#3383FF"/><circle xmlns="http://www.w3.org/2000/svg" cx="76.087" cy="392.609" r="3.043" fill="#3383FF"/><circle xmlns="http://www.w3.org/2000/svg" cx="51.739" cy="149.13" r="3.043" fill="#3383FF"/><circle xmlns="http://www.w3.org/2000/svg" cx="51.739" cy="197.826" r="3.043" fill="#3383FF"/><circle xmlns="http://www.w3.org/2000/svg" cx="51.739" cy="246.522" r="3.043" fill="#3383FF"/><circle xmlns="http://www.w3.org/2000/svg" cx="51.739" cy="295.217" r="3.043" fill="#3383FF"/><circle xmlns="http://www.w3.org/2000/svg" cx="51.739" cy="3.043" r="3.043" fill="#3383FF"/><circle xmlns="http://www.w3.org/2000/svg" cx="27.391" cy="100.435" r="3.043" fill="#3383FF"/><circle xmlns="http://www.w3.org/2000/svg" cx="51.739" cy="51.739" r="3.043" fill="#3383FF"/><circle xmlns="http://www.w3.org/2000/svg" cx="51.739" cy="343.913" r="3.043" fill="#3383FF"/><circle xmlns="http://www.w3.org/2000/svg" cx="51.739" cy="392.609" r="3.043" fill="#3383FF"/><circle xmlns="http://www.w3.org/2000/svg" cx="27.391" cy="149.13" r="3.043" fill="#3383FF"/><circle xmlns="http://www.w3.org/2000/svg" cx="3.043" cy="100.435" r="3.043" fill="#3383FF"/><circle xmlns="http://www.w3.org/2000/svg" cx="27.391" cy="197.826" r="3.043" fill="#3383FF"/><circle xmlns="http://www.w3.org/2000/svg" cx="27.391" cy="3.043" r="3.043" fill="#3383FF"/><circle xmlns="http://www.w3.org/2000/svg" cx="27.391" cy="246.522" r="3.043" fill="#3383FF"/><circle xmlns="http://www.w3.org/2000/svg" cx="27.391" cy="51.739" r="3.043" fill="#3383FF"/><circle xmlns="http://www.w3.org/2000/svg" cx="27.391" cy="295.217" r="3.043" fill="#3383FF"/><circle xmlns="http://www.w3.org/2000/svg" cx="3.043" cy="149.13" r="3.043" fill="#3383FF"/><circle xmlns="http://www.w3.org/2000/svg" cx="124.783" cy="124.783" r="3.043" fill="#3383FF"/><circle xmlns="http://www.w3.org/2000/svg" cx="3.043" cy="197.826" r="3.043" fill="#3383FF"/><circle xmlns="http://www.w3.org/2000/svg" cx="3.043" cy="246.522" r="3.043" fill="#3383FF"/><circle xmlns="http://www.w3.org/2000/svg" cx="3.043" cy="295.217" r="3.043" fill="#3383FF"/><circle xmlns="http://www.w3.org/2000/svg" cx="27.391" cy="343.913" r="3.043" fill="#3383FF"/><circle xmlns="http://www.w3.org/2000/svg" cx="27.391" cy="392.609" r="3.043" fill="#3383FF"/><circle xmlns="http://www.w3.org/2000/svg" cx="3.043" cy="3.043" r="3.043" fill="#3383FF"/><circle xmlns="http://www.w3.org/2000/svg" cx="100.435" cy="124.783" r="3.043" fill="#3383FF"/><circle xmlns="http://www.w3.org/2000/svg" cx="124.783" cy="173.478" r="3.043" fill="#3383FF"/><circle xmlns="http://www.w3.org/2000/svg" cx="3.043" cy="51.739" r="3.043" fill="#3383FF"/><circle xmlns="http://www.w3.org/2000/svg" cx="3.043" cy="343.913" r="3.043" fill="#3383FF"/><circle xmlns="http://www.w3.org/2000/svg" cx="3.043" cy="392.609" r="3.043" fill="#3383FF"/><circle xmlns="http://www.w3.org/2000/svg" cx="124.783" cy="222.174" r="3.043" fill="#3383FF"/><circle xmlns="http://www.w3.org/2000/svg" cx="76.087" cy="124.783" r="3.043" fill="#3383FF"/><circle xmlns="http://www.w3.org/2000/svg" cx="124.783" cy="270.87" r="3.043" fill="#3383FF"/><circle xmlns="http://www.w3.org/2000/svg" cx="124.783" cy="319.565" r="3.043" fill="#3383FF"/><circle xmlns="http://www.w3.org/2000/svg" cx="100.435" cy="173.478" r="3.043" fill="#3383FF"/><circle xmlns="http://www.w3.org/2000/svg" cx="124.783" cy="27.391" r="3.043" fill="#3383FF"/><circle xmlns="http://www.w3.org/2000/svg" cx="124.783" cy="76.087" r="3.043" fill="#3383FF"/><circle xmlns="http://www.w3.org/2000/svg" cx="51.739" cy="124.783" r="3.043" fill="#3383FF"/><circle xmlns="http://www.w3.org/2000/svg" cx="100.435" cy="222.174" r="3.043" fill="#3383FF"/><circle xmlns="http://www.w3.org/2000/svg" cx="76.087" cy="173.478" r="3.043" fill="#3383FF"/><circle xmlns="http://www.w3.org/2000/svg" cx="124.783" cy="368.261" r="3.043" fill="#3383FF"/><circle xmlns="http://www.w3.org/2000/svg" cx="124.783" cy="416.957" r="3.043" fill="#3383FF"/><circle xmlns="http://www.w3.org/2000/svg" cx="100.435" cy="270.87" r="3.043" fill="#3383FF"/><circle xmlns="http://www.w3.org/2000/svg" cx="100.435" cy="27.391" r="3.043" fill="#3383FF"/><circle xmlns="http://www.w3.org/2000/svg" cx="100.435" cy="319.565" r="3.043" fill="#3383FF"/><circle xmlns="http://www.w3.org/2000/svg" cx="51.739" cy="173.478" r="3.043" fill="#3383FF"/><circle xmlns="http://www.w3.org/2000/svg" cx="76.087" cy="222.174" r="3.043" fill="#3383FF"/><circle xmlns="http://www.w3.org/2000/svg" cx="27.391" cy="124.783" r="3.043" fill="#3383FF"/><circle xmlns="http://www.w3.org/2000/svg" cx="100.435" cy="76.087" r="3.043" fill="#3383FF"/><circle xmlns="http://www.w3.org/2000/svg" cx="51.739" cy="222.174" r="3.043" fill="#3383FF"/><circle xmlns="http://www.w3.org/2000/svg" cx="76.087" cy="270.87" r="3.043" fill="#3383FF"/><circle xmlns="http://www.w3.org/2000/svg" cx="27.391" cy="173.478" r="3.043" fill="#3383FF"/><circle xmlns="http://www.w3.org/2000/svg" cx="100.435" cy="368.261" r="3.043" fill="#3383FF"/><circle xmlns="http://www.w3.org/2000/svg" cx="100.435" cy="416.957" r="3.043" fill="#3383FF"/><circle xmlns="http://www.w3.org/2000/svg" cx="51.739" cy="270.87" r="3.043" fill="#3383FF"/><circle xmlns="http://www.w3.org/2000/svg" cx="76.087" cy="319.565" r="3.043" fill="#3383FF"/><circle xmlns="http://www.w3.org/2000/svg" cx="27.391" cy="222.174" r="3.043" fill="#3383FF"/><circle xmlns="http://www.w3.org/2000/svg" cx="3.043" cy="124.783" r="3.043" fill="#3383FF"/><circle xmlns="http://www.w3.org/2000/svg" cx="51.739" cy="319.565" r="3.043" fill="#3383FF"/><circle xmlns="http://www.w3.org/2000/svg" cx="27.391" cy="270.87" r="3.043" fill="#3383FF"/><circle xmlns="http://www.w3.org/2000/svg" cx="3.043" cy="173.478" r="3.043" fill="#3383FF"/><circle xmlns="http://www.w3.org/2000/svg" cx="27.391" cy="319.565" r="3.043" fill="#3383FF"/><circle xmlns="http://www.w3.org/2000/svg" cx="3.043" cy="222.174" r="3.043" fill="#3383FF"/><circle xmlns="http://www.w3.org/2000/svg" cx="3.043" cy="270.87" r="3.043" fill="#3383FF"/><circle xmlns="http://www.w3.org/2000/svg" cx="3.043" cy="319.565" r="3.043" fill="#3383FF"/><circle xmlns="http://www.w3.org/2000/svg" cx="76.087" cy="27.391" r="3.043" fill="#3383FF"/><circle xmlns="http://www.w3.org/2000/svg" cx="76.087" cy="76.087" r="3.043" fill="#3383FF"/><circle xmlns="http://www.w3.org/2000/svg" cx="76.087" cy="368.261" r="3.043" fill="#3383FF"/><circle xmlns="http://www.w3.org/2000/svg" cx="76.087" cy="416.957" r="3.043" fill="#3383FF"/><circle xmlns="http://www.w3.org/2000/svg" cx="51.739" cy="27.391" r="3.043" fill="#3383FF"/><circle xmlns="http://www.w3.org/2000/svg" cx="51.739" cy="76.087" r="3.043" fill="#3383FF"/><circle xmlns="http://www.w3.org/2000/svg" cx="51.739" cy="368.261" r="3.043" fill="#3383FF"/><circle xmlns="http://www.w3.org/2000/svg" cx="51.739" cy="416.957" r="3.043" fill="#3383FF"/><circle xmlns="http://www.w3.org/2000/svg" cx="27.391" cy="27.391" r="3.043" fill="#3383FF"/><circle xmlns="http://www.w3.org/2000/svg" cx="27.391" cy="76.087" r="3.043" fill="#3383FF"/><circle xmlns="http://www.w3.org/2000/svg" cx="27.391" cy="368.261" r="3.043" fill="#3383FF"/><circle xmlns="http://www.w3.org/2000/svg" cx="27.391" cy="416.957" r="3.043" fill="#3383FF"/><circle xmlns="http://www.w3.org/2000/svg" cx="3.043" cy="27.391" r="3.043" fill="#3383FF"/><circle xmlns="http://www.w3.org/2000/svg" cx="3.043" cy="76.087" r="3.043" fill="#3383FF"/><circle xmlns="http://www.w3.org/2000/svg" cx="3.043" cy="368.261" r="3.043" fill="#3383FF"/><circle xmlns="http://www.w3.org/2000/svg" cx="3.043" cy="416.957" r="3.043" fill="#3383FF"/>
		</g>
		<g id="points1">
			<circle xmlns="http://www.w3.org/2000/svg" cx="3.043" cy="150.043" r="3.043" fill="#3383FF" transform="rotate(-90 3.043 150.043)"/><circle xmlns="http://www.w3.org/2000/svg" cx="51.739" cy="150.043" r="3.043" fill="#3383FF" transform="rotate(-90 51.74 150.043)"/><circle xmlns="http://www.w3.org/2000/svg" cx="100.435" cy="150.043" r="3.043" fill="#3383FF" transform="rotate(-90 100.435 150.043)"/><circle xmlns="http://www.w3.org/2000/svg" cx="149.13" cy="150.043" r="3.043" fill="#3383FF" transform="rotate(-90 149.13 150.043)"/><circle xmlns="http://www.w3.org/2000/svg" cx="197.826" cy="150.043" r="3.043" fill="#3383FF" transform="rotate(-90 197.826 150.043)"/><circle xmlns="http://www.w3.org/2000/svg" cx="246.522" cy="150.043" r="3.043" fill="#3383FF" transform="rotate(-90 246.522 150.043)"/><circle xmlns="http://www.w3.org/2000/svg" cx="295.217" cy="150.043" r="3.043" fill="#3383FF" transform="rotate(-90 295.217 150.043)"/><circle xmlns="http://www.w3.org/2000/svg" cx="343.913" cy="150.043" r="3.043" fill="#3383FF" transform="rotate(-90 343.913 150.043)"/><circle xmlns="http://www.w3.org/2000/svg" cx="392.609" cy="150.043" r="3.043" fill="#3383FF" transform="rotate(-90 392.609 150.043)"/><circle xmlns="http://www.w3.org/2000/svg" cx="3.043" cy="174.391" r="3.043" fill="#3383FF" transform="rotate(-90 3.043 174.391)"/><circle xmlns="http://www.w3.org/2000/svg" cx="100.435" cy="174.391" r="3.043" fill="#3383FF" transform="rotate(-90 100.435 174.391)"/><circle xmlns="http://www.w3.org/2000/svg" cx="149.13" cy="174.391" r="3.043" fill="#3383FF" transform="rotate(-90 149.13 174.391)"/><circle xmlns="http://www.w3.org/2000/svg" cx="197.826" cy="174.391" r="3.043" fill="#3383FF" transform="rotate(-90 197.826 174.391)"/><circle xmlns="http://www.w3.org/2000/svg" cx="246.522" cy="174.391" r="3.043" fill="#3383FF" transform="rotate(-90 246.522 174.391)"/><circle xmlns="http://www.w3.org/2000/svg" cx="295.217" cy="174.391" r="3.043" fill="#3383FF" transform="rotate(-90 295.217 174.391)"/><circle xmlns="http://www.w3.org/2000/svg" cx="51.739" cy="174.391" r="3.043" fill="#3383FF" transform="rotate(-90 51.74 174.391)"/><circle xmlns="http://www.w3.org/2000/svg" cx="343.913" cy="174.391" r="3.043" fill="#3383FF" transform="rotate(-90 343.913 174.391)"/><circle xmlns="http://www.w3.org/2000/svg" cx="392.609" cy="174.391" r="3.043" fill="#3383FF" transform="rotate(-90 392.609 174.391)"/><circle xmlns="http://www.w3.org/2000/svg" cx="100.435" cy="198.739" r="3.043" fill="#3383FF" transform="rotate(-90 100.435 198.739)"/><circle xmlns="http://www.w3.org/2000/svg" cx="3.043" cy="198.739" r="3.043" fill="#3383FF" transform="rotate(-90 3.043 198.739)"/><circle xmlns="http://www.w3.org/2000/svg" cx="149.13" cy="198.739" r="3.043" fill="#3383FF" transform="rotate(-90 149.13 198.739)"/><circle xmlns="http://www.w3.org/2000/svg" cx="197.826" cy="198.739" r="3.043" fill="#3383FF" transform="rotate(-90 197.826 198.739)"/><circle xmlns="http://www.w3.org/2000/svg" cx="246.522" cy="198.739" r="3.043" fill="#3383FF" transform="rotate(-90 246.522 198.739)"/><circle xmlns="http://www.w3.org/2000/svg" cx="295.217" cy="198.739" r="3.043" fill="#3383FF" transform="rotate(-90 295.217 198.739)"/><circle xmlns="http://www.w3.org/2000/svg" cx="51.739" cy="198.739" r="3.043" fill="#3383FF" transform="rotate(-90 51.74 198.739)"/><circle xmlns="http://www.w3.org/2000/svg" cx="100.435" cy="223.087" r="3.043" fill="#3383FF" transform="rotate(-90 100.435 223.087)"/><circle xmlns="http://www.w3.org/2000/svg" cx="343.913" cy="198.739" r="3.043" fill="#3383FF" transform="rotate(-90 343.913 198.739)"/><circle xmlns="http://www.w3.org/2000/svg" cx="392.609" cy="198.739" r="3.043" fill="#3383FF" transform="rotate(-90 392.609 198.739)"/><circle xmlns="http://www.w3.org/2000/svg" cx="149.13" cy="223.087" r="3.043" fill="#3383FF" transform="rotate(-90 149.13 223.087)"/><circle xmlns="http://www.w3.org/2000/svg" cx="197.826" cy="223.087" r="3.043" fill="#3383FF" transform="rotate(-90 197.826 223.087)"/><circle xmlns="http://www.w3.org/2000/svg" cx="246.522" cy="223.087" r="3.043" fill="#3383FF" transform="rotate(-90 246.522 223.087)"/><circle xmlns="http://www.w3.org/2000/svg" cx="295.217" cy="223.087" r="3.043" fill="#3383FF" transform="rotate(-90 295.217 223.087)"/><circle xmlns="http://www.w3.org/2000/svg" cx="3.043" cy="223.087" r="3.043" fill="#3383FF" transform="rotate(-90 3.043 223.087)"/><circle xmlns="http://www.w3.org/2000/svg" cx="100.435" cy="247.435" r="3.043" fill="#3383FF" transform="rotate(-90 100.435 247.435)"/><circle xmlns="http://www.w3.org/2000/svg" cx="51.739" cy="223.087" r="3.043" fill="#3383FF" transform="rotate(-90 51.74 223.087)"/><circle xmlns="http://www.w3.org/2000/svg" cx="343.913" cy="223.087" r="3.043" fill="#3383FF" transform="rotate(-90 343.913 223.087)"/><circle xmlns="http://www.w3.org/2000/svg" cx="392.609" cy="223.087" r="3.043" fill="#3383FF" transform="rotate(-90 392.609 223.087)"/><circle xmlns="http://www.w3.org/2000/svg" cx="149.13" cy="247.435" r="3.043" fill="#3383FF" transform="rotate(-90 149.13 247.435)"/><circle xmlns="http://www.w3.org/2000/svg" cx="100.435" cy="271.783" r="3.043" fill="#3383FF" transform="rotate(-90 100.435 271.783)"/><circle xmlns="http://www.w3.org/2000/svg" cx="197.826" cy="247.435" r="3.043" fill="#3383FF" transform="rotate(-90 197.826 247.435)"/><circle xmlns="http://www.w3.org/2000/svg" cx="3.043" cy="247.435" r="3.043" fill="#3383FF" transform="rotate(-90 3.043 247.435)"/><circle xmlns="http://www.w3.org/2000/svg" cx="246.522" cy="247.435" r="3.043" fill="#3383FF" transform="rotate(-90 246.522 247.435)"/><circle xmlns="http://www.w3.org/2000/svg" cx="51.739" cy="247.435" r="3.043" fill="#3383FF" transform="rotate(-90 51.74 247.435)"/><circle xmlns="http://www.w3.org/2000/svg" cx="295.217" cy="247.435" r="3.043" fill="#3383FF" transform="rotate(-90 295.217 247.435)"/><circle xmlns="http://www.w3.org/2000/svg" cx="149.13" cy="271.783" r="3.043" fill="#3383FF" transform="rotate(-90 149.13 271.783)"/><circle xmlns="http://www.w3.org/2000/svg" cx="124.783" cy="150.043" r="3.043" fill="#3383FF" transform="rotate(-90 124.783 150.043)"/><circle xmlns="http://www.w3.org/2000/svg" cx="197.826" cy="271.783" r="3.043" fill="#3383FF" transform="rotate(-90 197.826 271.783)"/><circle xmlns="http://www.w3.org/2000/svg" cx="246.522" cy="271.783" r="3.043" fill="#3383FF" transform="rotate(-90 246.522 271.783)"/><circle xmlns="http://www.w3.org/2000/svg" cx="295.217" cy="271.783" r="3.043" fill="#3383FF" transform="rotate(-90 295.217 271.783)"/><circle xmlns="http://www.w3.org/2000/svg" cx="343.913" cy="247.435" r="3.043" fill="#3383FF" transform="rotate(-90 343.913 247.435)"/><circle xmlns="http://www.w3.org/2000/svg" cx="392.609" cy="247.435" r="3.043" fill="#3383FF" transform="rotate(-90 392.609 247.435)"/><circle xmlns="http://www.w3.org/2000/svg" cx="3.043" cy="271.783" r="3.043" fill="#3383FF" transform="rotate(-90 3.043 271.783)"/><circle xmlns="http://www.w3.org/2000/svg" cx="124.783" cy="174.391" r="3.043" fill="#3383FF" transform="rotate(-90 124.783 174.391)"/><circle xmlns="http://www.w3.org/2000/svg" cx="173.478" cy="150.043" r="3.043" fill="#3383FF" transform="rotate(-90 173.478 150.043)"/><circle xmlns="http://www.w3.org/2000/svg" cx="51.739" cy="271.783" r="3.043" fill="#3383FF" transform="rotate(-90 51.74 271.783)"/><circle xmlns="http://www.w3.org/2000/svg" cx="343.913" cy="271.783" r="3.043" fill="#3383FF" transform="rotate(-90 343.913 271.783)"/><circle xmlns="http://www.w3.org/2000/svg" cx="392.609" cy="271.783" r="3.043" fill="#3383FF" transform="rotate(-90 392.609 271.783)"/><circle xmlns="http://www.w3.org/2000/svg" cx="222.174" cy="150.043" r="3.043" fill="#3383FF" transform="rotate(-90 222.174 150.043)"/><circle xmlns="http://www.w3.org/2000/svg" cx="124.783" cy="198.739" r="3.043" fill="#3383FF" transform="rotate(-90 124.783 198.739)"/><circle xmlns="http://www.w3.org/2000/svg" cx="270.87" cy="150.043" r="3.043" fill="#3383FF" transform="rotate(-90 270.87 150.043)"/><circle xmlns="http://www.w3.org/2000/svg" cx="319.565" cy="150.043" r="3.043" fill="#3383FF" transform="rotate(-90 319.565 150.043)"/><circle xmlns="http://www.w3.org/2000/svg" cx="173.478" cy="174.391" r="3.043" fill="#3383FF" transform="rotate(-90 173.478 174.391)"/><circle xmlns="http://www.w3.org/2000/svg" cx="27.391" cy="150.043" r="3.043" fill="#3383FF" transform="rotate(-90 27.391 150.043)"/><circle xmlns="http://www.w3.org/2000/svg" cx="76.087" cy="150.043" r="3.043" fill="#3383FF" transform="rotate(-90 76.087 150.043)"/><circle xmlns="http://www.w3.org/2000/svg" cx="124.783" cy="223.087" r="3.043" fill="#3383FF" transform="rotate(-90 124.783 223.087)"/><circle xmlns="http://www.w3.org/2000/svg" cx="222.174" cy="174.391" r="3.043" fill="#3383FF" transform="rotate(-90 222.174 174.391)"/><circle xmlns="http://www.w3.org/2000/svg" cx="173.478" cy="198.739" r="3.043" fill="#3383FF" transform="rotate(-90 173.478 198.739)"/><circle xmlns="http://www.w3.org/2000/svg" cx="368.261" cy="150.043" r="3.043" fill="#3383FF" transform="rotate(-90 368.261 150.043)"/><circle xmlns="http://www.w3.org/2000/svg" cx="416.957" cy="150.043" r="3.043" fill="#3383FF" transform="rotate(-90 416.957 150.043)"/><circle xmlns="http://www.w3.org/2000/svg" cx="270.87" cy="174.391" r="3.043" fill="#3383FF" transform="rotate(-90 270.87 174.391)"/><circle xmlns="http://www.w3.org/2000/svg" cx="27.391" cy="174.391" r="3.043" fill="#3383FF" transform="rotate(-90 27.391 174.391)"/><circle xmlns="http://www.w3.org/2000/svg" cx="319.565" cy="174.391" r="3.043" fill="#3383FF" transform="rotate(-90 319.565 174.391)"/><circle xmlns="http://www.w3.org/2000/svg" cx="173.478" cy="223.087" r="3.043" fill="#3383FF" transform="rotate(-90 173.478 223.087)"/><circle xmlns="http://www.w3.org/2000/svg" cx="222.174" cy="198.739" r="3.043" fill="#3383FF" transform="rotate(-90 222.174 198.739)"/><circle xmlns="http://www.w3.org/2000/svg" cx="124.783" cy="247.435" r="3.043" fill="#3383FF" transform="rotate(-90 124.783 247.435)"/><circle xmlns="http://www.w3.org/2000/svg" cx="76.087" cy="174.391" r="3.043" fill="#3383FF" transform="rotate(-90 76.087 174.391)"/><circle xmlns="http://www.w3.org/2000/svg" cx="222.174" cy="223.087" r="3.043" fill="#3383FF" transform="rotate(-90 222.174 223.087)"/><circle xmlns="http://www.w3.org/2000/svg" cx="270.87" cy="198.739" r="3.043" fill="#3383FF" transform="rotate(-90 270.87 198.739)"/><circle xmlns="http://www.w3.org/2000/svg" cx="173.478" cy="247.435" r="3.043" fill="#3383FF" transform="rotate(-90 173.478 247.435)"/><circle xmlns="http://www.w3.org/2000/svg" cx="368.261" cy="174.391" r="3.043" fill="#3383FF" transform="rotate(-90 368.261 174.391)"/><circle xmlns="http://www.w3.org/2000/svg" cx="416.957" cy="174.391" r="3.043" fill="#3383FF" transform="rotate(-90 416.957 174.391)"/><circle xmlns="http://www.w3.org/2000/svg" cx="270.87" cy="223.087" r="3.043" fill="#3383FF" transform="rotate(-90 270.87 223.087)"/><circle xmlns="http://www.w3.org/2000/svg" cx="319.565" cy="198.739" r="3.043" fill="#3383FF" transform="rotate(-90 319.565 198.739)"/><circle xmlns="http://www.w3.org/2000/svg" cx="222.174" cy="247.435" r="3.043" fill="#3383FF" transform="rotate(-90 222.174 247.435)"/><circle xmlns="http://www.w3.org/2000/svg" cx="124.783" cy="271.783" r="3.043" fill="#3383FF" transform="rotate(-90 124.783 271.783)"/><circle xmlns="http://www.w3.org/2000/svg" cx="319.565" cy="223.087" r="3.043" fill="#3383FF" transform="rotate(-90 319.565 223.087)"/><circle xmlns="http://www.w3.org/2000/svg" cx="270.87" cy="247.435" r="3.043" fill="#3383FF" transform="rotate(-90 270.87 247.435)"/><circle xmlns="http://www.w3.org/2000/svg" cx="173.478" cy="271.783" r="3.043" fill="#3383FF" transform="rotate(-90 173.478 271.783)"/><circle xmlns="http://www.w3.org/2000/svg" cx="319.565" cy="247.435" r="3.043" fill="#3383FF" transform="rotate(-90 319.565 247.435)"/><circle xmlns="http://www.w3.org/2000/svg" cx="222.174" cy="271.783" r="3.043" fill="#3383FF" transform="rotate(-90 222.174 271.783)"/><circle xmlns="http://www.w3.org/2000/svg" cx="270.87" cy="271.783" r="3.043" fill="#3383FF" transform="rotate(-90 270.87 271.783)"/><circle xmlns="http://www.w3.org/2000/svg" cx="319.565" cy="271.783" r="3.043" fill="#3383FF" transform="rotate(-90 319.565 271.783)"/><circle xmlns="http://www.w3.org/2000/svg" cx="27.391" cy="198.739" r="3.043" fill="#3383FF" transform="rotate(-90 27.391 198.739)"/><circle xmlns="http://www.w3.org/2000/svg" cx="76.087" cy="198.739" r="3.043" fill="#3383FF" transform="rotate(-90 76.087 198.739)"/><circle xmlns="http://www.w3.org/2000/svg" cx="368.261" cy="198.739" r="3.043" fill="#3383FF" transform="rotate(-90 368.261 198.739)"/><circle xmlns="http://www.w3.org/2000/svg" cx="416.957" cy="198.739" r="3.043" fill="#3383FF" transform="rotate(-90 416.957 198.739)"/><circle xmlns="http://www.w3.org/2000/svg" cx="27.391" cy="223.087" r="3.043" fill="#3383FF" transform="rotate(-90 27.391 223.087)"/><circle xmlns="http://www.w3.org/2000/svg" cx="76.087" cy="223.087" r="3.043" fill="#3383FF" transform="rotate(-90 76.087 223.087)"/><circle xmlns="http://www.w3.org/2000/svg" cx="368.261" cy="223.087" r="3.043" fill="#3383FF" transform="rotate(-90 368.261 223.087)"/><circle xmlns="http://www.w3.org/2000/svg" cx="416.957" cy="223.087" r="3.043" fill="#3383FF" transform="rotate(-90 416.957 223.087)"/><circle xmlns="http://www.w3.org/2000/svg" cx="27.391" cy="247.435" r="3.043" fill="#3383FF" transform="rotate(-90 27.391 247.435)"/><circle xmlns="http://www.w3.org/2000/svg" cx="76.087" cy="247.435" r="3.043" fill="#3383FF" transform="rotate(-90 76.087 247.435)"/><circle xmlns="http://www.w3.org/2000/svg" cx="368.261" cy="247.435" r="3.043" fill="#3383FF" transform="rotate(-90 368.261 247.435)"/><circle xmlns="http://www.w3.org/2000/svg" cx="416.957" cy="247.435" r="3.043" fill="#3383FF" transform="rotate(-90 416.957 247.435)"/><circle xmlns="http://www.w3.org/2000/svg" cx="27.391" cy="271.783" r="3.043" fill="#3383FF" transform="rotate(-90 27.391 271.783)"/><circle xmlns="http://www.w3.org/2000/svg" cx="76.087" cy="271.783" r="3.043" fill="#3383FF" transform="rotate(-90 76.087 271.783)"/><circle xmlns="http://www.w3.org/2000/svg" cx="368.261" cy="271.783" r="3.043" fill="#3383FF" transform="rotate(-90 368.261 271.783)"/><circle xmlns="http://www.w3.org/2000/svg" cx="416.957" cy="271.783" r="3.043" fill="#3383FF" transform="rotate(-90 416.957 271.783)"/><circle xmlns="http://www.w3.org/2000/svg" cx="3.043" cy="3.043" r="3.043" fill="#3383FF" transform="rotate(-90 3.043 3.043)"/><circle xmlns="http://www.w3.org/2000/svg" cx="51.739" cy="3.043" r="3.043" fill="#3383FF" transform="rotate(-90 51.74 3.043)"/><circle xmlns="http://www.w3.org/2000/svg" cx="100.435" cy="3.043" r="3.043" fill="#3383FF" transform="rotate(-90 100.435 3.043)"/><circle xmlns="http://www.w3.org/2000/svg" cx="149.13" cy="3.043" r="3.043" fill="#3383FF" transform="rotate(-90 149.13 3.043)"/><circle xmlns="http://www.w3.org/2000/svg" cx="197.826" cy="3.043" r="3.043" fill="#3383FF" transform="rotate(-90 197.826 3.043)"/><circle xmlns="http://www.w3.org/2000/svg" cx="246.522" cy="3.043" r="3.043" fill="#3383FF" transform="rotate(-90 246.522 3.043)"/><circle xmlns="http://www.w3.org/2000/svg" cx="295.217" cy="3.043" r="3.043" fill="#3383FF" transform="rotate(-90 295.217 3.043)"/><circle xmlns="http://www.w3.org/2000/svg" cx="343.913" cy="3.043" r="3.043" fill="#3383FF" transform="rotate(-90 343.913 3.043)"/><circle xmlns="http://www.w3.org/2000/svg" cx="392.609" cy="3.043" r="3.043" fill="#3383FF" transform="rotate(-90 392.609 3.043)"/><circle xmlns="http://www.w3.org/2000/svg" cx="3.043" cy="27.391" r="3.043" fill="#3383FF" transform="rotate(-90 3.043 27.391)"/><circle xmlns="http://www.w3.org/2000/svg" cx="100.435" cy="27.391" r="3.043" fill="#3383FF" transform="rotate(-90 100.435 27.391)"/><circle xmlns="http://www.w3.org/2000/svg" cx="149.13" cy="27.391" r="3.043" fill="#3383FF" transform="rotate(-90 149.13 27.391)"/><circle xmlns="http://www.w3.org/2000/svg" cx="197.826" cy="27.391" r="3.043" fill="#3383FF" transform="rotate(-90 197.826 27.391)"/><circle xmlns="http://www.w3.org/2000/svg" cx="246.522" cy="27.391" r="3.043" fill="#3383FF" transform="rotate(-90 246.522 27.391)"/><circle xmlns="http://www.w3.org/2000/svg" cx="295.217" cy="27.391" r="3.043" fill="#3383FF" transform="rotate(-90 295.217 27.391)"/><circle xmlns="http://www.w3.org/2000/svg" cx="51.739" cy="27.391" r="3.043" fill="#3383FF" transform="rotate(-90 51.74 27.391)"/><circle xmlns="http://www.w3.org/2000/svg" cx="343.913" cy="27.391" r="3.043" fill="#3383FF" transform="rotate(-90 343.913 27.391)"/><circle xmlns="http://www.w3.org/2000/svg" cx="392.609" cy="27.391" r="3.043" fill="#3383FF" transform="rotate(-90 392.609 27.391)"/><circle xmlns="http://www.w3.org/2000/svg" cx="100.435" cy="51.739" r="3.043" fill="#3383FF" transform="rotate(-90 100.435 51.74)"/><circle xmlns="http://www.w3.org/2000/svg" cx="3.043" cy="51.739" r="3.043" fill="#3383FF" transform="rotate(-90 3.043 51.74)"/><circle xmlns="http://www.w3.org/2000/svg" cx="149.13" cy="51.739" r="3.043" fill="#3383FF" transform="rotate(-90 149.13 51.74)"/><circle xmlns="http://www.w3.org/2000/svg" cx="197.826" cy="51.739" r="3.043" fill="#3383FF" transform="rotate(-90 197.826 51.74)"/><circle xmlns="http://www.w3.org/2000/svg" cx="246.522" cy="51.739" r="3.043" fill="#3383FF" transform="rotate(-90 246.522 51.74)"/><circle xmlns="http://www.w3.org/2000/svg" cx="295.217" cy="51.739" r="3.043" fill="#3383FF" transform="rotate(-90 295.217 51.74)"/><circle xmlns="http://www.w3.org/2000/svg" cx="51.739" cy="51.739" r="3.043" fill="#3383FF" transform="rotate(-90 51.74 51.74)"/><circle xmlns="http://www.w3.org/2000/svg" cx="100.435" cy="76.087" r="3.043" fill="#3383FF" transform="rotate(-90 100.435 76.087)"/><circle xmlns="http://www.w3.org/2000/svg" cx="343.913" cy="51.739" r="3.043" fill="#3383FF" transform="rotate(-90 343.913 51.74)"/><circle xmlns="http://www.w3.org/2000/svg" cx="392.609" cy="51.739" r="3.043" fill="#3383FF" transform="rotate(-90 392.609 51.74)"/><circle xmlns="http://www.w3.org/2000/svg" cx="149.13" cy="76.087" r="3.043" fill="#3383FF" transform="rotate(-90 149.13 76.087)"/><circle xmlns="http://www.w3.org/2000/svg" cx="197.826" cy="76.087" r="3.043" fill="#3383FF" transform="rotate(-90 197.826 76.087)"/><circle xmlns="http://www.w3.org/2000/svg" cx="246.522" cy="76.087" r="3.043" fill="#3383FF" transform="rotate(-90 246.522 76.087)"/><circle xmlns="http://www.w3.org/2000/svg" cx="295.217" cy="76.087" r="3.043" fill="#3383FF" transform="rotate(-90 295.217 76.087)"/><circle xmlns="http://www.w3.org/2000/svg" cx="3.043" cy="76.087" r="3.043" fill="#3383FF" transform="rotate(-90 3.043 76.087)"/><circle xmlns="http://www.w3.org/2000/svg" cx="100.435" cy="100.435" r="3.043" fill="#3383FF" transform="rotate(-90 100.435 100.435)"/><circle xmlns="http://www.w3.org/2000/svg" cx="51.739" cy="76.087" r="3.043" fill="#3383FF" transform="rotate(-90 51.74 76.087)"/><circle xmlns="http://www.w3.org/2000/svg" cx="343.913" cy="76.087" r="3.043" fill="#3383FF" transform="rotate(-90 343.913 76.087)"/><circle xmlns="http://www.w3.org/2000/svg" cx="392.609" cy="76.087" r="3.043" fill="#3383FF" transform="rotate(-90 392.609 76.087)"/><circle xmlns="http://www.w3.org/2000/svg" cx="149.13" cy="100.435" r="3.043" fill="#3383FF" transform="rotate(-90 149.13 100.435)"/><circle xmlns="http://www.w3.org/2000/svg" cx="100.435" cy="124.783" r="3.043" fill="#3383FF" transform="rotate(-90 100.435 124.783)"/><circle xmlns="http://www.w3.org/2000/svg" cx="197.826" cy="100.435" r="3.043" fill="#3383FF" transform="rotate(-90 197.826 100.435)"/><circle xmlns="http://www.w3.org/2000/svg" cx="3.043" cy="100.435" r="3.043" fill="#3383FF" transform="rotate(-90 3.043 100.435)"/><circle xmlns="http://www.w3.org/2000/svg" cx="246.522" cy="100.435" r="3.043" fill="#3383FF" transform="rotate(-90 246.522 100.435)"/><circle xmlns="http://www.w3.org/2000/svg" cx="51.739" cy="100.435" r="3.043" fill="#3383FF" transform="rotate(-90 51.74 100.435)"/><circle xmlns="http://www.w3.org/2000/svg" cx="295.217" cy="100.435" r="3.043" fill="#3383FF" transform="rotate(-90 295.217 100.435)"/><circle xmlns="http://www.w3.org/2000/svg" cx="149.13" cy="124.783" r="3.043" fill="#3383FF" transform="rotate(-90 149.13 124.783)"/><circle xmlns="http://www.w3.org/2000/svg" cx="124.783" cy="3.043" r="3.043" fill="#3383FF" transform="rotate(-90 124.783 3.043)"/><circle xmlns="http://www.w3.org/2000/svg" cx="197.826" cy="124.783" r="3.043" fill="#3383FF" transform="rotate(-90 197.826 124.783)"/><circle xmlns="http://www.w3.org/2000/svg" cx="246.522" cy="124.783" r="3.043" fill="#3383FF" transform="rotate(-90 246.522 124.783)"/><circle xmlns="http://www.w3.org/2000/svg" cx="295.217" cy="124.783" r="3.043" fill="#3383FF" transform="rotate(-90 295.217 124.783)"/><circle xmlns="http://www.w3.org/2000/svg" cx="343.913" cy="100.435" r="3.043" fill="#3383FF" transform="rotate(-90 343.913 100.435)"/><circle xmlns="http://www.w3.org/2000/svg" cx="392.609" cy="100.435" r="3.043" fill="#3383FF" transform="rotate(-90 392.609 100.435)"/><circle xmlns="http://www.w3.org/2000/svg" cx="3.043" cy="124.783" r="3.043" fill="#3383FF" transform="rotate(-90 3.043 124.783)"/><circle xmlns="http://www.w3.org/2000/svg" cx="124.783" cy="27.391" r="3.043" fill="#3383FF" transform="rotate(-90 124.783 27.391)"/><circle xmlns="http://www.w3.org/2000/svg" cx="173.478" cy="3.043" r="3.043" fill="#3383FF" transform="rotate(-90 173.478 3.043)"/><circle xmlns="http://www.w3.org/2000/svg" cx="51.739" cy="124.783" r="3.043" fill="#3383FF" transform="rotate(-90 51.74 124.783)"/><circle xmlns="http://www.w3.org/2000/svg" cx="343.913" cy="124.783" r="3.043" fill="#3383FF" transform="rotate(-90 343.913 124.783)"/><circle xmlns="http://www.w3.org/2000/svg" cx="392.609" cy="124.783" r="3.043" fill="#3383FF" transform="rotate(-90 392.609 124.783)"/><circle xmlns="http://www.w3.org/2000/svg" cx="222.174" cy="3.043" r="3.043" fill="#3383FF" transform="rotate(-90 222.174 3.043)"/><circle xmlns="http://www.w3.org/2000/svg" cx="124.783" cy="51.739" r="3.043" fill="#3383FF" transform="rotate(-90 124.783 51.74)"/><circle xmlns="http://www.w3.org/2000/svg" cx="270.87" cy="3.043" r="3.043" fill="#3383FF" transform="rotate(-90 270.87 3.043)"/><circle xmlns="http://www.w3.org/2000/svg" cx="319.565" cy="3.043" r="3.043" fill="#3383FF" transform="rotate(-90 319.565 3.043)"/><circle xmlns="http://www.w3.org/2000/svg" cx="173.478" cy="27.391" r="3.043" fill="#3383FF" transform="rotate(-90 173.478 27.391)"/><circle xmlns="http://www.w3.org/2000/svg" cx="27.391" cy="3.043" r="3.043" fill="#3383FF" transform="rotate(-90 27.391 3.043)"/><circle xmlns="http://www.w3.org/2000/svg" cx="76.087" cy="3.043" r="3.043" fill="#3383FF" transform="rotate(-90 76.087 3.043)"/><circle xmlns="http://www.w3.org/2000/svg" cx="124.783" cy="76.087" r="3.043" fill="#3383FF" transform="rotate(-90 124.783 76.087)"/><circle xmlns="http://www.w3.org/2000/svg" cx="222.174" cy="27.391" r="3.043" fill="#3383FF" transform="rotate(-90 222.174 27.391)"/><circle xmlns="http://www.w3.org/2000/svg" cx="173.478" cy="51.739" r="3.043" fill="#3383FF" transform="rotate(-90 173.478 51.74)"/><circle xmlns="http://www.w3.org/2000/svg" cx="368.261" cy="3.043" r="3.043" fill="#3383FF" transform="rotate(-90 368.261 3.043)"/><circle xmlns="http://www.w3.org/2000/svg" cx="416.957" cy="3.043" r="3.043" fill="#3383FF" transform="rotate(-90 416.957 3.043)"/><circle xmlns="http://www.w3.org/2000/svg" cx="270.87" cy="27.391" r="3.043" fill="#3383FF" transform="rotate(-90 270.87 27.391)"/><circle xmlns="http://www.w3.org/2000/svg" cx="27.391" cy="27.391" r="3.043" fill="#3383FF" transform="rotate(-90 27.391 27.391)"/><circle xmlns="http://www.w3.org/2000/svg" cx="319.565" cy="27.391" r="3.043" fill="#3383FF" transform="rotate(-90 319.565 27.391)"/><circle xmlns="http://www.w3.org/2000/svg" cx="173.478" cy="76.087" r="3.043" fill="#3383FF" transform="rotate(-90 173.478 76.087)"/><circle xmlns="http://www.w3.org/2000/svg" cx="222.174" cy="51.739" r="3.043" fill="#3383FF" transform="rotate(-90 222.174 51.74)"/><circle xmlns="http://www.w3.org/2000/svg" cx="124.783" cy="100.435" r="3.043" fill="#3383FF" transform="rotate(-90 124.783 100.435)"/><circle xmlns="http://www.w3.org/2000/svg" cx="76.087" cy="27.391" r="3.043" fill="#3383FF" transform="rotate(-90 76.087 27.391)"/><circle xmlns="http://www.w3.org/2000/svg" cx="222.174" cy="76.087" r="3.043" fill="#3383FF" transform="rotate(-90 222.174 76.087)"/><circle xmlns="http://www.w3.org/2000/svg" cx="270.87" cy="51.739" r="3.043" fill="#3383FF" transform="rotate(-90 270.87 51.74)"/><circle xmlns="http://www.w3.org/2000/svg" cx="173.478" cy="100.435" r="3.043" fill="#3383FF" transform="rotate(-90 173.478 100.435)"/><circle xmlns="http://www.w3.org/2000/svg" cx="368.261" cy="27.391" r="3.043" fill="#3383FF" transform="rotate(-90 368.261 27.391)"/><circle xmlns="http://www.w3.org/2000/svg" cx="416.957" cy="27.391" r="3.043" fill="#3383FF" transform="rotate(-90 416.957 27.391)"/><circle xmlns="http://www.w3.org/2000/svg" cx="270.87" cy="76.087" r="3.043" fill="#3383FF" transform="rotate(-90 270.87 76.087)"/><circle xmlns="http://www.w3.org/2000/svg" cx="319.565" cy="51.739" r="3.043" fill="#3383FF" transform="rotate(-90 319.565 51.74)"/><circle xmlns="http://www.w3.org/2000/svg" cx="222.174" cy="100.435" r="3.043" fill="#3383FF" transform="rotate(-90 222.174 100.435)"/><circle xmlns="http://www.w3.org/2000/svg" cx="124.783" cy="124.783" r="3.043" fill="#3383FF" transform="rotate(-90 124.783 124.783)"/><circle xmlns="http://www.w3.org/2000/svg" cx="319.565" cy="76.087" r="3.043" fill="#3383FF" transform="rotate(-90 319.565 76.087)"/><circle xmlns="http://www.w3.org/2000/svg" cx="270.87" cy="100.435" r="3.043" fill="#3383FF" transform="rotate(-90 270.87 100.435)"/><circle xmlns="http://www.w3.org/2000/svg" cx="173.478" cy="124.783" r="3.043" fill="#3383FF" transform="rotate(-90 173.478 124.783)"/><circle xmlns="http://www.w3.org/2000/svg" cx="319.565" cy="100.435" r="3.043" fill="#3383FF" transform="rotate(-90 319.565 100.435)"/><circle xmlns="http://www.w3.org/2000/svg" cx="222.174" cy="124.783" r="3.043" fill="#3383FF" transform="rotate(-90 222.174 124.783)"/><circle xmlns="http://www.w3.org/2000/svg" cx="270.87" cy="124.783" r="3.043" fill="#3383FF" transform="rotate(-90 270.87 124.783)"/><circle xmlns="http://www.w3.org/2000/svg" cx="319.565" cy="124.783" r="3.043" fill="#3383FF" transform="rotate(-90 319.565 124.783)"/><circle xmlns="http://www.w3.org/2000/svg" cx="27.391" cy="51.739" r="3.043" fill="#3383FF" transform="rotate(-90 27.391 51.74)"/><circle xmlns="http://www.w3.org/2000/svg" cx="76.087" cy="51.739" r="3.043" fill="#3383FF" transform="rotate(-90 76.087 51.74)"/><circle xmlns="http://www.w3.org/2000/svg" cx="368.261" cy="51.739" r="3.043" fill="#3383FF" transform="rotate(-90 368.261 51.74)"/><circle xmlns="http://www.w3.org/2000/svg" cx="416.957" cy="51.739" r="3.043" fill="#3383FF" transform="rotate(-90 416.957 51.74)"/><circle xmlns="http://www.w3.org/2000/svg" cx="27.391" cy="76.087" r="3.043" fill="#3383FF" transform="rotate(-90 27.391 76.087)"/><circle xmlns="http://www.w3.org/2000/svg" cx="76.087" cy="76.087" r="3.043" fill="#3383FF" transform="rotate(-90 76.087 76.087)"/><circle xmlns="http://www.w3.org/2000/svg" cx="368.261" cy="76.087" r="3.043" fill="#3383FF" transform="rotate(-90 368.261 76.087)"/><circle xmlns="http://www.w3.org/2000/svg" cx="416.957" cy="76.087" r="3.043" fill="#3383FF" transform="rotate(-90 416.957 76.087)"/><circle xmlns="http://www.w3.org/2000/svg" cx="27.391" cy="100.435" r="3.043" fill="#3383FF" transform="rotate(-90 27.391 100.435)"/><circle xmlns="http://www.w3.org/2000/svg" cx="76.087" cy="100.435" r="3.043" fill="#3383FF" transform="rotate(-90 76.087 100.435)"/><circle xmlns="http://www.w3.org/2000/svg" cx="368.261" cy="100.435" r="3.043" fill="#3383FF" transform="rotate(-90 368.261 100.435)"/><circle xmlns="http://www.w3.org/2000/svg" cx="416.957" cy="100.435" r="3.043" fill="#3383FF" transform="rotate(-90 416.957 100.435)"/><circle xmlns="http://www.w3.org/2000/svg" cx="27.391" cy="124.783" r="3.043" fill="#3383FF" transform="rotate(-90 27.391 124.783)"/><circle xmlns="http://www.w3.org/2000/svg" cx="76.087" cy="124.783" r="3.043" fill="#3383FF" transform="rotate(-90 76.087 124.783)"/><circle xmlns="http://www.w3.org/2000/svg" cx="368.261" cy="124.783" r="3.043" fill="#3383FF" transform="rotate(-90 368.261 124.783)"/><circle xmlns="http://www.w3.org/2000/svg" cx="416.957" cy="124.783" r="3.043" fill="#3383FF" transform="rotate(-90 416.957 124.783)"/>
		</g>
		<g id="logo">
			<path xmlns="http://www.w3.org/2000/svg" fill="#373435" d="M9.02159 11.5289H1.39342C0.623856 11.5289 0 12.1528 0 12.9224V20.5505C0 21.3201 0.623856 21.9439 1.39342 21.9439H9.02159C9.79115 21.9439 10.415 21.3201 10.415 20.5505V12.9224C10.415 12.1528 9.79115 11.5289 9.02159 11.5289Z"/><path xmlns="http://www.w3.org/2000/svg" fill="#FEFEFE" d="M20.5484 0H12.9203C12.1507 0 11.5269 0.623856 11.5269 1.39342V9.02159C11.5269 9.79115 12.1507 10.415 12.9203 10.415H20.5484C21.318 10.415 21.9419 9.79115 21.9419 9.02159V1.39342C21.9419 0.623856 21.318 0 20.5484 0Z"/><path xmlns="http://www.w3.org/2000/svg" fill="#373435" d="M20.5484 11.5289H12.9203C12.1507 11.5289 11.5269 12.1528 11.5269 12.9224V20.5505C11.5269 21.3201 12.1507 21.9439 12.9203 21.9439H20.5484C21.318 21.9439 21.9419 21.3201 21.9419 20.5505V12.9224C21.9419 12.1528 21.318 11.5289 20.5484 11.5289Z"/><path xmlns="http://www.w3.org/2000/svg" fill="#373435" d="M20.5484 23.056H12.9203C12.1507 23.056 11.5269 23.6799 11.5269 24.4495V32.0776C11.5269 32.8472 12.1507 33.471 12.9203 33.471H20.5484C21.318 33.471 21.9419 32.8472 21.9419 32.0776V24.4495C21.9419 23.6799 21.318 23.056 20.5484 23.056Z"/><path xmlns="http://www.w3.org/2000/svg" fill="#373435" d="M20.5484 34.585H12.9203C12.1507 34.585 11.5269 35.2088 11.5269 35.9784V43.6065C11.5269 44.3761 12.1507 45 12.9203 45H20.5484C21.318 45 21.9419 44.3761 21.9419 43.6065V35.9784C21.9419 35.2088 21.318 34.585 20.5484 34.585Z"/><path xmlns="http://www.w3.org/2000/svg" fill="#FEFEFE" d="M32.0777 0H24.4496C23.68 0 23.0562 0.623856 23.0562 1.39342V9.02159C23.0562 9.79115 23.68 10.415 24.4496 10.415H32.0777C32.8473 10.415 33.4712 9.79115 33.4712 9.02159V1.39342C33.4712 0.623856 32.8473 0 32.0777 0Z"/><path xmlns="http://www.w3.org/2000/svg" fill="#373435" d="M32.0777 11.5289H24.4496C23.68 11.5289 23.0562 12.1528 23.0562 12.9224V20.5505C23.0562 21.3201 23.68 21.9439 24.4496 21.9439H32.0777C32.8473 21.9439 33.4712 21.3201 33.4712 20.5505V12.9224C33.4712 12.1528 32.8473 11.5289 32.0777 11.5289Z"/><path xmlns="http://www.w3.org/2000/svg" fill="#FEFEFE" d="M32.0777 23.056H24.4496C23.68 23.056 23.0562 23.6799 23.0562 24.4495V32.0776C23.0562 32.8472 23.68 33.471 24.4496 33.471H32.0777C32.8473 33.471 33.4712 32.8472 33.4712 32.0776V24.4495C33.4712 23.6799 32.8473 23.056 32.0777 23.056Z"/><path xmlns="http://www.w3.org/2000/svg" fill="#FEFEFE" d="M43.6065 0H35.9784C35.2088 0 34.585 0.623856 34.585 1.39342V9.02159C34.585 9.79115 35.2088 10.415 35.9784 10.415H43.6065C44.3761 10.415 45 9.79115 45 9.02159V1.39342C45 0.623856 44.3761 0 43.6065 0Z"/><path xmlns="http://www.w3.org/2000/svg" fill="#FEFEFE" d="M43.6065 11.5289H35.9784C35.2088 11.5289 34.585 12.1528 34.585 12.9224V20.5505C34.585 21.3201 35.2088 21.9439 35.9784 21.9439H43.6065C44.3761 21.9439 45 21.3201 45 20.5505V12.9224C45 12.1528 44.3761 11.5289 43.6065 11.5289Z"/><path xmlns="http://www.w3.org/2000/svg" fill="#FEFEFE" d="M43.6065 23.056H35.9784C35.2088 23.056 34.585 23.6799 34.585 24.4495V32.0776C34.585 32.8472 35.2088 33.471 35.9784 33.471H43.6065C44.3761 33.471 45 32.8472 45 32.0776V24.4495C45 23.6799 44.3761 23.056 43.6065 23.056Z"/>
		</g>
	</defs>
</svg>
