<svg width="35" height="35" viewBox="0 0 35 35" fill="none" xmlns="http://www.w3.org/2000/svg">
<path d="M35 17.5V4.42948L31.8895 7.53997C28.7301 2.98416 23.464 0 17.5 0L13.3984 4.67455L17.5 9.3491C20.9012 9.3491 23.8152 11.4325 25.037 14.3925L21.9295 17.5H35Z" fill="#16A5D9"/>
<path d="M4.42948 0L7.53997 3.11049C2.98416 6.26985 0 11.536 0 17.5L4.67455 20.5762L9.3491 17.5C9.3491 14.0988 11.4325 11.1848 14.3925 9.96297L17.5 13.0705V0H4.42948Z" fill="#4AD0FF"/>
<path d="M9.96297 20.6075L13.0705 17.5H0V30.5705L3.11049 27.46C6.26985 32.0158 11.536 35 17.5 35V25.651C14.0988 25.651 11.1848 23.5675 9.96297 20.6075Z" fill="#D0CDCD"/>
</svg>
