<svg width="87" height="102" viewBox="0 0 87 102" fill="none" xmlns="http://www.w3.org/2000/svg">
<g clip-path="url(#clip0_220_2040)">
<path d="M17.3829 76.0504L8.69141 70.9961V81.1047V70.9961L17.3829 76.0504Z" fill="#1E1E1E"/>
<path d="M26.0743 81.1047L17.3828 76.0504V86.159V76.0504L26.0743 81.1047Z" fill="#1E1E1E"/>
<path d="M34.2544 85.9019L33.7432 85.5592L26.0742 81.1046V91.2132V81.1046L34.2544 85.9019Z" fill="#1E1E1E"/>
<path d="M43.4576 91.2132L34.7661 86.1589V96.2675V86.1589L43.4576 91.2132Z" fill="#1E1E1E"/>
<path d="M8.69141 50.7789L14.7414 54.3769L8.69141 50.7789V60.8875V50.7789Z" fill="#1E1E1E"/>
<path d="M17.3828 55.8333L23.6884 59.5169L19.6835 57.2039L17.3828 55.8333V65.9418V55.8333Z" fill="#1E1E1E"/>
<path d="M26.0742 60.8875L33.7432 65.3421L32.465 64.6567L26.0742 60.8875V70.996V60.8875Z" fill="#1E1E1E"/>
<path d="M34.7661 65.9418L43.4576 70.9961L34.7661 65.9418V76.0503V65.9418Z" fill="#1E1E1E"/>
<path d="M8.69141 30.6475V40.756V30.6475L15.1674 34.3311L12.6963 32.9604L8.69141 30.6475Z" fill="#1E1E1E"/>
<path d="M17.3828 35.7018V45.8103V35.7018L24.3701 39.7281L22.4954 38.6144L17.3828 35.7018Z" fill="#1E1E1E"/>
<path d="M26.0742 40.7561V50.779V40.7561L32.5502 44.4397L30.1643 43.0691L26.0742 40.7561Z" fill="#1E1E1E"/>
<path d="M34.7661 45.8103V55.8332V45.8103L43.4576 50.7789L34.7661 45.8103Z" fill="#1E1E1E"/>
<path fill-rule="evenodd" clip-rule="evenodd" d="M78.3086 30.6474L87.0001 25.5931V35.7017L78.3086 40.756L69.6172 45.8103L60.9257 50.7789L52.2342 55.8332L43.4575 60.8875V50.7789L52.2342 45.8103L60.9257 40.756L69.6172 35.7017L74.0481 33.1317L78.3086 30.6474ZM69.6172 55.8333L60.9257 60.8875L52.2342 65.9418L43.4575 70.9961V81.1047L52.2342 76.0504L60.9257 70.9961L69.6172 65.9418L78.3086 60.8875L87.0001 55.8333V45.8104L78.3086 50.779L69.6172 55.8333ZM69.6172 76.0504L60.9257 81.1047L52.2342 86.159L43.4575 91.2132V101.322L52.2342 96.2675L60.9257 91.2132L69.6172 86.159L78.3086 81.1047L87.0001 76.0504V65.9418L78.3086 70.9961L69.6172 76.0504Z" fill="url(#paint0_linear_220_2040)"/>
<path fill-rule="evenodd" clip-rule="evenodd" d="M60.9256 50.7791L69.617 45.8105L78.3085 40.7562L87 45.8105L78.3085 50.7791L69.617 55.8334L60.9256 60.8877L52.2341 65.942L48.4848 68.0836L43.4574 70.9963L34.7659 65.942L33.7434 65.3423L32.4652 64.657L26.0744 60.8877L23.6885 59.517L19.6836 57.2041L17.383 55.8334L14.7414 54.3771L8.69148 50.7791L6.04995 49.3228L0 45.8105L8.69148 40.7562L17.383 45.8105L19.6836 47.0955L26.0744 50.7791L30.5906 53.4348L34.7659 55.8334L43.4574 60.8877L52.2341 55.8334L60.9256 50.7791ZM60.9256 70.9963L69.617 65.942L78.3085 60.8877L87 65.942L78.3085 70.9963L69.617 76.0505L60.9256 81.1048L52.2341 86.1591L43.4574 91.2134L34.7659 86.1591L34.2547 85.9021L33.7434 85.5595L26.0744 81.1048L17.383 76.0505L8.69148 70.9963L0 65.942L8.69148 60.8877L17.383 65.942L20.7062 67.9123L26.0744 70.9963L34.7659 76.0505L43.4574 81.1048L52.2341 76.0505L60.9256 70.9963Z" fill="url(#paint1_linear_220_2040)"/>
<path d="M78.3087 70.9961L69.6172 76.0504L78.3087 70.9961Z" fill="#5E5E5E"/>
<path d="M69.6173 76.0504L60.9258 81.1047L69.6173 76.0504Z" fill="#5E5E5E"/>
<path d="M60.9254 81.1046L52.2339 86.1589L60.9254 81.1046Z" fill="#5E5E5E"/>
<path d="M52.2342 86.1589L43.4575 91.2132L52.2342 86.1589Z" fill="#5E5E5E"/>
<path d="M78.3087 50.7789L69.6172 55.8332L78.3087 50.7789Z" fill="#5E5E5E"/>
<path d="M69.6173 55.8333L60.9258 60.8875L69.6173 55.8333Z" fill="#5E5E5E"/>
<path d="M60.9254 60.8875L52.2339 65.9417L60.9254 60.8875Z" fill="#5E5E5E"/>
<path d="M48.4849 68.0834L43.4575 70.9961L52.2342 65.9418L48.4849 68.0834Z" fill="#5E5E5E"/>
<path fill-rule="evenodd" clip-rule="evenodd" d="M17.383 45.8103L8.69148 40.756L0 35.7017V25.5931L8.69148 30.6474L15.1675 34.3311L17.383 35.7017L24.3702 39.728L26.0744 40.756L32.5504 44.4396L34.7659 45.8103L43.4574 50.7789V60.8875L34.7659 55.8332L30.5906 53.4345L26.0744 50.7789L19.6836 47.0953L17.383 45.8103ZM8.69148 60.8875L17.383 65.9418L20.7062 67.9121L26.0744 70.9961L34.7659 76.0504L43.4574 81.1047V70.9961L34.7659 65.9418L33.7434 65.3422L26.0744 60.8875L23.6885 59.5169L17.383 55.8333L14.7414 54.3769L8.69148 50.779L6.04995 49.3227L0 45.8104V55.8333L8.69148 60.8875ZM8.69144 70.996L0 65.9418V76.0504L8.69144 81.1046L8.69148 81.1047L17.3829 86.1589V76.0503L8.69148 70.9961L8.69144 70.996ZM17.383 76.0502L26.0744 81.1044L26.0745 81.1045L34.2546 85.9017L34.7659 86.1587V96.2673L26.0745 91.2131L26.0744 91.213L17.383 86.1588V76.0502ZM34.766 86.159L43.4574 91.2133V101.322L34.766 96.2676V86.159Z" fill="url(#paint2_linear_220_2040)"/>
<path d="M78.3084 30.6475L74.0479 33.1318L78.3084 30.6475Z" fill="#5E5E5E"/>
<path d="M60.9258 40.7561L69.6173 35.7018L64.4194 38.7001L60.9258 40.7561Z" fill="#5E5E5E"/>
<path d="M60.9254 40.7561L52.2339 45.8104L60.9254 40.7561Z" fill="#5E5E5E"/>
<path d="M52.2342 45.8103L43.4575 50.7789L52.2342 45.8103Z" fill="#5E5E5E"/>
<path d="M8.69148 30.6475L12.6964 32.9604L15.1675 34.3311L17.383 35.7018L22.4956 38.6144L24.3702 39.7281L26.0744 40.756L30.1645 43.069L32.5504 44.4397L34.7659 45.8103L43.4574 50.7789L52.2341 45.8103L60.9256 40.756L64.4192 38.7001L69.617 35.7018L74.048 33.1318L78.3085 30.6475L87 25.5932L80.8648 21.9952L78.3085 20.5389L72.855 17.3693L69.617 15.4846L65.2713 13.0003L60.9256 10.4303L58.7101 9.14536L52.2341 5.37606L43.4574 0.321777L34.7659 5.37606L26.0744 10.4303L17.383 15.4846L8.69148 20.5389L0 25.5932L8.69148 30.6475Z" fill="url(#paint3_linear_220_2040)"/>
</g>
<defs>
<linearGradient id="paint0_linear_220_2040" x1="65.2288" y1="25.5931" x2="65.2288" y2="101.322" gradientUnits="userSpaceOnUse">
<stop stop-color="#5957AD"/>
<stop offset="1" stop-color="#060292" stop-opacity="0.24"/>
</linearGradient>
<linearGradient id="paint1_linear_220_2040" x1="43.5" y1="40.7562" x2="43.5" y2="91.2134" gradientUnits="userSpaceOnUse">
<stop stop-color="#7EA0F5"/>
<stop offset="1" stop-color="#A2BDFF" stop-opacity="0.32"/>
</linearGradient>
<linearGradient id="paint2_linear_220_2040" x1="22.1547" y1="0.321724" x2="21.7242" y2="101.322" gradientUnits="userSpaceOnUse">
<stop stop-color="#6845C2"/>
<stop offset="1" stop-color="#190B76" stop-opacity="0.07"/>
</linearGradient>
<linearGradient id="paint3_linear_220_2040" x1="21.7287" y1="4.60506" x2="103.3" y2="48.3598" gradientUnits="userSpaceOnUse">
<stop stop-color="#5F44C0"/>
<stop offset="1" stop-color="#085B9C" stop-opacity="0.1"/>
</linearGradient>
<clipPath id="clip0_220_2040">
<rect width="87" height="101" fill="white" transform="translate(0 0.321777)"/>
</clipPath>
</defs>
</svg>
