<svg width="87" height="101" viewBox="0 0 87 101" fill="none" xmlns="http://www.w3.org/2000/svg">
<path d="M17.3829 65.62L8.69141 60.5657V70.6742V80.7828L17.3829 75.7285L26.0744 70.6742L17.3829 65.62Z" fill="#86A8FD"/>
<path d="M34.7657 85.8372L26.0742 80.7829L34.7657 75.7286L26.0742 80.7829V90.8915V80.7829L34.7657 85.8372Z" fill="#1E1E1E"/>
<path d="M43.4576 80.7828L34.7661 85.8371L43.4576 90.8914L34.7661 85.8371L43.4576 80.7828Z" fill="#1E1E1E"/>
<path d="M17.3829 45.4885L8.69141 50.4571V60.5657V50.4571L17.3829 55.5114L8.69141 50.4571L17.3829 45.4885Z" fill="#1E1E1E"/>
<path d="M26.0743 50.4572L17.3828 55.5114V65.62V55.5114L26.0743 60.5657L17.3828 55.5114L26.0743 50.4572Z" fill="#1E1E1E"/>
<path d="M34.7657 55.5115L26.0742 60.5658V70.6743V60.5658L34.7657 65.62L26.0742 60.5658L34.7657 55.5115Z" fill="#1E1E1E"/>
<path d="M43.4576 60.5657L34.7661 65.62L43.4576 70.6742L34.7661 65.62L43.4576 60.5657Z" fill="#1E1E1E"/>
<path d="M26.0743 30.3256L17.3828 35.3799L26.0743 30.3256L34.7658 25.2714L26.0743 30.3256Z" fill="#1E1E1E"/>
<path d="M17.3829 35.38L26.0744 30.3257L34.7658 25.2714V15.1628L26.0744 20.2171L17.3829 25.2714L8.69141 30.3257V40.4343V50.4572L17.3829 45.4885V35.38Z" fill="#86A8FD"/>
<path d="M43.4575 20.2172V10.1086L52.2342 15.1629L43.4575 10.1086L52.2342 5.05432L43.4575 10.1086V20.2172Z" fill="#1E1E1E"/>
<path d="M52.2339 15.1628L60.9254 10.1085L52.2339 15.1628Z" fill="#1E1E1E"/>
<path d="M60.9258 20.2171L69.6173 25.2714L60.9258 20.2171L69.6173 15.1628L60.9258 20.2171Z" fill="#1E1E1E"/>
<path d="M34.7657 45.4886L43.4572 40.4343L52.2339 35.38L60.9253 30.3257V20.2172L52.2339 25.2714L43.4572 30.3257L34.7657 35.38L26.0742 40.4343V50.4572L34.7657 45.4886Z" fill="#86A8FD"/>
<path d="M69.6172 35.38V25.2714L78.3087 30.3257L69.6172 25.2714L78.3087 20.2172L69.6172 25.2714V35.38Z" fill="#1E1E1E"/>
<path d="M34.7661 15.1629V25.2715L43.4576 20.2172V10.1086L34.7661 5.05432V15.1629Z" fill="#A2BDFF"/>
<path d="M52.2342 15.1628L43.4575 10.1085V20.2171L52.2342 15.1628Z" fill="#A2BDFF"/>
<path d="M60.9258 30.3257L69.6173 35.38V25.2714L60.9258 20.2172V30.3257Z" fill="#A2BDFF"/>
<path d="M69.6172 25.2714V35.3799V45.4885V55.5114L78.3087 60.5657V50.4571V40.4342V30.3256L69.6172 25.2714Z" fill="#A2BDFF"/>
<path d="M78.3087 70.6743L69.6172 75.7286L78.3087 70.6743Z" fill="#5E5E5E"/>
<path d="M60.9254 80.7828L52.2339 85.8371L60.9254 80.7828Z" fill="#5E5E5E"/>
<path d="M52.2342 85.8372L43.4575 90.8914L52.2342 85.8372Z" fill="#5E5E5E"/>
<path d="M43.4576 50.4572L34.7661 55.5114L43.4576 50.4572Z" fill="#5E5E5E"/>
<path d="M34.7657 55.5115L26.0742 60.5658L34.7657 55.5115Z" fill="#5E5E5E"/>
<path d="M52.2339 35.38L60.9254 30.3257L52.2339 35.38Z" fill="#5E5E5E"/>
<path d="M52.2342 45.4886L43.4575 50.4572L52.2342 45.4886V55.5115V65.62V55.5115V45.4886V35.38L60.9257 40.4343L52.2342 35.38V45.4886Z" fill="#5E5E5E"/>
<path d="M26.0743 20.2172L17.3828 25.2714L26.0743 20.2172Z" fill="#5E5E5E"/>
<path d="M17.3829 25.2714L8.69141 30.3256L17.3829 25.2714Z" fill="#5E5E5E"/>
<path d="M60.9254 20.2172L52.2339 25.2714L60.9254 20.2172Z" fill="#5E5E5E"/>
<path d="M52.2342 25.2714L43.4575 30.3256L52.2342 25.2714Z" fill="#5E5E5E"/>
<path d="M43.4576 30.3257L34.7661 35.38L43.4576 30.3257Z" fill="#5E5E5E"/>
<path d="M34.7657 35.38L26.0742 40.4343L34.7657 35.38Z" fill="#5E5E5E"/>
<path d="M52.2343 65.62L43.4576 60.5657L34.7661 65.62L43.4576 60.5657L52.2343 65.62Z" fill="#939393"/>
<path fill-rule="evenodd" clip-rule="evenodd" d="M43.4574 10.1086L43.4574 10.1085L52.234 15.1627L43.4574 20.217L34.7659 25.2712L26.0744 30.3255L17.3829 35.3798L26.0744 40.4341L34.7659 35.3798L43.4574 30.3255L52.2341 25.2712L60.9255 20.217L69.617 15.1627L60.9256 10.1085L60.9255 10.1084L52.2341 5.0542L52.234 5.05428L43.4574 0L34.7659 5.05428L43.4574 10.1086ZM26.0744 70.6744L34.7659 75.7287L43.4574 80.7829V70.6744L34.7659 65.6201L26.0744 60.5658L17.383 55.5115L8.69148 50.4572V40.4343V30.3258L0 25.2715V35.3801V45.4886V55.5115V65.6201V75.7287L8.69148 80.7829V70.6744V60.5658L17.383 65.6201L26.0744 70.6744ZM26.0744 20.217L17.383 25.2712L8.69148 30.3255L0 25.2712L8.69148 20.217L17.383 15.1627L26.0744 10.1084L34.7659 15.1627L26.0744 20.217ZM78.3085 20.2174L69.617 15.1631L60.9255 20.2174L69.617 25.2717L69.6171 25.2716L78.3085 30.3259L87 25.2716L78.3085 20.2173L78.3085 20.2174Z" fill="url(#paint0_linear_223_2051)"/>
<path fill-rule="evenodd" clip-rule="evenodd" d="M78.3083 30.3258L86.9998 25.2715V35.38V45.4886V55.5115L78.3083 60.5658V50.4572V40.4343V30.3258ZM69.6169 65.6199V55.5114V45.4884V35.38L69.617 35.38L69.6169 35.3799V35.3799L69.6169 35.3799L60.9255 30.3257L52.234 35.38L60.9254 40.4342V50.4571V60.5656V70.6742V80.7828L52.234 85.837L43.4573 90.8913L34.7658 85.837L26.0743 80.7827V90.8913L34.7658 95.9456L43.4573 101L52.234 95.9456L60.9254 90.8913L69.6169 85.837L78.3084 80.7828L86.9999 75.7285V65.6199L78.3084 70.6742L69.6169 75.7285V65.6199ZM43.4573 80.783L52.234 75.7287V65.6201L43.4573 70.6744V80.783ZM26.0743 50.4571V40.4342L17.3828 35.3799V45.4884L26.0743 50.4571ZM17.3828 75.7285L26.0743 80.7828V90.8914L17.3828 85.8371V75.7285Z" fill="url(#paint1_linear_223_2051)"/>
<path d="M34.7658 75.7286L26.0743 70.6743L17.3828 75.7286L26.0743 80.7829L34.7658 75.7286Z" fill="#A2BDFF"/>
<path d="M34.7657 75.7286L26.0742 80.7829L34.7657 85.8372L43.4572 80.7829L34.7657 75.7286Z" fill="#A2BDFF"/>
<path d="M43.4576 80.7829L34.7661 85.8372L43.4576 90.8915L52.2343 85.8372L60.9258 80.7829L52.2343 75.7286L43.4576 80.7829Z" fill="#A2BDFF"/>
<path d="M17.3829 45.4885L8.69141 50.4571L17.3829 55.5114L26.0744 50.4571L17.3829 45.4885Z" fill="#A2BDFF"/>
<path d="M43.4572 60.5658L34.7657 55.5115L26.0742 60.5658L34.7657 65.62L43.4572 60.5658Z" fill="#A2BDFF"/>
<path d="M52.2343 65.62L43.4576 60.5657L34.7661 65.62L43.4576 70.6742L52.2343 65.62Z" fill="#A2BDFF"/>
<path d="M69.6172 55.5115V65.62L78.3087 60.5658L69.6172 55.5115Z" fill="#A2BDFF"/>
<path d="M78.3087 60.5657L69.6172 65.62V75.7285L78.3087 70.6742L87.0001 65.62L78.3087 60.5657Z" fill="#A2BDFF"/>
<path d="M43.4576 60.5657L52.2343 65.62V55.5114V45.4885L43.4576 50.4571L34.7661 55.5114L43.4576 60.5657Z" fill="#7EA0F5"/>
<path d="M60.9254 40.4343L52.2339 35.38V45.4886V55.5115V65.62V75.7286L60.9254 80.7829V70.6743V60.5658V50.4572V40.4343Z" fill="#86A8FD"/>
<path d="M43.4573 50.4572L52.2339 45.4886V35.38L43.4573 40.4343L34.7658 45.4886L26.0743 50.4572L17.3828 55.5115L26.0743 60.5658L34.7658 55.5115L43.4573 50.4572Z" fill="#A2BDFF"/>
<defs>
<linearGradient id="paint0_linear_223_2051" x1="-11" y1="15" x2="104" y2="75" gradientUnits="userSpaceOnUse">
<stop stop-color="#5524B9"/>
<stop offset="1" stop-color="#90A3DA" stop-opacity="0.67"/>
</linearGradient>
<linearGradient id="paint1_linear_223_2051" x1="63.9999" y1="10.5" x2="62.4999" y2="116.5" gradientUnits="userSpaceOnUse">
<stop stop-color="#090484"/>
<stop offset="1" stop-color="#D2D5EC" stop-opacity="0.3"/>
</linearGradient>
</defs>
</svg>
