<svg width="87" height="102" viewBox="0 0 87 102" fill="none" xmlns="http://www.w3.org/2000/svg">
<g clip-path="url(#clip0_220_2041)">
<path d="M26.0744 50.779L17.3829 45.8104L8.69141 40.7561V50.779V60.8876V70.9961V81.1047L17.3829 76.0504L26.0744 70.9961L34.7658 65.9418V55.8333L26.0744 50.779Z" fill="#7EA0F5"/>
<path d="M43.4575 20.5389V10.4304L52.2342 15.4847L43.4575 10.4304L52.2342 5.3761L43.4575 10.4304V20.5389Z" fill="#1E1E1E"/>
<path d="M17.3829 25.5931L8.69141 30.6474V40.756V30.6474L17.3829 35.7017L8.69141 30.6474L17.3829 25.5931Z" fill="#1E1E1E"/>
<path d="M52.2339 25.5931V15.4846L60.9254 20.5389L52.2339 15.4846L60.9254 10.4303L52.2339 15.4846V25.5931Z" fill="#1E1E1E"/>
<path d="M26.0743 30.6475L17.3828 35.7017V45.8103V35.7017L26.0743 40.756L17.3828 35.7017L26.0743 30.6475Z" fill="#1E1E1E"/>
<path d="M60.9258 30.6475V20.5389L69.6173 25.5932L60.9258 20.5389L69.6173 15.4846L60.9258 20.5389V30.6475Z" fill="#1E1E1E"/>
<path d="M34.7657 35.7018L26.0742 40.7561V50.779V40.7561L34.7657 45.8103L26.0742 40.7561L34.7657 35.7018Z" fill="#1E1E1E"/>
<path d="M69.6172 25.5932L78.3087 20.5389L69.6172 25.5932Z" fill="#1E1E1E"/>
<path d="M43.4576 40.7561L34.7661 45.8104L43.4576 50.779L34.7661 45.8104L43.4576 40.7561Z" fill="#1E1E1E"/>
<path d="M69.6172 45.8103L78.3086 40.756L87.0001 35.7017V25.5931L78.3086 30.6474L69.6172 35.7017L60.9257 40.756L52.2342 45.8103L43.4575 50.7789V60.8875V70.996V81.1046V91.2132V101.322L52.2342 96.2674L60.9257 91.2132L69.6172 86.1589L78.3086 81.1046L87.0001 76.0503V65.9417L78.3086 70.996L73.1108 73.9943L69.6172 76.0503L65.0158 78.7059L60.9257 81.1046L52.2342 86.1589V76.0503V70.996V65.9417V55.8332L60.9257 50.7789L69.6172 45.8103Z" fill="url(#paint0_linear_220_2041)"/>
<path d="M34.7661 35.7018L43.4576 40.7561V30.6475V20.5389V10.4304L34.7661 5.3761V15.4847V25.5932V35.7018Z" fill="#9EB8F7"/>
<path d="M52.2342 25.5931V15.4846L43.4575 10.4303V20.5389V30.6474V40.756L52.2342 35.7017V25.5931Z" fill="#9EB8F7"/>
<path d="M60.9254 20.5389L52.2339 15.4846V25.5932V35.7018L60.9254 30.6475V20.5389Z" fill="#9EB8F7"/>
<path d="M69.6173 25.5932L60.9258 20.5389V30.6475L69.6173 25.5932Z" fill="#9EB8F7"/>
<path d="M78.3087 70.9961L73.1108 73.9944L78.3087 70.9961Z" fill="#5E5E5E"/>
<path d="M69.617 76.0504L65.0156 78.7061L69.617 76.0504Z" fill="#5E5E5E"/>
<path d="M60.9254 81.1046L52.2339 86.1589L60.9254 81.1046Z" fill="#5E5E5E"/>
<path d="M43.4574 81.1046V70.996V60.8875V50.7789L34.7659 45.8103L26.0744 40.756V50.7789V40.756L17.383 35.7017V45.8103V35.7017L8.69148 30.6474V40.756V30.6474L0 25.5931V35.7017V45.8103V55.8332V65.9417V76.0503L8.69148 81.1046V70.996V60.8875V50.7789V40.756L17.383 45.8103L26.0744 50.7789L34.7659 55.8332V65.9417V76.0503V86.1589V96.2674L43.4574 101.322V91.2132V81.1046Z" fill="url(#paint1_linear_220_2041)"/>
<path d="M78.3087 30.6475L69.6172 35.7017L78.3087 30.6475Z" fill="#5E5E5E"/>
<path d="M69.6173 35.7018L60.9258 40.7561L69.6173 35.7018Z" fill="#5E5E5E"/>
<path d="M60.9254 40.7561L52.2339 45.8104L60.9254 40.7561Z" fill="#5E5E5E"/>
<path d="M52.2342 45.8103L43.4575 50.7789L52.2342 45.8103Z" fill="#5E5E5E"/>
<path fill-rule="evenodd" clip-rule="evenodd" d="M34.766 5.37606L43.4574 10.4303L43.4574 10.4303L52.2341 15.4845L52.2341 15.4845L60.9256 20.5387L69.6171 15.4845L60.9256 10.4302L60.9256 10.4303L52.2341 5.37606L52.2341 5.37598L43.4574 0.321777L34.766 5.37606ZM8.69148 30.6475L17.383 35.7018L26.0744 40.756L34.7659 45.8103L43.4574 50.7789L52.1489 45.7247L60.8404 40.6704L69.5318 35.6161L78.2233 30.5618L86.9148 25.5075L78.2233 20.4532L78.1921 20.4714L69.617 15.4848L60.9256 20.5391L69.5006 25.5257L60.8404 30.5618L52.1489 35.6161L43.4574 40.756L34.7659 35.7018L26.0744 30.6475L17.383 25.5932L8.69148 20.5389L0 25.5932L8.69148 30.6475Z" fill="url(#paint2_linear_220_2041)"/>
<path d="M60.9254 50.7789L52.2339 55.8332V65.9418V70.9961V76.0504V86.1589L60.9254 81.1046L65.0155 78.706L69.6168 76.0504L73.1105 73.9944L78.3083 70.9961L86.9998 65.9418L81.5463 62.7721L78.3083 60.8875L75.2407 59.1742L69.6168 55.8332L60.9254 50.7789Z" fill="#A2BDFF"/>
</g>
<defs>
<linearGradient id="paint0_linear_220_2041" x1="65.2288" y1="25.5931" x2="65.2288" y2="101.322" gradientUnits="userSpaceOnUse">
<stop stop-color="#361074"/>
<stop offset="1" stop-color="#15209C" stop-opacity="0.17"/>
</linearGradient>
<linearGradient id="paint1_linear_220_2041" x1="-4.68658" y1="20.8815" x2="42.1442" y2="110.627" gradientUnits="userSpaceOnUse">
<stop stop-color="#5123B0"/>
<stop offset="1" stop-color="#0A329C" stop-opacity="0.4"/>
</linearGradient>
<linearGradient id="paint2_linear_220_2041" x1="9.37316" y1="12.7433" x2="70.4796" y2="50.5725" gradientUnits="userSpaceOnUse">
<stop stop-color="#5524B9"/>
<stop offset="1" stop-color="#0F38AE" stop-opacity="0.22"/>
</linearGradient>
<clipPath id="clip0_220_2041">
<rect width="87" height="101" fill="white" transform="translate(0 0.321777)"/>
</clipPath>
</defs>
</svg>
