<svg width="87" height="102" viewBox="0 0 87 102" fill="none" xmlns="http://www.w3.org/2000/svg">
<g clip-path="url(#clip0_220_2043)">
<path d="M52.2342 25.5931L43.4575 30.6474L52.2342 25.5931Z" fill="#1E1E1E"/>
<path d="M26.0742 40.7561L34.7657 35.7018L26.0742 40.7561Z" fill="#1E1E1E"/>
<path fill-rule="evenodd" clip-rule="evenodd" d="M52.234 25.5931L43.4573 20.5388V10.4303L52.234 5.37598V15.4845V25.5931ZM34.7658 35.7016V25.5934V15.4848L26.0743 20.5391V30.6476L34.7655 35.7018L26.0743 40.7559V50.7788V60.8873V70.9959V81.1045V91.213L34.7658 86.1588V76.0502V65.9416V55.8331V45.8102V35.7019V35.7016ZM17.3829 55.8332V65.9418V76.0504L8.69141 81.1046V70.9961V60.8875V50.7789V40.756V30.6475L17.3829 25.5932V35.7018V45.8103V55.8332ZM60.9255 30.6476L69.617 35.7019V25.5934V15.4848L60.9255 20.5391V30.6476ZM52.234 45.8103L43.4573 40.756V30.6475L52.234 25.5932V35.7018V45.8103Z" fill="#86A8FD"/>
<path fill-rule="evenodd" clip-rule="evenodd" d="M78.3087 30.6474L87.0001 25.5931V35.7017V45.8103V55.8332V65.9417V76.0503L78.3087 81.1046V70.996V60.8875V50.7789V40.756V30.6474ZM69.6172 65.9416V55.833V45.8101V35.7015L60.9257 40.7558V50.7787V60.8873V70.9959V81.1044V91.213L69.6172 86.1587V76.0501V65.9416ZM52.2342 76.0504V65.9418V55.8333V45.8104L43.4575 50.779V60.8875V70.9961V81.1047V91.2132V101.322L52.2342 96.2675V86.159V76.0504Z" fill="url(#paint0_linear_220_2043)"/>
<path d="M78.3087 60.8875V50.7789V40.756V30.6474L69.6172 25.5931V35.7017V45.8103V55.8332V65.9417V76.0503L78.3087 81.1046V70.996V60.8875Z" fill="#A2BDFF"/>
<path d="M34.7661 15.4847V25.5932L43.4576 20.5389V10.4304L34.7661 5.3761V15.4847Z" fill="#A2BDFF"/>
<path d="M17.3828 25.5932V35.7018L26.0743 30.6475V20.5389L17.3828 15.4846V25.5932Z" fill="#A2BDFF"/>
<path d="M52.2339 25.5932V35.7018L60.9254 30.6475V20.5389L52.2339 15.4846V25.5932Z" fill="#A2BDFF"/>
<path fill-rule="evenodd" clip-rule="evenodd" d="M8.69148 60.8875V50.7789V40.756V30.6474L0 25.5931V35.7017V45.8103V55.8332V65.9417V76.0503L8.69148 81.1046V70.996V60.8875ZM26.0745 60.8873V50.7787V40.7558L17.383 35.7015V45.8101V55.833V65.9416V76.0501V86.1587L26.0745 91.213V81.1044V70.9959V60.8873ZM43.4574 60.8875V70.9961V81.1047V91.2132V101.322L34.766 96.2675V86.159V76.0504V65.9418V55.8333V45.8104L43.4574 50.779V60.8875Z" fill="url(#paint1_linear_220_2043)"/>
<path d="M34.7661 35.7017V25.5931L43.4576 30.6474L34.7661 25.5931V35.7017Z" fill="#5E5E5E"/>
<path d="M52.2339 35.7018V45.8103V35.7018L60.9254 40.7561L52.2339 35.7018Z" fill="#5E5E5E"/>
<path fill-rule="evenodd" clip-rule="evenodd" d="M43.4574 10.4303L52.2341 5.37606L43.4574 0.321777L34.766 5.37606L43.4574 10.4303ZM52.2341 45.8105L43.4574 40.7562L34.766 45.8105L43.4574 50.7791L52.2341 45.8105ZM34.7659 15.4845L26.0745 20.5387L17.383 15.4845L26.0745 10.4302L34.7659 15.4845ZM8.69148 30.6476L17.383 25.5933L8.69148 20.539L0 25.5933L8.69148 30.6476ZM43.4574 20.539L52.2341 25.5933L43.4574 30.6476L34.766 25.5933L43.4574 20.539ZM60.9256 20.5387L69.6171 15.4845L60.9256 10.4302L52.2341 15.4845L60.9256 20.5387ZM60.9256 30.6474L69.6171 35.7017L60.9256 40.756L52.2341 35.7017L60.9256 30.6474ZM78.3085 30.6476L87 25.5933L78.3085 20.539L69.617 25.5933L78.3085 30.6476ZM26.0745 30.6474L34.7659 35.7017L26.0745 40.756L17.383 35.7017L26.0745 30.6474Z" fill="url(#paint2_linear_220_2043)"/>
<path d="M60.9254 70.9961V60.8875V50.779V40.7561L52.2339 35.7018V45.8103V55.8333V65.9418V76.0504V86.1589L60.9254 91.2132V81.1047V70.9961Z" fill="#A2BDFF"/>
<path d="M43.4576 40.756V30.6474L34.7661 25.5931V35.7017V45.8103L43.4576 40.756Z" fill="#A2BDFF"/>
</g>
<defs>
<linearGradient id="paint0_linear_220_2043" x1="65.2288" y1="25.5931" x2="65.2288" y2="101.322" gradientUnits="userSpaceOnUse">
<stop stop-color="#391578"/>
<stop offset="1" stop-color="#0F0599" stop-opacity="0.11"/>
</linearGradient>
<linearGradient id="paint1_linear_220_2043" x1="-9.37316" y1="26.4498" x2="55.8313" y2="113.496" gradientUnits="userSpaceOnUse">
<stop stop-color="#5522B8"/>
<stop offset="1" stop-color="#0464AF" stop-opacity="0.42"/>
</linearGradient>
<linearGradient id="paint2_linear_220_2043" x1="-12.7816" y1="0.321775" x2="87.2323" y2="65.368" gradientUnits="userSpaceOnUse">
<stop stop-color="#5729BA"/>
<stop offset="1" stop-color="#032F9F" stop-opacity="0"/>
</linearGradient>
<clipPath id="clip0_220_2043">
<rect width="87" height="101" fill="white" transform="translate(0 0.321777)"/>
</clipPath>
</defs>
</svg>
