<svg width="87" height="102" viewBox="0 0 87 102" fill="none" xmlns="http://www.w3.org/2000/svg">
<path d="M26.0743 81.1048L17.3828 76.0505L26.0743 70.9962L34.7658 65.9419L26.0743 70.9962L17.3828 76.0505V86.1591V76.0505L26.0743 81.1048Z" fill="#1E1E1E"/>
<path d="M34.7657 86.1593L26.0742 81.1051L34.7657 76.0508L43.4572 70.9965L34.7657 76.0508L26.0742 81.1051V91.2136V81.1051L34.7657 86.1593Z" fill="#1E1E1E"/>
<path d="M43.4576 81.1047L52.2343 76.0504L60.9258 70.9961L69.6172 65.9418V55.8333V65.9418L60.9258 70.9961L52.2343 76.0504L43.4576 81.1047L34.7661 86.159L43.4576 91.2133L34.7661 86.159L43.4576 81.1047Z" fill="#1E1E1E"/>
<path d="M60.9259 40.7563L52.2344 45.8106L60.9259 40.7563Z" fill="#1E1E1E"/>
<path d="M34.7661 45.8104L43.4576 50.7791L34.7661 45.8104Z" fill="#1E1E1E"/>
<path d="M52.2344 25.5933V15.4847L60.9259 20.539L52.2344 15.4847L60.9259 10.4304L52.2344 15.4847V25.5933Z" fill="#1E1E1E"/>
<path d="M60.9258 30.6479V20.5393L69.6173 25.5936L60.9258 20.5393L69.6173 15.485L60.9258 20.5393V30.6479Z" fill="#1E1E1E"/>
<path d="M69.6172 35.7019V25.5934L78.3087 30.6477L69.6172 25.5934L78.3087 20.5391L69.6172 25.5934V35.7019Z" fill="#1E1E1E"/>
<path fill-rule="evenodd" clip-rule="evenodd" d="M17.3829 65.9415L8.69141 70.9958V60.8872V50.7786V40.7557V30.6471L17.3829 25.5928L26.0744 20.5385L34.7658 15.4842L43.4573 10.4299V20.5385V30.6471L34.7658 35.7014L26.0744 40.7557V50.7786V60.8872L17.3829 65.9415ZM78.3085 30.6467L87 25.5924V35.701V45.8096V55.8326V65.9411V76.0497L78.3085 81.104L69.617 86.1583L60.9256 91.2126L52.2341 96.2669L43.4574 101.321V91.2126L52.2341 86.1583L60.9256 81.104L69.617 76.0497L78.3085 70.9954V60.8868V50.7783V40.7553V30.6467Z" fill="url(#paint0_linear_220_2042)"/>
<path d="M60.9257 50.7793V40.7563L52.2342 45.8106L43.4575 50.7793V60.8879V70.9965L52.2342 65.9422L60.9257 60.8879V50.7793Z" fill="#7796E6"/>
<path d="M43.4572 60.8879V50.7793L34.7657 45.8106L26.0742 40.7563V50.7793V60.8879L34.7657 65.9422L43.4572 70.9965V60.8879Z" fill="#86A8FD"/>
<path d="M26.0742 70.9962L34.7657 65.9419L26.0742 70.9962Z" fill="#5E5E5E"/>
<path d="M26.0743 70.9965L17.3828 76.0508L26.0743 70.9965Z" fill="#5E5E5E"/>
<path d="M34.7661 76.0508L43.4576 70.9965L34.7661 76.0508Z" fill="#5E5E5E"/>
<path d="M34.7657 76.0505L26.0742 81.1048L34.7657 76.0505Z" fill="#5E5E5E"/>
<path d="M69.6173 65.9419L60.9258 70.9962L69.6173 65.9419Z" fill="#5E5E5E"/>
<path d="M60.9259 70.9965L52.2344 76.0508L60.9259 70.9965Z" fill="#5E5E5E"/>
<path d="M52.2342 76.0505L43.4575 81.1048L52.2342 76.0505Z" fill="#5E5E5E"/>
<path d="M43.4576 81.1046L34.7661 86.1589L43.4576 81.1046Z" fill="#5E5E5E"/>
<path d="M78.3087 70.9965L69.6172 76.0508L78.3087 70.9965Z" fill="#5E5E5E"/>
<path d="M69.6173 76.0505L60.9258 81.1048L69.6173 76.0505Z" fill="#5E5E5E"/>
<path d="M60.9259 81.1046L52.2344 86.1589L60.9259 81.1046Z" fill="#5E5E5E"/>
<path d="M52.2342 86.1592L43.4575 91.2135L52.2342 86.1592Z" fill="#5E5E5E"/>
<path d="M26.0742 60.8879V50.7793V40.7563L34.7657 45.8106L26.0742 40.7563V50.7793V60.8879Z" fill="#5E5E5E"/>
<path d="M43.4576 10.4304L34.7661 15.4847L43.4576 10.4304Z" fill="#5E5E5E"/>
<path d="M34.7657 15.485L26.0742 20.5393L34.7657 15.485Z" fill="#5E5E5E"/>
<path d="M26.0743 20.5391L17.3828 25.5934L26.0743 20.5391Z" fill="#5E5E5E"/>
<path d="M17.3829 25.5931L8.69141 30.6474L17.3829 25.5931Z" fill="#5E5E5E"/>
<path fill-rule="evenodd" clip-rule="evenodd" d="M52.2341 25.5926V35.7012L44.2243 30.9895L43.4574 30.6469V20.5383V10.4297L52.2341 15.484V25.5926ZM52.2341 15.4843L60.9255 20.5385V20.5383L69.617 25.5926V25.593L78.3084 30.6472V40.7558V50.7787V60.8873V70.9959L69.6169 65.9416V65.9413L60.9255 60.887V50.7784V40.7557L52.2341 35.7014V25.5928V15.4843ZM8.69148 50.7787V60.8873V70.9957L17.3829 76.05V86.1586L8.69148 81.1043V81.1045L0 76.0502V65.9416V55.833V45.8101V35.7015V25.5929L8.69148 30.6472V40.7558V50.7787ZM26.0744 81.1041L17.3829 76.0498V86.1584L26.0744 91.2127V81.1041ZM34.7659 86.1586L43.4574 91.2129V101.322L34.7659 96.2672L26.0745 91.2129V81.1044L34.7659 86.1586Z" fill="url(#paint1_linear_220_2042)"/>
<path d="M52.2342 45.8104L43.4575 50.7791L52.2342 45.8104Z" fill="#5E5E5E"/>
<path d="M60.9254 40.7558L52.2339 35.7015L44.2241 30.9899L48.8255 33.7312L52.2339 35.7015L60.9254 40.7558Z" fill="#939393"/>
<path d="M34.7657 35.7015L26.0742 40.7558L43.4572 30.6472L34.7657 35.7015Z" fill="#939393"/>
<path fill-rule="evenodd" clip-rule="evenodd" d="M17.383 25.5933L26.0744 20.539L34.7659 15.4847L43.4574 10.4304L43.4576 10.4303L52.2341 15.4844L60.9256 10.4302L52.2341 5.37586L52.2339 5.37597L43.4574 0.321777L34.7659 5.37607L26.0744 10.4304L17.383 15.4847L8.69148 20.539L0 25.5933L8.69148 30.6475L17.383 25.5933ZM69.6171 15.4847L60.9256 20.539L52.2341 15.4847L60.9256 10.4304L69.6171 15.4847ZM69.6172 25.5935L69.617 25.5936L60.9255 20.5393L69.617 15.485L78.3083 20.5392L78.3084 20.5391L86.9999 25.5934L78.3084 30.6477L69.6172 25.5935Z" fill="url(#paint2_linear_220_2042)"/>
<path fill-rule="evenodd" clip-rule="evenodd" d="M17.3829 65.9421L26.0744 60.8878L34.7656 65.942L34.7658 65.9419L43.4572 70.9962L34.7658 76.0505L26.0743 81.1048L17.383 76.0506L17.3829 76.0507L8.69141 70.9964L17.3829 65.9421ZM69.6168 65.9421L69.6172 65.9419L78.3087 70.9962L69.6172 76.0505L60.9258 81.1048L52.2343 86.1591L43.4576 91.2134L34.7661 86.1591L34.7657 86.1593L26.0742 81.105L34.7657 76.0507L43.4572 70.9964L52.2339 65.9421L60.9253 60.8878L69.6168 65.9421Z" fill="url(#paint3_linear_220_2042)"/>
<path d="M26.0742 40.7558L34.7657 45.8101L43.4572 50.7787L52.2339 45.8101L60.9253 40.7558L52.2339 35.7015L48.8254 33.7312L44.2241 30.9899L43.4572 30.6472L26.0742 40.7558Z" fill="#A2BDFF"/>
<defs>
<linearGradient id="paint0_linear_220_2042" x1="47.7179" y1="-4.39005" x2="47.8471" y2="101.321" gradientUnits="userSpaceOnUse">
<stop stop-color="#3E1C7D"/>
<stop offset="1" stop-color="#0B03A2" stop-opacity="0.12"/>
</linearGradient>
<linearGradient id="paint1_linear_220_2042" x1="-6.81684" y1="10.6012" x2="74.6487" y2="109.119" gradientUnits="userSpaceOnUse">
<stop stop-color="#553C96"/>
<stop offset="1" stop-color="#05088A" stop-opacity="0.22"/>
</linearGradient>
<linearGradient id="paint2_linear_220_2042" x1="10.6513" y1="3.46584" x2="18.3056" y2="45.1513" gradientUnits="userSpaceOnUse">
<stop stop-color="#705DC5"/>
<stop offset="1" stop-color="#0648A5" stop-opacity="0.21"/>
</linearGradient>
<linearGradient id="paint3_linear_220_2042" x1="17" y1="59.5" x2="40.5" y2="94.5" gradientUnits="userSpaceOnUse">
<stop stop-color="#57409A"/>
<stop offset="1" stop-color="#2400AC" stop-opacity="0.14"/>
<stop offset="1" stop-color="#0076AC" stop-opacity="0.14"/>
</linearGradient>
</defs>
</svg>
