<svg width="90" height="106" viewBox="0 0 90 106" fill="none" xmlns="http://www.w3.org/2000/svg">
<path d="M17.9824 79.4772L8.99121 74.1727L17.9824 68.8682L26.9736 63.5637L35.9648 58.2593L26.9736 63.5637L17.9824 68.8682L8.99121 74.1727V84.7817V74.1727L17.9824 79.4772Z" fill="#1E1E1E"/>
<path d="M26.4447 84.5123L25.9158 84.1527L17.9824 79.4775V90.0865V79.4775L26.4447 84.5123Z" fill="#1E1E1E"/>
<path d="M35.9648 90.0865L26.9736 84.782V95.3909V84.782L35.9648 90.0865Z" fill="#1E1E1E"/>
<path d="M8.99121 74.173L17.9824 68.8685L26.9736 63.564L35.9648 58.2595L26.9736 52.9551L17.9824 47.7405L8.99121 52.9551V63.564V74.173Z" fill="#7EA0F5"/>
<path d="M63.0264 31.8272L72.0175 26.5227L63.0264 31.8272Z" fill="#1E1E1E"/>
<path d="M90.0001 37.1314L90.0001 26.3918L81.0089 31.8269L72.0178 37.1314L63.0266 42.4358L54.0354 47.7403L44.9561 52.9549V63.5638V74.1728V84.7818V95.3907V106L54.0354 100.695V90.0862V79.4773V68.8683V58.2594L63.0266 52.9549L72.0178 47.7403L81.0089 42.4358V52.9549V63.5638V74.1728L72.0178 79.4773L63.0266 84.7818V95.3907L72.0178 90.0862L81.0089 84.7818L90.0001 79.4773V68.8683V58.2594V47.7403V37.1314Z" fill="url(#paint0_linear_220_1716)"/>
<path d="M44.9561 10.6089L54.0354 15.9134L44.9561 10.6089L54.0354 5.30444L44.9561 10.6089Z" fill="#1E1E1E"/>
<path d="M17.9824 26.5223L26.9736 31.8268L35.9648 37.1313L44.956 42.4358V31.8268V21.2178V10.6089L35.9648 15.9134L26.9736 21.2178L17.9824 26.5223Z" fill="#5081FC" fill-opacity="0.69"/>
<path d="M17.9824 26.5227L8.99121 31.8272V42.4361V31.8272L17.9824 37.1317L8.99121 31.8272L17.9824 26.5227Z" fill="#1E1E1E"/>
<path d="M54.0352 26.5223V15.9134L63.0263 21.2178L54.0352 15.9134L63.0263 10.6089L54.0352 15.9134V26.5223Z" fill="#1E1E1E"/>
<path d="M26.9736 31.8267L17.9824 37.1311V47.7401V37.1311L26.9736 42.4356L17.9824 37.1311L26.9736 31.8267Z" fill="#1E1E1E"/>
<path d="M63.0264 31.8273L72.0175 26.5228V15.9138L63.0264 21.2183V31.8273Z" fill="#7EA0F5"/>
<path d="M35.9648 37.1311L26.9736 42.4356V52.9546V42.4356L35.9648 47.7401L26.9736 42.4356L35.9648 37.1311Z" fill="#1E1E1E"/>
<path d="M44.956 42.4355L35.9648 47.74V58.2591V47.74L44.956 52.9546L35.9648 47.74L44.956 42.4355Z" fill="#1E1E1E"/>
<path d="M63.0263 84.782L54.0352 79.4775V90.0865L63.0263 95.391V84.782Z" fill="#7EA0F5"/>
<path d="M63.0263 52.9548L54.0352 58.2593L63.0263 63.5638V52.9548Z" fill="#7EA0F5"/>
<path d="M72.0176 68.868L81.0088 74.1725V63.5635V52.9546V42.4355L72.0176 47.74V58.2591V68.868Z" fill="#7EA0F5"/>
<path d="M72.0175 68.8685V58.2595V47.7405L63.0264 52.9551V63.564L72.0175 68.8685Z" fill="#7EA0F5"/>
<path d="M54.0352 37.1317L63.0263 31.8273V21.2183L54.0352 15.9138V26.5228V37.1317Z" fill="#A3BDFF"/>
<path d="M44.9561 21.2178V31.8268V42.4358L54.0354 37.1313V26.5223V15.9134L44.9561 10.6089V21.2178Z" fill="#A3BDFF"/>
<path d="M17.9824 47.74L8.99118 42.4355L0 47.74L8.99118 52.9546L17.9824 47.74Z" fill="#A2BDFF"/>
<path d="M81.0088 74.1731L72.0176 79.4776L81.0088 74.1731Z" fill="#5E5E5E"/>
<path d="M72.0175 79.4775L63.0264 84.782L72.0175 79.4775Z" fill="#5E5E5E"/>
<path fill-rule="evenodd" clip-rule="evenodd" d="M44.9559 63.5639V74.1729V84.7818V95.3908V106L35.9647 100.695L26.9736 95.3908V84.7818L35.9647 90.0863V79.9269V79.837V79.7471V79.4773V73.5435V68.8684V58.2594L26.9736 52.9549L17.9824 47.7404L8.99118 42.4359L0 37.1314V26.5225L8.99118 31.8269L17.9824 37.1314L26.9736 42.4359L35.9647 47.7404L44.9559 52.9549V63.5639ZM8.99118 52.9553V63.5643V74.1732V84.7822L0 79.4777V68.8687V58.2598V47.7407L8.99118 52.9553ZM8.99121 74.1728L17.9823 79.4772L17.9824 79.4773L26.4446 84.512L26.9735 84.7817V95.3907L17.9824 90.0862L17.9823 90.0862L8.99121 84.7818V74.1728Z" fill="url(#paint1_linear_220_1716)"/>
<path d="M44.956 10.6089L35.9648 15.9134L44.956 10.6089Z" fill="#5E5E5E"/>
<path d="M35.9648 15.9138L26.9736 21.2183L35.9648 15.9138Z" fill="#5E5E5E"/>
<path d="M26.9736 21.2183L17.9824 26.5227L26.9736 21.2183Z" fill="#5E5E5E"/>
<path d="M17.9824 26.5227L8.99121 31.8272L17.9824 26.5227Z" fill="#5E5E5E"/>
<path d="M81.0088 31.8267L72.0176 37.1311L81.0088 31.8267Z" fill="#5E5E5E"/>
<path d="M72.0175 37.1311L63.0264 42.4356L72.0175 37.1311Z" fill="#5E5E5E"/>
<path d="M63.0263 42.4355L54.0352 47.74L63.0263 42.4355Z" fill="#5E5E5E"/>
<path d="M54.0354 47.7405L44.9561 52.9551L54.0354 47.7405Z" fill="#5E5E5E"/>
<path fill-rule="evenodd" clip-rule="evenodd" d="M17.9827 26.5222L26.9736 21.2179L35.9647 15.9134L44.9559 10.609L54.0353 15.9134L54.0353 15.9134L63.0265 21.2178L72.0176 15.9134L63.0265 10.6089L54.0353 5.30448L44.9559 0L35.9647 5.30448L26.9736 10.609L17.9824 15.9134L8.99118 21.2179L0 26.5224L8.99118 31.8269L8.99152 31.8267L17.9824 37.131L26.9736 42.4354L35.9648 47.7399L44.9559 52.9545L54.0353 47.8075L71.9576 37.2076L81.0849 31.7994L90 26.3913L80.9207 21.1276L71.9295 26.4321L63.0265 31.8265L54.0353 37.131L44.9559 42.4354L35.9648 37.131L26.9736 31.8265L17.9827 26.5222Z" fill="url(#paint2_linear_220_1716)"/>
<path d="M17.9824 68.8682L8.99121 74.1727L17.9824 79.4772L25.9158 84.1523L26.4447 84.5119L26.9736 84.7817L35.9648 90.0861V79.9267V79.8368V79.7469V79.4772V73.5434V68.8682V58.2593L26.9736 63.5637L17.9824 68.8682Z" fill="#A2BDFF"/>
<path d="M72.0175 79.4772L81.0087 74.1727L72.0175 68.8682L63.0263 63.5637L54.0352 58.2593V68.8682V79.4772L63.0263 84.7817L72.0175 79.4772Z" fill="#A2BDFF"/>
<defs>
<linearGradient id="paint0_linear_220_1716" x1="67.4781" y1="26.3918" x2="67.4781" y2="106" gradientUnits="userSpaceOnUse">
<stop stop-color="#30056C"/>
<stop offset="1" stop-color="#0320A0" stop-opacity="0"/>
</linearGradient>
<linearGradient id="paint1_linear_220_1716" x1="-17.069" y1="43.0296" x2="121.753" y2="107.604" gradientUnits="userSpaceOnUse">
<stop stop-color="#5628BA"/>
<stop offset="1" stop-color="#8898D6"/>
</linearGradient>
<linearGradient id="paint2_linear_220_1716" x1="-8.27587" y1="26.2374" x2="111.275" y2="43.0718" gradientUnits="userSpaceOnUse">
<stop stop-color="#4E05B2"/>
<stop offset="1" stop-color="#0558B2" stop-opacity="0.29"/>
</linearGradient>
</defs>
</svg>
