<?xml version="1.0" encoding="utf-8"?>
<svg width="45" height="45" viewBox="0 0 45 45" fill="none" xmlns="http://www.w3.org/2000/svg">
<path d="M9.02159 11.5289H1.39342C0.623856 11.5289 0 12.1528 0 12.9224V20.5505C0 21.3201 0.623856 21.9439 1.39342 21.9439H9.02159C9.79115 21.9439 10.415 21.3201 10.415 20.5505V12.9224C10.415 12.1528 9.79115 11.5289 9.02159 11.5289Z" fill="#373435"/>
<path d="M20.5484 0H12.9203C12.1507 0 11.5269 0.623856 11.5269 1.39342V9.02159C11.5269 9.79115 12.1507 10.415 12.9203 10.415H20.5484C21.318 10.415 21.9419 9.79115 21.9419 9.02159V1.39342C21.9419 0.623856 21.318 0 20.5484 0Z" fill="#FEFEFE"/>
<path d="M20.5484 11.5289H12.9203C12.1507 11.5289 11.5269 12.1528 11.5269 12.9224V20.5505C11.5269 21.3201 12.1507 21.9439 12.9203 21.9439H20.5484C21.318 21.9439 21.9419 21.3201 21.9419 20.5505V12.9224C21.9419 12.1528 21.318 11.5289 20.5484 11.5289Z" fill="#373435"/>
<path d="M20.5484 23.056H12.9203C12.1507 23.056 11.5269 23.6799 11.5269 24.4495V32.0776C11.5269 32.8472 12.1507 33.471 12.9203 33.471H20.5484C21.318 33.471 21.9419 32.8472 21.9419 32.0776V24.4495C21.9419 23.6799 21.318 23.056 20.5484 23.056Z" fill="#373435"/>
<path d="M20.5484 34.585H12.9203C12.1507 34.585 11.5269 35.2088 11.5269 35.9784V43.6065C11.5269 44.3761 12.1507 45 12.9203 45H20.5484C21.318 45 21.9419 44.3761 21.9419 43.6065V35.9784C21.9419 35.2088 21.318 34.585 20.5484 34.585Z" fill="#373435"/>
<path d="M32.0777 0H24.4496C23.68 0 23.0562 0.623856 23.0562 1.39342V9.02159C23.0562 9.79115 23.68 10.415 24.4496 10.415H32.0777C32.8473 10.415 33.4712 9.79115 33.4712 9.02159V1.39342C33.4712 0.623856 32.8473 0 32.0777 0Z" fill="#FEFEFE"/>
<path d="M32.0777 11.5289H24.4496C23.68 11.5289 23.0562 12.1528 23.0562 12.9224V20.5505C23.0562 21.3201 23.68 21.9439 24.4496 21.9439H32.0777C32.8473 21.9439 33.4712 21.3201 33.4712 20.5505V12.9224C33.4712 12.1528 32.8473 11.5289 32.0777 11.5289Z" fill="#373435"/>
<path d="M32.0777 23.056H24.4496C23.68 23.056 23.0562 23.6799 23.0562 24.4495V32.0776C23.0562 32.8472 23.68 33.471 24.4496 33.471H32.0777C32.8473 33.471 33.4712 32.8472 33.4712 32.0776V24.4495C33.4712 23.6799 32.8473 23.056 32.0777 23.056Z" fill="#FEFEFE"/>
<path d="M43.6065 0H35.9784C35.2088 0 34.585 0.623856 34.585 1.39342V9.02159C34.585 9.79115 35.2088 10.415 35.9784 10.415H43.6065C44.3761 10.415 45 9.79115 45 9.02159V1.39342C45 0.623856 44.3761 0 43.6065 0Z" fill="#FEFEFE"/>
<path d="M43.6065 11.5289H35.9784C35.2088 11.5289 34.585 12.1528 34.585 12.9224V20.5505C34.585 21.3201 35.2088 21.9439 35.9784 21.9439H43.6065C44.3761 21.9439 45 21.3201 45 20.5505V12.9224C45 12.1528 44.3761 11.5289 43.6065 11.5289Z" fill="#FEFEFE"/>
<path d="M43.6065 23.056H35.9784C35.2088 23.056 34.585 23.6799 34.585 24.4495V32.0776C34.585 32.8472 35.2088 33.471 35.9784 33.471H43.6065C44.3761 33.471 45 32.8472 45 32.0776V24.4495C45 23.6799 44.3761 23.056 43.6065 23.056Z" fill="#FEFEFE"/>
</svg>
