<svg width="420" height="275" viewBox="0 0 420 275" fill="none" xmlns="http://www.w3.org/2000/svg">
<circle cx="3.04348" cy="150.043" r="3.04348" transform="rotate(-90 3.04348 150.043)" fill="#3383FF"/>
<circle cx="51.7392" cy="150.043" r="3.04348" transform="rotate(-90 51.7392 150.043)" fill="#3383FF"/>
<circle cx="100.435" cy="150.043" r="3.04348" transform="rotate(-90 100.435 150.043)" fill="#3383FF"/>
<circle cx="149.13" cy="150.043" r="3.04348" transform="rotate(-90 149.13 150.043)" fill="#3383FF"/>
<circle cx="197.826" cy="150.043" r="3.04348" transform="rotate(-90 197.826 150.043)" fill="#3383FF"/>
<circle cx="246.522" cy="150.043" r="3.04348" transform="rotate(-90 246.522 150.043)" fill="#3383FF"/>
<circle cx="295.217" cy="150.043" r="3.04348" transform="rotate(-90 295.217 150.043)" fill="#3383FF"/>
<circle cx="343.913" cy="150.043" r="3.04348" transform="rotate(-90 343.913 150.043)" fill="#3383FF"/>
<circle cx="392.609" cy="150.043" r="3.04348" transform="rotate(-90 392.609 150.043)" fill="#3383FF"/>
<circle cx="3.04348" cy="174.391" r="3.04348" transform="rotate(-90 3.04348 174.391)" fill="#3383FF"/>
<circle cx="100.435" cy="174.391" r="3.04348" transform="rotate(-90 100.435 174.391)" fill="#3383FF"/>
<circle cx="149.13" cy="174.391" r="3.04348" transform="rotate(-90 149.13 174.391)" fill="#3383FF"/>
<circle cx="197.826" cy="174.391" r="3.04348" transform="rotate(-90 197.826 174.391)" fill="#3383FF"/>
<circle cx="246.522" cy="174.391" r="3.04348" transform="rotate(-90 246.522 174.391)" fill="#3383FF"/>
<circle cx="295.217" cy="174.391" r="3.04348" transform="rotate(-90 295.217 174.391)" fill="#3383FF"/>
<circle cx="51.7392" cy="174.391" r="3.04348" transform="rotate(-90 51.7392 174.391)" fill="#3383FF"/>
<circle cx="343.913" cy="174.391" r="3.04348" transform="rotate(-90 343.913 174.391)" fill="#3383FF"/>
<circle cx="392.609" cy="174.391" r="3.04348" transform="rotate(-90 392.609 174.391)" fill="#3383FF"/>
<circle cx="100.435" cy="198.739" r="3.04348" transform="rotate(-90 100.435 198.739)" fill="#3383FF"/>
<circle cx="3.04348" cy="198.739" r="3.04348" transform="rotate(-90 3.04348 198.739)" fill="#3383FF"/>
<circle cx="149.13" cy="198.739" r="3.04348" transform="rotate(-90 149.13 198.739)" fill="#3383FF"/>
<circle cx="197.826" cy="198.739" r="3.04348" transform="rotate(-90 197.826 198.739)" fill="#3383FF"/>
<circle cx="246.522" cy="198.739" r="3.04348" transform="rotate(-90 246.522 198.739)" fill="#3383FF"/>
<circle cx="295.217" cy="198.739" r="3.04348" transform="rotate(-90 295.217 198.739)" fill="#3383FF"/>
<circle cx="51.7392" cy="198.739" r="3.04348" transform="rotate(-90 51.7392 198.739)" fill="#3383FF"/>
<circle cx="100.435" cy="223.087" r="3.04348" transform="rotate(-90 100.435 223.087)" fill="#3383FF"/>
<circle cx="343.913" cy="198.739" r="3.04348" transform="rotate(-90 343.913 198.739)" fill="#3383FF"/>
<circle cx="392.609" cy="198.739" r="3.04348" transform="rotate(-90 392.609 198.739)" fill="#3383FF"/>
<circle cx="149.13" cy="223.087" r="3.04348" transform="rotate(-90 149.13 223.087)" fill="#3383FF"/>
<circle cx="197.826" cy="223.087" r="3.04348" transform="rotate(-90 197.826 223.087)" fill="#3383FF"/>
<circle cx="246.522" cy="223.087" r="3.04348" transform="rotate(-90 246.522 223.087)" fill="#3383FF"/>
<circle cx="295.217" cy="223.087" r="3.04348" transform="rotate(-90 295.217 223.087)" fill="#3383FF"/>
<circle cx="3.04348" cy="223.087" r="3.04348" transform="rotate(-90 3.04348 223.087)" fill="#3383FF"/>
<circle cx="100.435" cy="247.435" r="3.04348" transform="rotate(-90 100.435 247.435)" fill="#3383FF"/>
<circle cx="51.7392" cy="223.087" r="3.04348" transform="rotate(-90 51.7392 223.087)" fill="#3383FF"/>
<circle cx="343.913" cy="223.087" r="3.04348" transform="rotate(-90 343.913 223.087)" fill="#3383FF"/>
<circle cx="392.609" cy="223.087" r="3.04348" transform="rotate(-90 392.609 223.087)" fill="#3383FF"/>
<circle cx="149.13" cy="247.435" r="3.04348" transform="rotate(-90 149.13 247.435)" fill="#3383FF"/>
<circle cx="100.435" cy="271.783" r="3.04348" transform="rotate(-90 100.435 271.783)" fill="#3383FF"/>
<circle cx="197.826" cy="247.435" r="3.04348" transform="rotate(-90 197.826 247.435)" fill="#3383FF"/>
<circle cx="3.04348" cy="247.435" r="3.04348" transform="rotate(-90 3.04348 247.435)" fill="#3383FF"/>
<circle cx="246.522" cy="247.435" r="3.04348" transform="rotate(-90 246.522 247.435)" fill="#3383FF"/>
<circle cx="51.7392" cy="247.435" r="3.04348" transform="rotate(-90 51.7392 247.435)" fill="#3383FF"/>
<circle cx="295.217" cy="247.435" r="3.04348" transform="rotate(-90 295.217 247.435)" fill="#3383FF"/>
<circle cx="149.13" cy="271.783" r="3.04348" transform="rotate(-90 149.13 271.783)" fill="#3383FF"/>
<circle cx="124.783" cy="150.043" r="3.04348" transform="rotate(-90 124.783 150.043)" fill="#3383FF"/>
<circle cx="197.826" cy="271.783" r="3.04348" transform="rotate(-90 197.826 271.783)" fill="#3383FF"/>
<circle cx="246.522" cy="271.783" r="3.04348" transform="rotate(-90 246.522 271.783)" fill="#3383FF"/>
<circle cx="295.217" cy="271.783" r="3.04348" transform="rotate(-90 295.217 271.783)" fill="#3383FF"/>
<circle cx="343.913" cy="247.435" r="3.04348" transform="rotate(-90 343.913 247.435)" fill="#3383FF"/>
<circle cx="392.609" cy="247.435" r="3.04348" transform="rotate(-90 392.609 247.435)" fill="#3383FF"/>
<circle cx="3.04348" cy="271.783" r="3.04348" transform="rotate(-90 3.04348 271.783)" fill="#3383FF"/>
<circle cx="124.783" cy="174.391" r="3.04348" transform="rotate(-90 124.783 174.391)" fill="#3383FF"/>
<circle cx="173.478" cy="150.043" r="3.04348" transform="rotate(-90 173.478 150.043)" fill="#3383FF"/>
<circle cx="51.7392" cy="271.783" r="3.04348" transform="rotate(-90 51.7392 271.783)" fill="#3383FF"/>
<circle cx="343.913" cy="271.783" r="3.04348" transform="rotate(-90 343.913 271.783)" fill="#3383FF"/>
<circle cx="392.609" cy="271.783" r="3.04348" transform="rotate(-90 392.609 271.783)" fill="#3383FF"/>
<circle cx="222.174" cy="150.043" r="3.04348" transform="rotate(-90 222.174 150.043)" fill="#3383FF"/>
<circle cx="124.783" cy="198.739" r="3.04348" transform="rotate(-90 124.783 198.739)" fill="#3383FF"/>
<circle cx="270.87" cy="150.043" r="3.04348" transform="rotate(-90 270.87 150.043)" fill="#3383FF"/>
<circle cx="319.565" cy="150.043" r="3.04348" transform="rotate(-90 319.565 150.043)" fill="#3383FF"/>
<circle cx="173.478" cy="174.391" r="3.04348" transform="rotate(-90 173.478 174.391)" fill="#3383FF"/>
<circle cx="27.3913" cy="150.043" r="3.04348" transform="rotate(-90 27.3913 150.043)" fill="#3383FF"/>
<circle cx="76.0869" cy="150.043" r="3.04348" transform="rotate(-90 76.0869 150.043)" fill="#3383FF"/>
<circle cx="124.783" cy="223.087" r="3.04348" transform="rotate(-90 124.783 223.087)" fill="#3383FF"/>
<circle cx="222.174" cy="174.391" r="3.04348" transform="rotate(-90 222.174 174.391)" fill="#3383FF"/>
<circle cx="173.478" cy="198.739" r="3.04348" transform="rotate(-90 173.478 198.739)" fill="#3383FF"/>
<circle cx="368.261" cy="150.043" r="3.04348" transform="rotate(-90 368.261 150.043)" fill="#3383FF"/>
<circle cx="416.957" cy="150.043" r="3.04348" transform="rotate(-90 416.957 150.043)" fill="#3383FF"/>
<circle cx="270.87" cy="174.391" r="3.04348" transform="rotate(-90 270.87 174.391)" fill="#3383FF"/>
<circle cx="27.3913" cy="174.391" r="3.04348" transform="rotate(-90 27.3913 174.391)" fill="#3383FF"/>
<circle cx="319.565" cy="174.391" r="3.04348" transform="rotate(-90 319.565 174.391)" fill="#3383FF"/>
<circle cx="173.478" cy="223.087" r="3.04348" transform="rotate(-90 173.478 223.087)" fill="#3383FF"/>
<circle cx="222.174" cy="198.739" r="3.04348" transform="rotate(-90 222.174 198.739)" fill="#3383FF"/>
<circle cx="124.783" cy="247.435" r="3.04348" transform="rotate(-90 124.783 247.435)" fill="#3383FF"/>
<circle cx="76.0869" cy="174.391" r="3.04348" transform="rotate(-90 76.0869 174.391)" fill="#3383FF"/>
<circle cx="222.174" cy="223.087" r="3.04348" transform="rotate(-90 222.174 223.087)" fill="#3383FF"/>
<circle cx="270.87" cy="198.739" r="3.04348" transform="rotate(-90 270.87 198.739)" fill="#3383FF"/>
<circle cx="173.478" cy="247.435" r="3.04348" transform="rotate(-90 173.478 247.435)" fill="#3383FF"/>
<circle cx="368.261" cy="174.391" r="3.04348" transform="rotate(-90 368.261 174.391)" fill="#3383FF"/>
<circle cx="416.957" cy="174.391" r="3.04348" transform="rotate(-90 416.957 174.391)" fill="#3383FF"/>
<circle cx="270.87" cy="223.087" r="3.04348" transform="rotate(-90 270.87 223.087)" fill="#3383FF"/>
<circle cx="319.565" cy="198.739" r="3.04348" transform="rotate(-90 319.565 198.739)" fill="#3383FF"/>
<circle cx="222.174" cy="247.435" r="3.04348" transform="rotate(-90 222.174 247.435)" fill="#3383FF"/>
<circle cx="124.783" cy="271.783" r="3.04348" transform="rotate(-90 124.783 271.783)" fill="#3383FF"/>
<circle cx="319.565" cy="223.087" r="3.04348" transform="rotate(-90 319.565 223.087)" fill="#3383FF"/>
<circle cx="270.87" cy="247.435" r="3.04348" transform="rotate(-90 270.87 247.435)" fill="#3383FF"/>
<circle cx="173.478" cy="271.783" r="3.04348" transform="rotate(-90 173.478 271.783)" fill="#3383FF"/>
<circle cx="319.565" cy="247.435" r="3.04348" transform="rotate(-90 319.565 247.435)" fill="#3383FF"/>
<circle cx="222.174" cy="271.783" r="3.04348" transform="rotate(-90 222.174 271.783)" fill="#3383FF"/>
<circle cx="270.87" cy="271.783" r="3.04348" transform="rotate(-90 270.87 271.783)" fill="#3383FF"/>
<circle cx="319.565" cy="271.783" r="3.04348" transform="rotate(-90 319.565 271.783)" fill="#3383FF"/>
<circle cx="27.3913" cy="198.739" r="3.04348" transform="rotate(-90 27.3913 198.739)" fill="#3383FF"/>
<circle cx="76.0869" cy="198.739" r="3.04348" transform="rotate(-90 76.0869 198.739)" fill="#3383FF"/>
<circle cx="368.261" cy="198.739" r="3.04348" transform="rotate(-90 368.261 198.739)" fill="#3383FF"/>
<circle cx="416.957" cy="198.739" r="3.04348" transform="rotate(-90 416.957 198.739)" fill="#3383FF"/>
<circle cx="27.3913" cy="223.087" r="3.04348" transform="rotate(-90 27.3913 223.087)" fill="#3383FF"/>
<circle cx="76.0869" cy="223.087" r="3.04348" transform="rotate(-90 76.0869 223.087)" fill="#3383FF"/>
<circle cx="368.261" cy="223.087" r="3.04348" transform="rotate(-90 368.261 223.087)" fill="#3383FF"/>
<circle cx="416.957" cy="223.087" r="3.04348" transform="rotate(-90 416.957 223.087)" fill="#3383FF"/>
<circle cx="27.3913" cy="247.435" r="3.04348" transform="rotate(-90 27.3913 247.435)" fill="#3383FF"/>
<circle cx="76.0869" cy="247.435" r="3.04348" transform="rotate(-90 76.0869 247.435)" fill="#3383FF"/>
<circle cx="368.261" cy="247.435" r="3.04348" transform="rotate(-90 368.261 247.435)" fill="#3383FF"/>
<circle cx="416.957" cy="247.435" r="3.04348" transform="rotate(-90 416.957 247.435)" fill="#3383FF"/>
<circle cx="27.3913" cy="271.783" r="3.04348" transform="rotate(-90 27.3913 271.783)" fill="#3383FF"/>
<circle cx="76.0869" cy="271.783" r="3.04348" transform="rotate(-90 76.0869 271.783)" fill="#3383FF"/>
<circle cx="368.261" cy="271.783" r="3.04348" transform="rotate(-90 368.261 271.783)" fill="#3383FF"/>
<circle cx="416.957" cy="271.783" r="3.04348" transform="rotate(-90 416.957 271.783)" fill="#3383FF"/>
<circle cx="3.04348" cy="3.04345" r="3.04348" transform="rotate(-90 3.04348 3.04345)" fill="#3383FF"/>
<circle cx="51.7392" cy="3.04345" r="3.04348" transform="rotate(-90 51.7392 3.04345)" fill="#3383FF"/>
<circle cx="100.435" cy="3.04345" r="3.04348" transform="rotate(-90 100.435 3.04345)" fill="#3383FF"/>
<circle cx="149.13" cy="3.04345" r="3.04348" transform="rotate(-90 149.13 3.04345)" fill="#3383FF"/>
<circle cx="197.826" cy="3.04345" r="3.04348" transform="rotate(-90 197.826 3.04345)" fill="#3383FF"/>
<circle cx="246.522" cy="3.04345" r="3.04348" transform="rotate(-90 246.522 3.04345)" fill="#3383FF"/>
<circle cx="295.217" cy="3.04345" r="3.04348" transform="rotate(-90 295.217 3.04345)" fill="#3383FF"/>
<circle cx="343.913" cy="3.04345" r="3.04348" transform="rotate(-90 343.913 3.04345)" fill="#3383FF"/>
<circle cx="392.609" cy="3.04345" r="3.04348" transform="rotate(-90 392.609 3.04345)" fill="#3383FF"/>
<circle cx="3.04348" cy="27.3913" r="3.04348" transform="rotate(-90 3.04348 27.3913)" fill="#3383FF"/>
<circle cx="100.435" cy="27.3913" r="3.04348" transform="rotate(-90 100.435 27.3913)" fill="#3383FF"/>
<circle cx="149.13" cy="27.3913" r="3.04348" transform="rotate(-90 149.13 27.3913)" fill="#3383FF"/>
<circle cx="197.826" cy="27.3913" r="3.04348" transform="rotate(-90 197.826 27.3913)" fill="#3383FF"/>
<circle cx="246.522" cy="27.3913" r="3.04348" transform="rotate(-90 246.522 27.3913)" fill="#3383FF"/>
<circle cx="295.217" cy="27.3913" r="3.04348" transform="rotate(-90 295.217 27.3913)" fill="#3383FF"/>
<circle cx="51.7392" cy="27.3913" r="3.04348" transform="rotate(-90 51.7392 27.3913)" fill="#3383FF"/>
<circle cx="343.913" cy="27.3913" r="3.04348" transform="rotate(-90 343.913 27.3913)" fill="#3383FF"/>
<circle cx="392.609" cy="27.3913" r="3.04348" transform="rotate(-90 392.609 27.3913)" fill="#3383FF"/>
<circle cx="100.435" cy="51.7391" r="3.04348" transform="rotate(-90 100.435 51.7391)" fill="#3383FF"/>
<circle cx="3.04348" cy="51.7391" r="3.04348" transform="rotate(-90 3.04348 51.7391)" fill="#3383FF"/>
<circle cx="149.13" cy="51.7391" r="3.04348" transform="rotate(-90 149.13 51.7391)" fill="#3383FF"/>
<circle cx="197.826" cy="51.7391" r="3.04348" transform="rotate(-90 197.826 51.7391)" fill="#3383FF"/>
<circle cx="246.522" cy="51.7391" r="3.04348" transform="rotate(-90 246.522 51.7391)" fill="#3383FF"/>
<circle cx="295.217" cy="51.7391" r="3.04348" transform="rotate(-90 295.217 51.7391)" fill="#3383FF"/>
<circle cx="51.7392" cy="51.7391" r="3.04348" transform="rotate(-90 51.7392 51.7391)" fill="#3383FF"/>
<circle cx="100.435" cy="76.0869" r="3.04348" transform="rotate(-90 100.435 76.0869)" fill="#3383FF"/>
<circle cx="343.913" cy="51.7391" r="3.04348" transform="rotate(-90 343.913 51.7391)" fill="#3383FF"/>
<circle cx="392.609" cy="51.7391" r="3.04348" transform="rotate(-90 392.609 51.7391)" fill="#3383FF"/>
<circle cx="149.13" cy="76.0869" r="3.04348" transform="rotate(-90 149.13 76.0869)" fill="#3383FF"/>
<circle cx="197.826" cy="76.0869" r="3.04348" transform="rotate(-90 197.826 76.0869)" fill="#3383FF"/>
<circle cx="246.522" cy="76.0869" r="3.04348" transform="rotate(-90 246.522 76.0869)" fill="#3383FF"/>
<circle cx="295.217" cy="76.0869" r="3.04348" transform="rotate(-90 295.217 76.0869)" fill="#3383FF"/>
<circle cx="3.04348" cy="76.0869" r="3.04348" transform="rotate(-90 3.04348 76.0869)" fill="#3383FF"/>
<circle cx="100.435" cy="100.435" r="3.04348" transform="rotate(-90 100.435 100.435)" fill="#3383FF"/>
<circle cx="51.7392" cy="76.0869" r="3.04348" transform="rotate(-90 51.7392 76.0869)" fill="#3383FF"/>
<circle cx="343.913" cy="76.0869" r="3.04348" transform="rotate(-90 343.913 76.0869)" fill="#3383FF"/>
<circle cx="392.609" cy="76.0869" r="3.04348" transform="rotate(-90 392.609 76.0869)" fill="#3383FF"/>
<circle cx="149.13" cy="100.435" r="3.04348" transform="rotate(-90 149.13 100.435)" fill="#3383FF"/>
<circle cx="100.435" cy="124.783" r="3.04348" transform="rotate(-90 100.435 124.783)" fill="#3383FF"/>
<circle cx="197.826" cy="100.435" r="3.04348" transform="rotate(-90 197.826 100.435)" fill="#3383FF"/>
<circle cx="3.04348" cy="100.435" r="3.04348" transform="rotate(-90 3.04348 100.435)" fill="#3383FF"/>
<circle cx="246.522" cy="100.435" r="3.04348" transform="rotate(-90 246.522 100.435)" fill="#3383FF"/>
<circle cx="51.7392" cy="100.435" r="3.04348" transform="rotate(-90 51.7392 100.435)" fill="#3383FF"/>
<circle cx="295.217" cy="100.435" r="3.04348" transform="rotate(-90 295.217 100.435)" fill="#3383FF"/>
<circle cx="149.13" cy="124.783" r="3.04348" transform="rotate(-90 149.13 124.783)" fill="#3383FF"/>
<circle cx="124.783" cy="3.04345" r="3.04348" transform="rotate(-90 124.783 3.04345)" fill="#3383FF"/>
<circle cx="197.826" cy="124.783" r="3.04348" transform="rotate(-90 197.826 124.783)" fill="#3383FF"/>
<circle cx="246.522" cy="124.783" r="3.04348" transform="rotate(-90 246.522 124.783)" fill="#3383FF"/>
<circle cx="295.217" cy="124.783" r="3.04348" transform="rotate(-90 295.217 124.783)" fill="#3383FF"/>
<circle cx="343.913" cy="100.435" r="3.04348" transform="rotate(-90 343.913 100.435)" fill="#3383FF"/>
<circle cx="392.609" cy="100.435" r="3.04348" transform="rotate(-90 392.609 100.435)" fill="#3383FF"/>
<circle cx="3.04348" cy="124.783" r="3.04348" transform="rotate(-90 3.04348 124.783)" fill="#3383FF"/>
<circle cx="124.783" cy="27.3913" r="3.04348" transform="rotate(-90 124.783 27.3913)" fill="#3383FF"/>
<circle cx="173.478" cy="3.04345" r="3.04348" transform="rotate(-90 173.478 3.04345)" fill="#3383FF"/>
<circle cx="51.7392" cy="124.783" r="3.04348" transform="rotate(-90 51.7392 124.783)" fill="#3383FF"/>
<circle cx="343.913" cy="124.783" r="3.04348" transform="rotate(-90 343.913 124.783)" fill="#3383FF"/>
<circle cx="392.609" cy="124.783" r="3.04348" transform="rotate(-90 392.609 124.783)" fill="#3383FF"/>
<circle cx="222.174" cy="3.04345" r="3.04348" transform="rotate(-90 222.174 3.04345)" fill="#3383FF"/>
<circle cx="124.783" cy="51.7391" r="3.04348" transform="rotate(-90 124.783 51.7391)" fill="#3383FF"/>
<circle cx="270.87" cy="3.04345" r="3.04348" transform="rotate(-90 270.87 3.04345)" fill="#3383FF"/>
<circle cx="319.565" cy="3.04345" r="3.04348" transform="rotate(-90 319.565 3.04345)" fill="#3383FF"/>
<circle cx="173.478" cy="27.3913" r="3.04348" transform="rotate(-90 173.478 27.3913)" fill="#3383FF"/>
<circle cx="27.3913" cy="3.04345" r="3.04348" transform="rotate(-90 27.3913 3.04345)" fill="#3383FF"/>
<circle cx="76.0869" cy="3.04345" r="3.04348" transform="rotate(-90 76.0869 3.04345)" fill="#3383FF"/>
<circle cx="124.783" cy="76.0869" r="3.04348" transform="rotate(-90 124.783 76.0869)" fill="#3383FF"/>
<circle cx="222.174" cy="27.3913" r="3.04348" transform="rotate(-90 222.174 27.3913)" fill="#3383FF"/>
<circle cx="173.478" cy="51.7391" r="3.04348" transform="rotate(-90 173.478 51.7391)" fill="#3383FF"/>
<circle cx="368.261" cy="3.04345" r="3.04348" transform="rotate(-90 368.261 3.04345)" fill="#3383FF"/>
<circle cx="416.957" cy="3.04345" r="3.04348" transform="rotate(-90 416.957 3.04345)" fill="#3383FF"/>
<circle cx="270.87" cy="27.3913" r="3.04348" transform="rotate(-90 270.87 27.3913)" fill="#3383FF"/>
<circle cx="27.3913" cy="27.3913" r="3.04348" transform="rotate(-90 27.3913 27.3913)" fill="#3383FF"/>
<circle cx="319.565" cy="27.3913" r="3.04348" transform="rotate(-90 319.565 27.3913)" fill="#3383FF"/>
<circle cx="173.478" cy="76.0869" r="3.04348" transform="rotate(-90 173.478 76.0869)" fill="#3383FF"/>
<circle cx="222.174" cy="51.7391" r="3.04348" transform="rotate(-90 222.174 51.7391)" fill="#3383FF"/>
<circle cx="124.783" cy="100.435" r="3.04348" transform="rotate(-90 124.783 100.435)" fill="#3383FF"/>
<circle cx="76.0869" cy="27.3913" r="3.04348" transform="rotate(-90 76.0869 27.3913)" fill="#3383FF"/>
<circle cx="222.174" cy="76.0869" r="3.04348" transform="rotate(-90 222.174 76.0869)" fill="#3383FF"/>
<circle cx="270.87" cy="51.7391" r="3.04348" transform="rotate(-90 270.87 51.7391)" fill="#3383FF"/>
<circle cx="173.478" cy="100.435" r="3.04348" transform="rotate(-90 173.478 100.435)" fill="#3383FF"/>
<circle cx="368.261" cy="27.3913" r="3.04348" transform="rotate(-90 368.261 27.3913)" fill="#3383FF"/>
<circle cx="416.957" cy="27.3913" r="3.04348" transform="rotate(-90 416.957 27.3913)" fill="#3383FF"/>
<circle cx="270.87" cy="76.0869" r="3.04348" transform="rotate(-90 270.87 76.0869)" fill="#3383FF"/>
<circle cx="319.565" cy="51.7391" r="3.04348" transform="rotate(-90 319.565 51.7391)" fill="#3383FF"/>
<circle cx="222.174" cy="100.435" r="3.04348" transform="rotate(-90 222.174 100.435)" fill="#3383FF"/>
<circle cx="124.783" cy="124.783" r="3.04348" transform="rotate(-90 124.783 124.783)" fill="#3383FF"/>
<circle cx="319.565" cy="76.0869" r="3.04348" transform="rotate(-90 319.565 76.0869)" fill="#3383FF"/>
<circle cx="270.87" cy="100.435" r="3.04348" transform="rotate(-90 270.87 100.435)" fill="#3383FF"/>
<circle cx="173.478" cy="124.783" r="3.04348" transform="rotate(-90 173.478 124.783)" fill="#3383FF"/>
<circle cx="319.565" cy="100.435" r="3.04348" transform="rotate(-90 319.565 100.435)" fill="#3383FF"/>
<circle cx="222.174" cy="124.783" r="3.04348" transform="rotate(-90 222.174 124.783)" fill="#3383FF"/>
<circle cx="270.87" cy="124.783" r="3.04348" transform="rotate(-90 270.87 124.783)" fill="#3383FF"/>
<circle cx="319.565" cy="124.783" r="3.04348" transform="rotate(-90 319.565 124.783)" fill="#3383FF"/>
<circle cx="27.3913" cy="51.7391" r="3.04348" transform="rotate(-90 27.3913 51.7391)" fill="#3383FF"/>
<circle cx="76.0869" cy="51.7391" r="3.04348" transform="rotate(-90 76.0869 51.7391)" fill="#3383FF"/>
<circle cx="368.261" cy="51.7391" r="3.04348" transform="rotate(-90 368.261 51.7391)" fill="#3383FF"/>
<circle cx="416.957" cy="51.7391" r="3.04348" transform="rotate(-90 416.957 51.7391)" fill="#3383FF"/>
<circle cx="27.3913" cy="76.0869" r="3.04348" transform="rotate(-90 27.3913 76.0869)" fill="#3383FF"/>
<circle cx="76.0869" cy="76.0869" r="3.04348" transform="rotate(-90 76.0869 76.0869)" fill="#3383FF"/>
<circle cx="368.261" cy="76.0869" r="3.04348" transform="rotate(-90 368.261 76.0869)" fill="#3383FF"/>
<circle cx="416.957" cy="76.0869" r="3.04348" transform="rotate(-90 416.957 76.0869)" fill="#3383FF"/>
<circle cx="27.3913" cy="100.435" r="3.04348" transform="rotate(-90 27.3913 100.435)" fill="#3383FF"/>
<circle cx="76.0869" cy="100.435" r="3.04348" transform="rotate(-90 76.0869 100.435)" fill="#3383FF"/>
<circle cx="368.261" cy="100.435" r="3.04348" transform="rotate(-90 368.261 100.435)" fill="#3383FF"/>
<circle cx="416.957" cy="100.435" r="3.04348" transform="rotate(-90 416.957 100.435)" fill="#3383FF"/>
<circle cx="27.3913" cy="124.783" r="3.04348" transform="rotate(-90 27.3913 124.783)" fill="#3383FF"/>
<circle cx="76.0869" cy="124.783" r="3.04348" transform="rotate(-90 76.0869 124.783)" fill="#3383FF"/>
<circle cx="368.261" cy="124.783" r="3.04348" transform="rotate(-90 368.261 124.783)" fill="#3383FF"/>
<circle cx="416.957" cy="124.783" r="3.04348" transform="rotate(-90 416.957 124.783)" fill="#3383FF"/>
</svg>
